<?xml version="1.0" encoding="UTF-8" standalone="no"?>
<!-- Created with Inkscape (http://www.inkscape.org/) -->

<svg
   width="100mm"
   height="100mm"
   viewBox="0 0 100 100"
   version="1.1"
   id="svg1"
   inkscape:version="1.4 (86a8ad7, 2024-10-11)"
   sodipodi:docname="Earthworm_soilprofiles.svg"
   xmlns:inkscape="http://www.inkscape.org/namespaces/inkscape"
   xmlns:sodipodi="http://sodipodi.sourceforge.net/DTD/sodipodi-0.dtd"
   xmlns:xlink="http://www.w3.org/1999/xlink"
   xmlns="http://www.w3.org/2000/svg"
   xmlns:svg="http://www.w3.org/2000/svg">
  <sodipodi:namedview
     id="namedview1"
     pagecolor="#505050"
     bordercolor="#eeeeee"
     borderopacity="1"
     inkscape:showpageshadow="0"
     inkscape:pageopacity="0"
     inkscape:pagecheckerboard="0"
     inkscape:deskcolor="#505050"
     inkscape:document-units="mm"
     inkscape:zoom="3.2101319"
     inkscape:cx="212.45233"
     inkscape:cy="162.45438"
     inkscape:window-width="2256"
     inkscape:window-height="1398"
     inkscape:window-x="-11"
     inkscape:window-y="-11"
     inkscape:window-maximized="1"
     inkscape:current-layer="layer5" />
  <defs
     id="defs1">
    <marker
       style="overflow:visible"
       id="Triangle"
       refX="0"
       refY="0"
       orient="auto-start-reverse"
       inkscape:stockid="Triangle arrow"
       markerWidth="1"
       markerHeight="1"
       viewBox="0 0 1 1"
       inkscape:isstock="true"
       inkscape:collect="always"
       preserveAspectRatio="xMidYMid">
      <path
         transform="scale(0.5)"
         style="fill:context-stroke;fill-rule:evenodd;stroke:context-stroke;stroke-width:1pt"
         d="M 5.77,0 -2.88,5 V -5 Z"
         id="path135" />
    </marker>
    <rect
       x="37.070128"
       y="227.7165"
       width="69.779064"
       height="14.018115"
       id="rect43" />
    <pattern
       inkscape:collect="always"
       xlink:href="#Polkadots-large"
       preserveAspectRatio="xMidYMid"
       id="pattern34"
       patternTransform="matrix(0.4,0,0,0.4,5.0075923,-0.78471906)"
       x="0"
       y="0" />
    <pattern
       patternUnits="userSpaceOnUse"
       width="10"
       height="10"
       patternTransform="translate(0,0) scale(10,10)"
       preserveAspectRatio="xMidYMid"
       id="Polkadots-large"
       inkscape:stockid="Polka dots, large"
       inkscape:label="Polka dots large"
       inkscape:collect="always"
       inkscape:isstock="true">
      <circle
         style="stroke:none"
         cx="2.567"
         cy="0.810"
         r="0.45"
         id="circle584" />
      <circle
         style="stroke:none"
         cx="3.048"
         cy="2.33"
         r="0.45"
         id="circle586" />
      <circle
         style="stroke:none"
         cx="4.418"
         cy="2.415"
         r="0.45"
         id="circle588" />
      <circle
         style="stroke:none"
         cx="1.844"
         cy="3.029"
         r="0.45"
         id="circle590" />
      <circle
         style="stroke:none"
         cx="6.08"
         cy="1.363"
         r="0.45"
         id="circle592" />
      <circle
         style="stroke:none"
         cx="5.819"
         cy="4.413"
         r="0.45"
         id="circle594" />
      <circle
         style="stroke:none"
         cx="4.305"
         cy="4.048"
         r="0.45"
         id="circle596" />
      <circle
         style="stroke:none"
         cx="5.541"
         cy="3.045"
         r="0.45"
         id="circle598" />
      <circle
         style="stroke:none"
         cx="4.785"
         cy="5.527"
         r="0.45"
         id="circle600" />
      <circle
         style="stroke:none"
         cx="2.667"
         cy="5.184"
         r="0.45"
         id="circle602" />
      <circle
         style="stroke:none"
         cx="7.965"
         cy="1.448"
         r="0.45"
         id="circle604" />
      <circle
         style="stroke:none"
         cx="7.047"
         cy="5.049"
         r="0.45"
         id="circle606" />
      <circle
         style="stroke:none"
         cx="4.340"
         cy="0.895"
         r="0.45"
         id="circle608" />
      <circle
         style="stroke:none"
         cx="7.125"
         cy="0.340"
         r="0.45"
         id="circle610" />
      <circle
         style="stroke:none"
         cx="7.125"
         cy="10.340"
         r="0.45"
         id="circle612" />
      <circle
         style="stroke:none"
         cx="9.550"
         cy="1.049"
         r="0.45"
         id="circle614" />
      <circle
         style="stroke:none"
         cx="7.006"
         cy="2.689"
         r="0.45"
         id="circle616" />
      <circle
         style="stroke:none"
         cx="8.909"
         cy="2.689"
         r="0.45"
         id="circle618" />
      <circle
         style="stroke:none"
         cx="9.315"
         cy="4.407"
         r="0.45"
         id="circle620" />
      <circle
         style="stroke:none"
         cx="7.820"
         cy="3.870"
         r="0.45"
         id="circle622" />
      <circle
         style="stroke:none"
         cx="8.270"
         cy="5.948"
         r="0.45"
         id="circle624" />
      <circle
         style="stroke:none"
         cx="7.973"
         cy="7.428"
         r="0.45"
         id="circle626" />
      <circle
         style="stroke:none"
         cx="9.342"
         cy="8.072"
         r="0.45"
         id="circle628" />
      <circle
         style="stroke:none"
         cx="8.206"
         cy="9.315"
         r="0.45"
         id="circle630" />
      <circle
         style="stroke:none"
         cx="9.682"
         cy="9.475"
         r="0.45"
         id="circle632" />
      <circle
         style="stroke:none"
         cx="-0.318"
         cy="9.475"
         r="0.45"
         id="circle634" />
      <circle
         style="stroke:none"
         cx="9.688"
         cy="6.186"
         r="0.45"
         id="circle636" />
      <circle
         style="stroke:none"
         cx="-0.312"
         cy="6.186"
         r="0.45"
         id="circle638" />
      <circle
         style="stroke:none"
         cx="3.379"
         cy="6.296"
         r="0.45"
         id="circle640" />
      <circle
         style="stroke:none"
         cx="2.871"
         cy="8.204"
         r="0.45"
         id="circle642" />
      <circle
         style="stroke:none"
         cx="4.59"
         cy="8.719"
         r="0.45"
         id="circle644" />
      <circle
         style="stroke:none"
         cx="3.181"
         cy="9.671"
         r="0.45"
         id="circle646" />
      <circle
         style="stroke:none"
         cx="3.181"
         cy="-0.329"
         r="0.45"
         id="circle648" />
      <circle
         style="stroke:none"
         cx="5.734"
         cy="7.315"
         r="0.45"
         id="circle650" />
      <circle
         style="stroke:none"
         cx="6.707"
         cy="6.513"
         r="0.45"
         id="circle652" />
      <circle
         style="stroke:none"
         cx="5.730"
         cy="9.670"
         r="0.45"
         id="circle654" />
      <circle
         style="stroke:none"
         cx="5.730"
         cy="-0.330"
         r="0.45"
         id="circle656" />
      <circle
         style="stroke:none"
         cx="6.535"
         cy="8.373"
         r="0.45"
         id="circle658" />
      <circle
         style="stroke:none"
         cx="4.37"
         cy="7.154"
         r="0.45"
         id="circle660" />
      <circle
         style="stroke:none"
         cx="0.622"
         cy="7.25"
         r="0.45"
         id="circle662" />
      <circle
         style="stroke:none"
         cx="0.831"
         cy="5.679"
         r="0.45"
         id="circle664" />
      <circle
         style="stroke:none"
         cx="1.257"
         cy="8.519"
         r="0.45"
         id="circle666" />
      <circle
         style="stroke:none"
         cx="1.989"
         cy="6.877"
         r="0.45"
         id="circle668" />
      <circle
         style="stroke:none"
         cx="0.374"
         cy="3.181"
         r="0.45"
         id="circle670" />
      <circle
         style="stroke:none"
         cx="10.374"
         cy="3.181"
         r="0.45"
         id="circle672" />
      <circle
         style="stroke:none"
         cx="1.166"
         cy="1.664"
         r="0.45"
         id="circle674" />
      <circle
         style="stroke:none"
         cx="1.151"
         cy="0.093"
         r="0.45"
         id="circle676" />
      <circle
         style="stroke:none"
         cx="1.151"
         cy="10.093"
         r="0.45"
         id="circle678" />
      <circle
         style="stroke:none"
         cx="1.302"
         cy="4.451"
         r="0.45"
         id="circle680" />
      <circle
         style="stroke:none"
         cx="3.047"
         cy="3.763"
         r="0.45"
         id="circle682" />
    </pattern>
    <pattern
       inkscape:collect="always"
       xlink:href="#pattern31"
       preserveAspectRatio="xMidYMid"
       id="pattern32"
       patternTransform="matrix(0.02896016,0,0,0.02971969,670.93921,45.116558)"
       x="0"
       y="0" />
    <pattern
       patternUnits="userSpaceOnUse"
       preserveAspectRatio="xMidYMid"
       width="172.58011"
       height="297.28573"
       patternTransform="translate(688.57557,44.61083)"
       style="fill:#000000"
       id="pattern31"
       inkscape:collect="always"
       inkscape:isstock="true"
       inkscape:label="Leaves">
      <path
         id="path30"
         style="opacity:1;fill-opacity:1;stroke:none;stroke-width:1.97882;stroke-linecap:square;stroke-dasharray:none;stroke-opacity:1;paint-order:markers fill stroke"
         d="M 28.162167,3.4015748e-4 C 28.580485,0.40463622 29.030135,0.78935433 29.533228,1.1585386 c 7.226797,5.3027905 11.800781,2.085959 11.800781,2.085959 l 0.857424,1.6953071 c 0,0 0.0076,0.7687181 -5.496076,4.4589733 -1.803703,1.210091 -9.820686,6.223257 -10.943357,7.908208 0,0 1.769764,-0.228662 6.855458,-3.423836 11.64703,-7.3173547 10.14875,-8.2469673 13.814476,-10.6562272 2.21949,-1.4587086 7.26599,-4.6471181 13.632794,-1.22657 6.366841,3.420548 15.062853,10.5240562 20.234381,11.1230362 5.171641,0.598942 8.710941,-0.158362 8.710941,-0.158362 0,0 -3.998437,-1.649008 -7.046891,-4.5175561 C 80.298633,6.8908346 77.262198,3.256252 74.050809,1.8897638e-4 H 50.132863 C 50.039887,0.13965354 49.915918,0.32031496 49.915918,0.32031496 L 47.36708,1.166022 c 0,0 0.608126,-0.98800625 0.718753,-1.166022 h -2.031269 c -1.23583,1.8150803 -2.599597,3.4824189 -2.599597,3.4824189 0,0 -1.446085,-1.5290835 -3.382791,-3.4824189 z M 161.35941,5.2679433 c 0.1663,0.3348661 -3.38098,4.7303811 -7.99412,6.2011467 -4.57421,1.458368 -8.5745,0.868686 -14.67776,5.730482 -4.72168,3.761272 -2.68161,7.619149 -2.68161,7.619149 19.20915,-7.565404 19.70907,-9.408642 21.00779,-11.496113 0,0 -0.60968,5.73222 -21.96484,14.232416 -11.77875,4.68839 -10.24218,16.607433 -10.24218,16.607433 0,0 1.16375,-12.432416 12.8047,-15.156246 3.33853,-0.781228 7.26671,5.622501 18.07419,-5.429669 5.32475,-5.445355 6.45464,-10.557506 6.42384,-13.9882963 -0.0227,-2.6683843 -0.75001,-4.3203024 -0.75001,-4.3203024 z m -45.64063,2.966778 c -0.60303,-9.827e-4 -1.23122,0.030236 -1.88474,0.09978 -8.36519,0.8856945 -13.48244,4.5273457 -13.48244,4.5273457 0,0 14.46723,9.251678 26.0801,-0.09751 v -0.002 c 0,0 -3.59721,-4.5155913 -10.71292,-4.5273457 z M 52.814513,17.308951 c 0,0 -8.701379,1.774904 -11.460963,17.52344 -1.702791,9.717618 -0.66807,17.138872 0.628913,21.279307 2.09537,6.689384 6.009751,6.205076 6.009751,6.205076 0,0 -2.151987,-8.966626 -2.28514,-17.871117 -0.09449,-6.330255 1.695307,-17.749985 1.695307,-17.749985 0,0 -1.208126,11.947767 -0.328063,20.835931 0.681411,6.881726 2.521474,16.576175 2.521474,16.576175 0,0 -2.670009,0.171591 -5.113285,0.002 -5.606702,-0.388687 -8.710942,-0.675818 -8.710942,-0.675818 0,0 -0.839584,-7.175924 -4.638689,-12.031218 -3.693997,-4.720894 -9.054652,-7.271508 -9.054652,-7.271508 3.154809,4.954545 3.819023,9.654009 5.689436,13.226569 2.813405,5.373619 6.433587,6.251943 6.433587,6.251943 0,0 -15.327458,-1.836926 -21.001965,1.398463 -6.1668285,3.516057 -9.0214678,7.810545 -9.0214678,7.810545 0,0 2.7886866,-0.805455 12.0839808,-2.451175 5.962092,-1.055622 9.492208,-6.296882 9.492208,-6.296882 0,0 5.553827,0.710136 9.306633,1.103509 3.752769,0.393411 10.392567,0.994129 10.392567,0.994129 l -2.146469,1.802759 c 0,0 -3.403805,-0.343559 -7.584,1.109367 -4.180233,1.452964 -5.328189,4.251024 -6.861317,9.886715 -1.533241,5.635616 2.393424,19.724031 3.050759,24.548834 0.657374,4.82468 -0.23811,9.69531 -0.23811,9.69531 0,0 2.636183,-2.78615 5.068347,-8.03319 2.432201,-5.247011 1.453228,-18.26737 2.216806,-26.574242 0.763616,-8.306797 6.271861,-10.829632 8.742198,-11.900372 4.079925,-1.768365 4.00509,0.272882 16.687484,-5.578129 5.537764,-2.554809 6.730469,-4.05275 6.730469,-4.05275 -2.040113,-0.107716 -10.748107,3.932183 -12.77537,4.785185 -6.184743,2.602129 -6.822274,2.070311 -6.822274,2.070311 l -0.921902,-1.968755 c 0,0 5.26696,-2.060334 4.953146,-12.466809 -0.172346,-5.719786 -3.034431,-9.099439 -4.142589,-19.994154 -0.726879,-7.146671 1.404321,-12.18943 1.404321,-12.18943 z m 19.369134,7.974614 c 0,0 -5.214652,4.352769 -4.13673,12.69532 1.077996,8.342513 4.835943,13.374992 4.835943,13.374992 0,0 3.841058,-6.321108 3.763653,-13.88674 -0.04044,-3.962986 -1.157971,-8.266696 -4.462866,-12.183572 z m 41.716803,2.869115 c 0,0 -15.202548,1.683629 -17.595707,17.304718 -4.338897,28.321511 -11.259779,30.757795 -11.259779,30.757795 2.208491,-2.188687 4.347212,-3.339478 8.1504,-28.791004 0,0 -5.368819,-1.318677 -8.658218,5.501934 -4.25193,8.816389 -2.364926,13.47477 -2.845681,19.433611 -0.4848,6.009563 -4.898533,11.59903 -5.361336,11.498041 0,0 11.781165,2.020573 21.025399,-12.289058 C 107.90948,55.231559 98.8416,52.38652 98.841827,48.121436 98.842507,33.250091 113.90045,28.15268 113.90045,28.15268 Z M 3.5410772,38.230828 c -1.1543055,1.52e-4 -2.341304,0.08617 -3.541039404724,0.287244 v 8.54298 C 1.0136693,47.083729 2.0932913,47.023257 3.2559118,46.824831 11.54812,45.410343 16.423861,41.45178 16.423861,41.45178 c 0,0 -5.828749,-3.221594 -12.8827838,-3.220687 z M 172.58011,38.518072 c -3.23879,0.542627 -6.56784,1.915427 -9.59373,4.685556 0,0 3.37803,3.712592 9.59373,3.857424 z m -17.93552,8.371087 c -0.60303,-9.83e-4 -1.23126,0.03024 -1.88478,0.09978 -8.36519,0.885732 -13.48244,4.527344 -13.48244,4.527344 0,0 14.4672,9.250053 26.0801,-0.09978 0,0 -3.59724,-4.515553 -10.71288,-4.527344 z m -26.40431,16.878915 c -0.60303,-9.82e-4 -1.23122,0.03024 -1.88478,0.09978 -8.36519,0.88577 -13.4824,4.527345 -13.4824,4.527345 0,0 14.4655,9.248542 26.07813,-0.09978 -0.0151,-0.02268 -3.61209,-4.51559 -10.71095,-4.527345 z m 36.27734,2.595704 c 0,0 -3.4351,15.519761 -18.21876,17.132826 -4.23991,0.462614 -8.05191,-8.241563 -23.14843,4.021493 -13.22298,10.74119 -9.93555,22.234353 -9.93555,22.234353 -0.1508,-0.44916 4.92612,-5.4446 10.84766,-6.57811 5.87157,-1.12392 10.70835,0.24718 19.01174,-4.935576 6.42372,-4.009361 4.52927,-9.201146 4.52927,-9.201146 -24.88913,6.54017 -25.80007,8.789858 -27.73632,11.222662 0,0 1.67134,-7.143343 29.35547,-14.527368 15.26963,-4.072743 15.29492,-19.369134 15.29492,-19.369134 z M 52.750035,82.951671 c 0,0 -2.376152,11.713625 11.648428,21.384759 16.011742,11.04155 19.129474,2.06464 23.392592,2.19337 14.864575,0.44878 19.505875,15.65235 19.505875,15.65235 0,0 -1.22385,-15.24658 -16.765642,-18.10938 C 62.353361,98.882418 60.125027,91.893089 60.125027,91.893089 c 2.121146,2.273461 3.205833,4.443326 28.531275,9.011721 0,0 1.482067,-5.324906 -5.236346,-8.818361 C 74.735735,87.570821 70.021757,89.316811 64.080113,88.656755 58.087937,87.991067 52.635137,83.411262 52.750035,82.951671 Z M 12.724649,92.20558 c 0,0 -12.31789624,11.96266 -5.8769388,25.40821 0,0 6.1415058,-2.90237 7.1953138,-11.24806 0.197669,-1.5648 0.274393,-3.04097 0.26948,-4.40625 -0.02268,-5.916092 -1.587893,-9.7539 -1.587893,-9.7539 z m 140.677721,15.67967 c 0,0 -3.25833,5.96039 0.80077,13.32813 4.05921,7.36777 9.4004,10.67384 9.4004,10.67384 0,0 0.28573,-1.65234 0.27742,-4.14063 -0.0189,-5.47419 -1.4586,-14.99338 -10.47855,-19.86134 z m -104.619139,6.15821 c 0,0 -4.080415,16.68106 8.519547,24.65039 0,0 1.655093,-2.58437 1.666016,-6.59373 0.0076,-1.95802 -0.383055,-4.25609 -1.54492,-6.75976 -3.540964,-7.63041 -8.640643,-11.2969 -8.640643,-11.2969 z m -12.734362,3.334 c 0,0 -4.199055,0.71819 -9.652346,3.77148 -5.453292,3.05325 -12.184252,15.34099 -17.8242143,22.24804 -2.7684284,3.39038 -5.8208882,4.76231 -8.572270904724,5.20312 v 2.69726 C 1.3919622,152.16461 3.4468157,153.26358 6.0918425,154.07667 c 4.9105885,1.50959 7.6755775,-0.21656 12.4863115,-4.22071 4.810734,-4.00422 9.313474,-19.22744 11.521512,-23.97849 2.208038,-4.7511 5.949203,-8.50001 5.949203,-8.50001 z m 102.410151,2.48829 c -14.89292,0.68375 -19.60936,17.1953 -19.60936,17.1953 0,0 6.24662,-0.66168 13.10155,-5.53712 6.42648,-4.57081 6.52097,-10.81882 6.50781,-11.58202 h 0.002 c -8.7e-4,-0.0506 -0.002,-0.0763 -0.002,-0.0763 z m -52.283184,0.78709 c 0,0 4.716397,16.51158 19.609364,17.19534 0,0 0.008,-0.10772 0.002,-0.30274 -0.0265,-1.36524 -0.51163,-7.09338 -6.509783,-11.35937 -6.854891,-4.87552 -13.101543,-5.53323 -13.101543,-5.53323 z M 71.826217,134.6431 c -3.045959,0.0578 -4.814437,0.96873 -4.814437,0.96873 0,0 5.20131,2.79757 9.076157,9.4707 5.90691,10.1726 5.392365,15.14854 8.875011,20.19338 6.336265,9.17846 12.556611,7.14255 12.556611,7.14255 l 0.394545,2.3633 c 0,0 -0.253228,0.91665 -7.675767,3.14842 -2.433865,0.73179 -13.130608,3.55 -14.958992,5.11722 0,0 2.067855,0.42788 8.857398,-1.37696 15.549392,-4.13337 14.177688,-5.83805 19.107437,-7.26565 2.98477,-0.86442 9.72722,-2.67579 15.73047,3.91797 6.00321,6.59373 4.67501,10.03831 8.3164,18.00979 2.59672,5.68479 8.70898,2.95309 8.70898,2.95309 0,0 -3.55998,1.01545 -5.70898,-5.36326 -2.14896,-6.37875 0.77805,-31.37201 -14.36719,-26.12889 -4.82223,1.7715 -7.77536,4.52734 -7.77536,4.52734 h -3.14846 c 0,0 5.80509,-5.31443 9.05272,-8.36526 3.24767,-3.0508 7.97269,-7.67577 7.97269,-7.67577 0,0 6.6291,1.95575 12.85935,-1.44533 9.7132,-5.30249 12.82617,-6.62498 12.82617,-6.62498 0,0 -5.39637,-1.63038 -13.38475,-0.19729 -7.35069,1.31826 -20.46875,13.97461 -20.46875,13.97461 0,0 2.81409,-3.37353 2.01366,-10.02932 -0.53208,-4.42495 -2.904,-8.94603 -3.11913,-15.48827 0,0 -3.37429,6.06988 -3.81056,12.80076 -0.44878,6.92244 3.33986,13.70117 3.33986,13.70117 0,0 -2.70871,2.49014 -7.68752,6.87696 -2.16957,1.91161 -4.769503,3.69336 -4.769503,3.69336 0,0 -4.460712,-9.66977 -8.208983,-16.08201 -4.841234,-8.28173 -13.578141,-17.68558 -13.578141,-17.68558 0,0 8.944592,8.53134 12.88868,14.04495 5.548006,7.75601 9.251947,17.02538 9.251947,17.02538 0,0 3.95822,-2.41493 1.6504,-9.68361 -1.42843,-4.49899 -5.19133,-11.62934 -12.968766,-18.75779 -7.089864,-6.49826 -13.116964,-7.83432 -17.033197,-7.75975 z m 66.847673,6.28906 c -1.01556,-0.004 -1.40629,0.0975 -1.40629,0.0975 1.90999,1.46657 12.74317,3.70681 15.2129,4.30666 7.53211,1.82933 7.83398,2.73048 7.83398,2.73048 l -0.2657,2.38084 c 0,0 -6.32262,-1.69746 -12.15624,7.80858 -3.20633,5.22478 -2.42412,10.16504 -7.7754,20.64064 -3.51035,6.87182 -8.55273,9.9453 -8.55273,9.9453 0,0 9.48658,4.25847 21.4512,-7.95511 7.38282,-7.53635 10.75506,-14.85831 11.93945,-19.42768 1.91361,-7.38229 -2.16994,-9.58205 -2.16994,-9.58205 0,0 -3.19941,9.45502 -8.32225,17.49804 -3.64188,5.71778 -12.11328,14.7168 -12.11328,14.7168 0,0 8.21658,-9.86048 12.60545,-18.39061 3.39806,-6.60465 7.33398,-16.4981 7.33398,-16.4981 0,0 2.69155,1.63945 4.96093,3.43166 2.32309,1.8347 3.99137,3.17488 5.33008,4.25394 v -2.55273 c -2.13037,-1.76043 -5.05859,-4.19335 -5.05859,-4.19335 l 3.14453,-0.17008 c 0,0 0.72181,0.57936 1.91406,1.32227 v -2.69533 c -2.85392,0.45721 -5.38269,-0.0873 -6.92383,-0.44535 -4.99933,-1.16042 -3.72143,-2.9334 -19.47069,-6.22461 -3.86823,-0.80829 -6.20606,-0.99209 -7.5117,-0.99802 z M 33.877002,150.563 c -2.539465,0.008 -4.076183,0.32806 -4.076183,0.32806 0,0 9.560995,14.26405 23.943383,10.33788 -0.0029,-0.0151 -1.763377,-6.56568 -9.775408,-9.0957 -4.010759,-1.26644 -7.552366,-1.5767 -10.091792,-1.57032 z M 3.7795276e-5,154.33644 v 2.55273 C 1.6621606,158.22886 2.7148724,159.0884 2.7148724,159.0884 c 0,0 -2.56588342,5.24179 -2.714834604724,11.125 v 0.69529 C 0.00759685,171.58537 0.03821102,172.26588 0.11720315,172.94778 c 0.79766929,6.69766 4.49219525,12.57812 4.49219525,12.57812 -0.1371968,-6.54426 1.9878425,-11.18567 2.2812473,-15.63281 0.4412598,-6.6892 -2.5508032,-9.90626 -2.5508032,-9.90626 0,0 13.7824255,11.93254 21.1933605,12.8535 8.053909,1.00097 13.353525,-0.91601 13.353525,-0.91601 0,0 -3.177714,-1.15517 -13.16213,-5.92773 -6.404069,-3.06112 -12.919899,-0.74998 -12.919899,-0.74998 0,0 -4.96611,-4.36463 -8.3730518,-7.23635 C 2.8407307,156.66924 1.8662551,155.87868 0,154.33644 Z M 72.443414,163.47708 c 0,0 -4.168138,15.34023 -19.011742,16.25 -4.257108,0.26079 -7.649121,-8.61505 -23.310538,2.91795 -13.717758,10.10173 -10.9824,21.73632 -10.9824,21.73632 -0.128882,-0.45581 5.179767,-5.20153 11.148435,-6.05272 5.918173,-0.84416 10.684648,0.75553 19.224604,-4.02735 6.606803,-3.70023 4.958967,-8.9785 4.958967,-8.9785 -25.171389,5.35185 -26.186683,7.55634 -28.236321,9.89451 0,0 2.010368,-7.05699 30.013682,-13.11912 15.44553,-3.34364 16.195313,-18.62109 16.195313,-18.62109 z m 100.136696,6.7793 c -0.004,0.18746 -0.002,0.37568 0,0.56443 z M 92.689512,189.022 c 0,0 -4.69954,0.80436 -10.804687,4.22264 -6.105184,3.41828 -13.640882,17.17545 -19.955112,24.90822 -6.314078,7.73276 -13.960743,6.11282 -17.349581,5.32614 -5.597026,-1.29913 -4.166891,-3.28418 -21.798841,-6.96873 -7.698935,-1.6089 -9.984378,-1.00588 -9.984378,-1.00588 2.138306,1.6419 14.266281,4.14682 17.03127,4.81837 8.43239,2.04805 8.771452,3.05862 8.771452,3.05862 l -0.298961,2.66404 c 0,0 -7.076485,-1.90035 -13.607433,8.7422 -3.589606,5.84934 -2.716006,11.38148 -8.707011,23.10935 -3.930028,7.6933 -9.5742237,11.13283 -9.5742237,11.13283 0,0 10.6187337,4.76734 24.0136817,-8.90623 8.26526,-8.43735 12.043125,-16.63439 13.369134,-21.75001 2.14235,-8.26477 -2.427742,-10.72657 -2.427742,-10.72657 0,0 -3.58114,10.58532 -9.316422,19.58982 -4.077165,6.40135 -13.564422,16.47659 -13.564422,16.47659 0,0 9.201714,-11.03996 14.115213,-20.58985 3.804321,-7.39411 8.208982,-18.4707 8.208982,-18.4707 0,0 3.012133,1.83526 5.552731,3.84178 5.829997,4.60437 9.009789,7.22464 9.009789,7.22464 0,0 -3.828623,7.80382 -2.91016,15.5156 0.892989,7.49832 5.031231,14.08203 5.031231,14.08203 -0.153449,-7.32669 2.226255,-12.52316 2.554696,-17.50193 0.494022,-7.48883 -2.855471,-11.08986 -2.855471,-11.08986 0,0 15.427729,13.3575 23.724624,14.38867 9.01663,1.12066 14.951168,-1.02539 14.951168,-1.02539 0,0 -3.558349,-1.28973 -14.73634,-6.63281 -7.169688,-3.42712 -14.464856,-0.84181 -14.464856,-0.84181 0,0 -5.558741,-4.88459 -9.37304,-8.0996 -3.814337,-3.21506 -10.625008,-8.80664 -10.625008,-8.80664 l 3.519534,-0.19125 c 0,0 3.467263,2.9037 8.964851,4.59375 5.497625,1.68998 8.592755,-0.24377 13.978507,-4.72656 5.385789,-4.48293 10.424466,-21.52467 12.896504,-26.84375 2.471962,-5.31908 6.66017,-9.51757 6.66017,-9.51757 z m 18.572258,1.67773 c -0.60302,-10e-4 -1.23318,0.0302 -1.88674,0.0998 -8.36515,0.88569 -13.482406,4.52734 -13.482406,4.52734 0,0 14.467236,9.25017 26.080066,-0.0998 0,0 -3.59528,-4.51559 -10.71092,-4.52734 z m 59.14061,9.99999 c -0.76724,-0.004 -1.57534,0.0461 -2.42774,0.16403 -8.33238,1.1534 -13.33202,4.95704 -13.33202,4.95704 0,0 8.75036,5.1984 17.93749,3.15624 v -8.11717 c -0.68576,-0.0975 -1.41052,-0.15572 -2.17773,-0.16026 z M 3.7795276e-5,200.85997 v 8.11718 C 4.5279118,207.96835 10.43365,204.52792 10.43365,204.52792 c 0,0 -3.2694799,-2.44097 -10.433612204724,-3.66795 z M 116.67583,214.66855 c -5.42442,-0.0265 -9.4961,2.06249 -9.4961,2.06249 0,0 15.37311,-4.04754 23.57227,8.35937 2.35147,3.55827 -3.64585,10.93035 14.16601,18.74218 15.60144,6.84235 24.31835,-1.33788 24.31835,-1.33788 -0.33071,0.33941 -7.09508,-1.89021 -10.81247,-6.63669 -3.68618,-4.7065 -4.67823,-9.63496 -13.08594,-14.64651 -6.50464,-3.87696 -10.25782,0.18369 -10.25782,0.18369 17.20433,19.13775 19.6227,18.9188 22.67187,19.52734 0,0 -7.11798,1.78175 -26.35158,-19.45508 -4.80692,-5.3077 -10.23009,-6.77835 -14.72459,-6.79884 z m -17.7168,8.42577 c 0,0 2.03176,17.05066 16.62694,20.09182 0,0 0.13833,-0.64857 0.14664,-1.7207 0.0189,-2.35877 -0.59648,-6.76819 -4.71677,-10.8262 -5.99339,-5.90264 -12.056659,-7.54492 -12.056659,-7.54492 z m 24.21876,31.39843 c -4.49484,-0.0189 -9.93014,1.40848 -14.78128,6.67578 -19.41033,21.07544 -26.511685,19.23439 -26.511685,19.23439 3.054123,-0.58303 5.470299,-0.3428 22.833975,-19.33595 0,0 -3.71716,-4.0922 -10.253931,-0.26948 -8.449323,4.94113 -9.48359,9.86155 -13.208957,14.53712 -3.75704,4.7153 -10.539515,6.8871 -10.8672,6.5449 0,0 8.644686,8.25275 24.30274,1.54103 17.876488,-7.66277 11.943078,-15.08455 14.324218,-18.62306 8.30257,-12.33797 23.64061,-8.16212 23.64061,-8.16212 0,0 -4.05377,-2.12182 -9.47849,-2.14257 z m 24.45895,9.54297 c 0,0 -3.1474,6.01973 1.04496,13.31251 4.19225,7.29287 9.58983,10.50195 9.58983,10.50195 0,0 0.20826,-1.3437 0.2109,-3.42576 0.008,-5.32082 -1.32495,-15.47158 -10.84569,-20.3887 z m -71.189446,4.58596 c 0,0 -4.741455,0.20296 -10.882809,3.43555 -5.651074,2.97427 -13.384743,16.14063 -13.384743,16.14063 0,0 1.510034,-3.32595 -0.658205,-8.18752 -1.441361,-3.23217 -4.396309,-6.04486 -6.064479,-10.97658 0,0 -1.345474,5.53308 -0.162141,10.78322 1.217499,5.39951 5.834003,9.55272 5.834003,9.55272 0,0 -1.62652,2.62553 -4.656265,7.30469 -0.134551,0.20826 -0.279307,0.40513 -0.419905,0.61134 h 2.031231 c 0.723931,-1.16515 3.027515,-4.86663 4.705096,-7.64062 1.933115,-3.19653 4.701166,-7.98829 4.701166,-7.98829 0,0 5.815823,-0.28422 10.083968,-4.54685 6.654236,-6.64569 8.873046,-8.48829 8.873046,-8.48829 z m -59.134752,9.08398 c -6.063572,0.0385 -9.0878743,2.92577 -9.0878743,2.92577 0,0 4.8502303,0.73988 9.5117103,4.79101 6.205909,5.39357 7.541405,9.07555 10.425789,11.86329 h 11.910161 c -2.039093,-2.05659 -4.629884,-4.58895 -6.937512,-6.58204 -5.81144,-5.01918 -15.031257,-9.85153 -15.031257,-9.85153 0,0 9.191698,4.10925 13.644548,7.25779 4.507616,3.18731 8.345877,7.16027 10.185524,9.17578 h 1.886741 c 0.163275,-0.49436 0.288756,-1.10517 0.257763,-1.85548 -0.05065,-1.23179 -0.502941,-2.79364 -1.826192,-4.64062 -2.184113,-3.04849 -6.859578,-7.47885 -14.785134,-10.83201 -4.01382,-1.69818 -7.398122,-2.26942 -10.154305,-2.25196 z m 98.568378,5.80078 c -2.82917,0.0189 -4.55667,0.41798 -4.55667,0.41798 0,0 9.84612,14.0685 24.14649,9.85349 0,0 -1.88617,-6.52758 -9.95701,-8.89844 -3.78324,-1.11133 -7.13655,-1.38958 -9.63281,-1.37303 z m -55.689487,6.66014 c -1.719798,0.034 -3.261581,0.58303 -5.011691,1.90431 -2.930533,2.21254 -4.567181,4.49601 -5.046879,5.21484 h 23.917946 c -2.706179,-2.74382 -5.534059,-5.2227 -7.783181,-5.91212 -2.459111,-0.75375 -4.356359,-1.23969 -6.076195,-1.20703 z" />
    </pattern>
    <pattern
       inkscape:collect="always"
       xlink:href="#pattern28"
       preserveAspectRatio="xMidYMid"
       id="pattern29"
       patternTransform="matrix(0.11314127,0.11189662,-0.11314127,0.11189662,4.8370211,-4.5998142)"
       x="0"
       y="0" />
    <pattern
       inkscape:collect="always"
       patternUnits="userSpaceOnUse"
       width="4"
       height="1"
       patternTransform="translate(0,0) scale(2,2)"
       preserveAspectRatio="xMidYMid"
       id="pattern28"
       style="fill:#000000"
       inkscape:stockid="Stripes 04 (1:3)"
       inkscape:isstock="true"
       inkscape:label="Stripes 04 (1:3)">
      <rect
   style="stroke:none"
   x="0"
   y="-0.5"
   width="1"
   height="2"
   id="rect27" />

    </pattern>
    <pattern
       inkscape:collect="always"
       xlink:href="#Leaves"
       preserveAspectRatio="xMidYMid"
       id="pattern19"
       patternTransform="matrix(0.029,0,0,0.029,664.60599,48.351351)"
       x="0"
       y="0" />
    <pattern
       patternUnits="userSpaceOnUse"
       preserveAspectRatio="xMidYMid"
       width="172.58011"
       height="297.28573"
       patternTransform="translate(688.57557,44.61083)"
       style="fill:#000000"
       id="Leaves"
       inkscape:collect="always"
       inkscape:isstock="true"
       inkscape:label="Leaves">
      <path
         id="path210"
         style="opacity:1;fill-opacity:1;stroke:none;stroke-width:1.97882;stroke-linecap:square;stroke-dasharray:none;stroke-opacity:1;paint-order:markers fill stroke"
         d="M 28.162167,3.4015748e-4 C 28.580485,0.40463622 29.030135,0.78935433 29.533228,1.1585386 c 7.226797,5.3027905 11.800781,2.085959 11.800781,2.085959 l 0.857424,1.6953071 c 0,0 0.0076,0.7687181 -5.496076,4.4589733 -1.803703,1.210091 -9.820686,6.223257 -10.943357,7.908208 0,0 1.769764,-0.228662 6.855458,-3.423836 11.64703,-7.3173547 10.14875,-8.2469673 13.814476,-10.6562272 2.21949,-1.4587086 7.26599,-4.6471181 13.632794,-1.22657 6.366841,3.420548 15.062853,10.5240562 20.234381,11.1230362 5.171641,0.598942 8.710941,-0.158362 8.710941,-0.158362 0,0 -3.998437,-1.649008 -7.046891,-4.5175561 C 80.298633,6.8908346 77.262198,3.256252 74.050809,1.8897638e-4 H 50.132863 C 50.039887,0.13965354 49.915918,0.32031496 49.915918,0.32031496 L 47.36708,1.166022 c 0,0 0.608126,-0.98800625 0.718753,-1.166022 h -2.031269 c -1.23583,1.8150803 -2.599597,3.4824189 -2.599597,3.4824189 0,0 -1.446085,-1.5290835 -3.382791,-3.4824189 z M 161.35941,5.2679433 c 0.1663,0.3348661 -3.38098,4.7303811 -7.99412,6.2011467 -4.57421,1.458368 -8.5745,0.868686 -14.67776,5.730482 -4.72168,3.761272 -2.68161,7.619149 -2.68161,7.619149 19.20915,-7.565404 19.70907,-9.408642 21.00779,-11.496113 0,0 -0.60968,5.73222 -21.96484,14.232416 -11.77875,4.68839 -10.24218,16.607433 -10.24218,16.607433 0,0 1.16375,-12.432416 12.8047,-15.156246 3.33853,-0.781228 7.26671,5.622501 18.07419,-5.429669 5.32475,-5.445355 6.45464,-10.557506 6.42384,-13.9882963 -0.0227,-2.6683843 -0.75001,-4.3203024 -0.75001,-4.3203024 z m -45.64063,2.966778 c -0.60303,-9.827e-4 -1.23122,0.030236 -1.88474,0.09978 -8.36519,0.8856945 -13.48244,4.5273457 -13.48244,4.5273457 0,0 14.46723,9.251678 26.0801,-0.09751 v -0.002 c 0,0 -3.59721,-4.5155913 -10.71292,-4.5273457 z M 52.814513,17.308951 c 0,0 -8.701379,1.774904 -11.460963,17.52344 -1.702791,9.717618 -0.66807,17.138872 0.628913,21.279307 2.09537,6.689384 6.009751,6.205076 6.009751,6.205076 0,0 -2.151987,-8.966626 -2.28514,-17.871117 -0.09449,-6.330255 1.695307,-17.749985 1.695307,-17.749985 0,0 -1.208126,11.947767 -0.328063,20.835931 0.681411,6.881726 2.521474,16.576175 2.521474,16.576175 0,0 -2.670009,0.171591 -5.113285,0.002 -5.606702,-0.388687 -8.710942,-0.675818 -8.710942,-0.675818 0,0 -0.839584,-7.175924 -4.638689,-12.031218 -3.693997,-4.720894 -9.054652,-7.271508 -9.054652,-7.271508 3.154809,4.954545 3.819023,9.654009 5.689436,13.226569 2.813405,5.373619 6.433587,6.251943 6.433587,6.251943 0,0 -15.327458,-1.836926 -21.001965,1.398463 -6.1668285,3.516057 -9.0214678,7.810545 -9.0214678,7.810545 0,0 2.7886866,-0.805455 12.0839808,-2.451175 5.962092,-1.055622 9.492208,-6.296882 9.492208,-6.296882 0,0 5.553827,0.710136 9.306633,1.103509 3.752769,0.393411 10.392567,0.994129 10.392567,0.994129 l -2.146469,1.802759 c 0,0 -3.403805,-0.343559 -7.584,1.109367 -4.180233,1.452964 -5.328189,4.251024 -6.861317,9.886715 -1.533241,5.635616 2.393424,19.724031 3.050759,24.548834 0.657374,4.82468 -0.23811,9.69531 -0.23811,9.69531 0,0 2.636183,-2.78615 5.068347,-8.03319 2.432201,-5.247011 1.453228,-18.26737 2.216806,-26.574242 0.763616,-8.306797 6.271861,-10.829632 8.742198,-11.900372 4.079925,-1.768365 4.00509,0.272882 16.687484,-5.578129 5.537764,-2.554809 6.730469,-4.05275 6.730469,-4.05275 -2.040113,-0.107716 -10.748107,3.932183 -12.77537,4.785185 -6.184743,2.602129 -6.822274,2.070311 -6.822274,2.070311 l -0.921902,-1.968755 c 0,0 5.26696,-2.060334 4.953146,-12.466809 -0.172346,-5.719786 -3.034431,-9.099439 -4.142589,-19.994154 -0.726879,-7.146671 1.404321,-12.18943 1.404321,-12.18943 z m 19.369134,7.974614 c 0,0 -5.214652,4.352769 -4.13673,12.69532 1.077996,8.342513 4.835943,13.374992 4.835943,13.374992 0,0 3.841058,-6.321108 3.763653,-13.88674 -0.04044,-3.962986 -1.157971,-8.266696 -4.462866,-12.183572 z m 41.716803,2.869115 c 0,0 -15.202548,1.683629 -17.595707,17.304718 -4.338897,28.321511 -11.259779,30.757795 -11.259779,30.757795 2.208491,-2.188687 4.347212,-3.339478 8.1504,-28.791004 0,0 -5.368819,-1.318677 -8.658218,5.501934 -4.25193,8.816389 -2.364926,13.47477 -2.845681,19.433611 -0.4848,6.009563 -4.898533,11.59903 -5.361336,11.498041 0,0 11.781165,2.020573 21.025399,-12.289058 C 107.90948,55.231559 98.8416,52.38652 98.841827,48.121436 98.842507,33.250091 113.90045,28.15268 113.90045,28.15268 Z M 3.5410772,38.230828 c -1.1543055,1.52e-4 -2.341304,0.08617 -3.541039404724,0.287244 v 8.54298 C 1.0136693,47.083729 2.0932913,47.023257 3.2559118,46.824831 11.54812,45.410343 16.423861,41.45178 16.423861,41.45178 c 0,0 -5.828749,-3.221594 -12.8827838,-3.220687 z M 172.58011,38.518072 c -3.23879,0.542627 -6.56784,1.915427 -9.59373,4.685556 0,0 3.37803,3.712592 9.59373,3.857424 z m -17.93552,8.371087 c -0.60303,-9.83e-4 -1.23126,0.03024 -1.88478,0.09978 -8.36519,0.885732 -13.48244,4.527344 -13.48244,4.527344 0,0 14.4672,9.250053 26.0801,-0.09978 0,0 -3.59724,-4.515553 -10.71288,-4.527344 z m -26.40431,16.878915 c -0.60303,-9.82e-4 -1.23122,0.03024 -1.88478,0.09978 -8.36519,0.88577 -13.4824,4.527345 -13.4824,4.527345 0,0 14.4655,9.248542 26.07813,-0.09978 -0.0151,-0.02268 -3.61209,-4.51559 -10.71095,-4.527345 z m 36.27734,2.595704 c 0,0 -3.4351,15.519761 -18.21876,17.132826 -4.23991,0.462614 -8.05191,-8.241563 -23.14843,4.021493 -13.22298,10.74119 -9.93555,22.234353 -9.93555,22.234353 -0.1508,-0.44916 4.92612,-5.4446 10.84766,-6.57811 5.87157,-1.12392 10.70835,0.24718 19.01174,-4.935576 6.42372,-4.009361 4.52927,-9.201146 4.52927,-9.201146 -24.88913,6.54017 -25.80007,8.789858 -27.73632,11.222662 0,0 1.67134,-7.143343 29.35547,-14.527368 15.26963,-4.072743 15.29492,-19.369134 15.29492,-19.369134 z M 52.750035,82.951671 c 0,0 -2.376152,11.713625 11.648428,21.384759 16.011742,11.04155 19.129474,2.06464 23.392592,2.19337 14.864575,0.44878 19.505875,15.65235 19.505875,15.65235 0,0 -1.22385,-15.24658 -16.765642,-18.10938 C 62.353361,98.882418 60.125027,91.893089 60.125027,91.893089 c 2.121146,2.273461 3.205833,4.443326 28.531275,9.011721 0,0 1.482067,-5.324906 -5.236346,-8.818361 C 74.735735,87.570821 70.021757,89.316811 64.080113,88.656755 58.087937,87.991067 52.635137,83.411262 52.750035,82.951671 Z M 12.724649,92.20558 c 0,0 -12.31789624,11.96266 -5.8769388,25.40821 0,0 6.1415058,-2.90237 7.1953138,-11.24806 0.197669,-1.5648 0.274393,-3.04097 0.26948,-4.40625 -0.02268,-5.916092 -1.587893,-9.7539 -1.587893,-9.7539 z m 140.677721,15.67967 c 0,0 -3.25833,5.96039 0.80077,13.32813 4.05921,7.36777 9.4004,10.67384 9.4004,10.67384 0,0 0.28573,-1.65234 0.27742,-4.14063 -0.0189,-5.47419 -1.4586,-14.99338 -10.47855,-19.86134 z m -104.619139,6.15821 c 0,0 -4.080415,16.68106 8.519547,24.65039 0,0 1.655093,-2.58437 1.666016,-6.59373 0.0076,-1.95802 -0.383055,-4.25609 -1.54492,-6.75976 -3.540964,-7.63041 -8.640643,-11.2969 -8.640643,-11.2969 z m -12.734362,3.334 c 0,0 -4.199055,0.71819 -9.652346,3.77148 -5.453292,3.05325 -12.184252,15.34099 -17.8242143,22.24804 -2.7684284,3.39038 -5.8208882,4.76231 -8.572270904724,5.20312 v 2.69726 C 1.3919622,152.16461 3.4468157,153.26358 6.0918425,154.07667 c 4.9105885,1.50959 7.6755775,-0.21656 12.4863115,-4.22071 4.810734,-4.00422 9.313474,-19.22744 11.521512,-23.97849 2.208038,-4.7511 5.949203,-8.50001 5.949203,-8.50001 z m 102.410151,2.48829 c -14.89292,0.68375 -19.60936,17.1953 -19.60936,17.1953 0,0 6.24662,-0.66168 13.10155,-5.53712 6.42648,-4.57081 6.52097,-10.81882 6.50781,-11.58202 h 0.002 c -8.7e-4,-0.0506 -0.002,-0.0763 -0.002,-0.0763 z m -52.283184,0.78709 c 0,0 4.716397,16.51158 19.609364,17.19534 0,0 0.008,-0.10772 0.002,-0.30274 -0.0265,-1.36524 -0.51163,-7.09338 -6.509783,-11.35937 -6.854891,-4.87552 -13.101543,-5.53323 -13.101543,-5.53323 z M 71.826217,134.6431 c -3.045959,0.0578 -4.814437,0.96873 -4.814437,0.96873 0,0 5.20131,2.79757 9.076157,9.4707 5.90691,10.1726 5.392365,15.14854 8.875011,20.19338 6.336265,9.17846 12.556611,7.14255 12.556611,7.14255 l 0.394545,2.3633 c 0,0 -0.253228,0.91665 -7.675767,3.14842 -2.433865,0.73179 -13.130608,3.55 -14.958992,5.11722 0,0 2.067855,0.42788 8.857398,-1.37696 15.549392,-4.13337 14.177688,-5.83805 19.107437,-7.26565 2.98477,-0.86442 9.72722,-2.67579 15.73047,3.91797 6.00321,6.59373 4.67501,10.03831 8.3164,18.00979 2.59672,5.68479 8.70898,2.95309 8.70898,2.95309 0,0 -3.55998,1.01545 -5.70898,-5.36326 -2.14896,-6.37875 0.77805,-31.37201 -14.36719,-26.12889 -4.82223,1.7715 -7.77536,4.52734 -7.77536,4.52734 h -3.14846 c 0,0 5.80509,-5.31443 9.05272,-8.36526 3.24767,-3.0508 7.97269,-7.67577 7.97269,-7.67577 0,0 6.6291,1.95575 12.85935,-1.44533 9.7132,-5.30249 12.82617,-6.62498 12.82617,-6.62498 0,0 -5.39637,-1.63038 -13.38475,-0.19729 -7.35069,1.31826 -20.46875,13.97461 -20.46875,13.97461 0,0 2.81409,-3.37353 2.01366,-10.02932 -0.53208,-4.42495 -2.904,-8.94603 -3.11913,-15.48827 0,0 -3.37429,6.06988 -3.81056,12.80076 -0.44878,6.92244 3.33986,13.70117 3.33986,13.70117 0,0 -2.70871,2.49014 -7.68752,6.87696 -2.16957,1.91161 -4.769503,3.69336 -4.769503,3.69336 0,0 -4.460712,-9.66977 -8.208983,-16.08201 -4.841234,-8.28173 -13.578141,-17.68558 -13.578141,-17.68558 0,0 8.944592,8.53134 12.88868,14.04495 5.548006,7.75601 9.251947,17.02538 9.251947,17.02538 0,0 3.95822,-2.41493 1.6504,-9.68361 -1.42843,-4.49899 -5.19133,-11.62934 -12.968766,-18.75779 -7.089864,-6.49826 -13.116964,-7.83432 -17.033197,-7.75975 z m 66.847673,6.28906 c -1.01556,-0.004 -1.40629,0.0975 -1.40629,0.0975 1.90999,1.46657 12.74317,3.70681 15.2129,4.30666 7.53211,1.82933 7.83398,2.73048 7.83398,2.73048 l -0.2657,2.38084 c 0,0 -6.32262,-1.69746 -12.15624,7.80858 -3.20633,5.22478 -2.42412,10.16504 -7.7754,20.64064 -3.51035,6.87182 -8.55273,9.9453 -8.55273,9.9453 0,0 9.48658,4.25847 21.4512,-7.95511 7.38282,-7.53635 10.75506,-14.85831 11.93945,-19.42768 1.91361,-7.38229 -2.16994,-9.58205 -2.16994,-9.58205 0,0 -3.19941,9.45502 -8.32225,17.49804 -3.64188,5.71778 -12.11328,14.7168 -12.11328,14.7168 0,0 8.21658,-9.86048 12.60545,-18.39061 3.39806,-6.60465 7.33398,-16.4981 7.33398,-16.4981 0,0 2.69155,1.63945 4.96093,3.43166 2.32309,1.8347 3.99137,3.17488 5.33008,4.25394 v -2.55273 c -2.13037,-1.76043 -5.05859,-4.19335 -5.05859,-4.19335 l 3.14453,-0.17008 c 0,0 0.72181,0.57936 1.91406,1.32227 v -2.69533 c -2.85392,0.45721 -5.38269,-0.0873 -6.92383,-0.44535 -4.99933,-1.16042 -3.72143,-2.9334 -19.47069,-6.22461 -3.86823,-0.80829 -6.20606,-0.99209 -7.5117,-0.99802 z M 33.877002,150.563 c -2.539465,0.008 -4.076183,0.32806 -4.076183,0.32806 0,0 9.560995,14.26405 23.943383,10.33788 -0.0029,-0.0151 -1.763377,-6.56568 -9.775408,-9.0957 -4.010759,-1.26644 -7.552366,-1.5767 -10.091792,-1.57032 z M 3.7795276e-5,154.33644 v 2.55273 C 1.6621606,158.22886 2.7148724,159.0884 2.7148724,159.0884 c 0,0 -2.56588342,5.24179 -2.714834604724,11.125 v 0.69529 C 0.00759685,171.58537 0.03821102,172.26588 0.11720315,172.94778 c 0.79766929,6.69766 4.49219525,12.57812 4.49219525,12.57812 -0.1371968,-6.54426 1.9878425,-11.18567 2.2812473,-15.63281 0.4412598,-6.6892 -2.5508032,-9.90626 -2.5508032,-9.90626 0,0 13.7824255,11.93254 21.1933605,12.8535 8.053909,1.00097 13.353525,-0.91601 13.353525,-0.91601 0,0 -3.177714,-1.15517 -13.16213,-5.92773 -6.404069,-3.06112 -12.919899,-0.74998 -12.919899,-0.74998 0,0 -4.96611,-4.36463 -8.3730518,-7.23635 C 2.8407307,156.66924 1.8662551,155.87868 0,154.33644 Z M 72.443414,163.47708 c 0,0 -4.168138,15.34023 -19.011742,16.25 -4.257108,0.26079 -7.649121,-8.61505 -23.310538,2.91795 -13.717758,10.10173 -10.9824,21.73632 -10.9824,21.73632 -0.128882,-0.45581 5.179767,-5.20153 11.148435,-6.05272 5.918173,-0.84416 10.684648,0.75553 19.224604,-4.02735 6.606803,-3.70023 4.958967,-8.9785 4.958967,-8.9785 -25.171389,5.35185 -26.186683,7.55634 -28.236321,9.89451 0,0 2.010368,-7.05699 30.013682,-13.11912 15.44553,-3.34364 16.195313,-18.62109 16.195313,-18.62109 z m 100.136696,6.7793 c -0.004,0.18746 -0.002,0.37568 0,0.56443 z M 92.689512,189.022 c 0,0 -4.69954,0.80436 -10.804687,4.22264 -6.105184,3.41828 -13.640882,17.17545 -19.955112,24.90822 -6.314078,7.73276 -13.960743,6.11282 -17.349581,5.32614 -5.597026,-1.29913 -4.166891,-3.28418 -21.798841,-6.96873 -7.698935,-1.6089 -9.984378,-1.00588 -9.984378,-1.00588 2.138306,1.6419 14.266281,4.14682 17.03127,4.81837 8.43239,2.04805 8.771452,3.05862 8.771452,3.05862 l -0.298961,2.66404 c 0,0 -7.076485,-1.90035 -13.607433,8.7422 -3.589606,5.84934 -2.716006,11.38148 -8.707011,23.10935 -3.930028,7.6933 -9.5742237,11.13283 -9.5742237,11.13283 0,0 10.6187337,4.76734 24.0136817,-8.90623 8.26526,-8.43735 12.043125,-16.63439 13.369134,-21.75001 2.14235,-8.26477 -2.427742,-10.72657 -2.427742,-10.72657 0,0 -3.58114,10.58532 -9.316422,19.58982 -4.077165,6.40135 -13.564422,16.47659 -13.564422,16.47659 0,0 9.201714,-11.03996 14.115213,-20.58985 3.804321,-7.39411 8.208982,-18.4707 8.208982,-18.4707 0,0 3.012133,1.83526 5.552731,3.84178 5.829997,4.60437 9.009789,7.22464 9.009789,7.22464 0,0 -3.828623,7.80382 -2.91016,15.5156 0.892989,7.49832 5.031231,14.08203 5.031231,14.08203 -0.153449,-7.32669 2.226255,-12.52316 2.554696,-17.50193 0.494022,-7.48883 -2.855471,-11.08986 -2.855471,-11.08986 0,0 15.427729,13.3575 23.724624,14.38867 9.01663,1.12066 14.951168,-1.02539 14.951168,-1.02539 0,0 -3.558349,-1.28973 -14.73634,-6.63281 -7.169688,-3.42712 -14.464856,-0.84181 -14.464856,-0.84181 0,0 -5.558741,-4.88459 -9.37304,-8.0996 -3.814337,-3.21506 -10.625008,-8.80664 -10.625008,-8.80664 l 3.519534,-0.19125 c 0,0 3.467263,2.9037 8.964851,4.59375 5.497625,1.68998 8.592755,-0.24377 13.978507,-4.72656 5.385789,-4.48293 10.424466,-21.52467 12.896504,-26.84375 2.471962,-5.31908 6.66017,-9.51757 6.66017,-9.51757 z m 18.572258,1.67773 c -0.60302,-10e-4 -1.23318,0.0302 -1.88674,0.0998 -8.36515,0.88569 -13.482406,4.52734 -13.482406,4.52734 0,0 14.467236,9.25017 26.080066,-0.0998 0,0 -3.59528,-4.51559 -10.71092,-4.52734 z m 59.14061,9.99999 c -0.76724,-0.004 -1.57534,0.0461 -2.42774,0.16403 -8.33238,1.1534 -13.33202,4.95704 -13.33202,4.95704 0,0 8.75036,5.1984 17.93749,3.15624 v -8.11717 c -0.68576,-0.0975 -1.41052,-0.15572 -2.17773,-0.16026 z M 3.7795276e-5,200.85997 v 8.11718 C 4.5279118,207.96835 10.43365,204.52792 10.43365,204.52792 c 0,0 -3.2694799,-2.44097 -10.433612204724,-3.66795 z M 116.67583,214.66855 c -5.42442,-0.0265 -9.4961,2.06249 -9.4961,2.06249 0,0 15.37311,-4.04754 23.57227,8.35937 2.35147,3.55827 -3.64585,10.93035 14.16601,18.74218 15.60144,6.84235 24.31835,-1.33788 24.31835,-1.33788 -0.33071,0.33941 -7.09508,-1.89021 -10.81247,-6.63669 -3.68618,-4.7065 -4.67823,-9.63496 -13.08594,-14.64651 -6.50464,-3.87696 -10.25782,0.18369 -10.25782,0.18369 17.20433,19.13775 19.6227,18.9188 22.67187,19.52734 0,0 -7.11798,1.78175 -26.35158,-19.45508 -4.80692,-5.3077 -10.23009,-6.77835 -14.72459,-6.79884 z m -17.7168,8.42577 c 0,0 2.03176,17.05066 16.62694,20.09182 0,0 0.13833,-0.64857 0.14664,-1.7207 0.0189,-2.35877 -0.59648,-6.76819 -4.71677,-10.8262 -5.99339,-5.90264 -12.056659,-7.54492 -12.056659,-7.54492 z m 24.21876,31.39843 c -4.49484,-0.0189 -9.93014,1.40848 -14.78128,6.67578 -19.41033,21.07544 -26.511685,19.23439 -26.511685,19.23439 3.054123,-0.58303 5.470299,-0.3428 22.833975,-19.33595 0,0 -3.71716,-4.0922 -10.253931,-0.26948 -8.449323,4.94113 -9.48359,9.86155 -13.208957,14.53712 -3.75704,4.7153 -10.539515,6.8871 -10.8672,6.5449 0,0 8.644686,8.25275 24.30274,1.54103 17.876488,-7.66277 11.943078,-15.08455 14.324218,-18.62306 8.30257,-12.33797 23.64061,-8.16212 23.64061,-8.16212 0,0 -4.05377,-2.12182 -9.47849,-2.14257 z m 24.45895,9.54297 c 0,0 -3.1474,6.01973 1.04496,13.31251 4.19225,7.29287 9.58983,10.50195 9.58983,10.50195 0,0 0.20826,-1.3437 0.2109,-3.42576 0.008,-5.32082 -1.32495,-15.47158 -10.84569,-20.3887 z m -71.189446,4.58596 c 0,0 -4.741455,0.20296 -10.882809,3.43555 -5.651074,2.97427 -13.384743,16.14063 -13.384743,16.14063 0,0 1.510034,-3.32595 -0.658205,-8.18752 -1.441361,-3.23217 -4.396309,-6.04486 -6.064479,-10.97658 0,0 -1.345474,5.53308 -0.162141,10.78322 1.217499,5.39951 5.834003,9.55272 5.834003,9.55272 0,0 -1.62652,2.62553 -4.656265,7.30469 -0.134551,0.20826 -0.279307,0.40513 -0.419905,0.61134 h 2.031231 c 0.723931,-1.16515 3.027515,-4.86663 4.705096,-7.64062 1.933115,-3.19653 4.701166,-7.98829 4.701166,-7.98829 0,0 5.815823,-0.28422 10.083968,-4.54685 6.654236,-6.64569 8.873046,-8.48829 8.873046,-8.48829 z m -59.134752,9.08398 c -6.063572,0.0385 -9.0878743,2.92577 -9.0878743,2.92577 0,0 4.8502303,0.73988 9.5117103,4.79101 6.205909,5.39357 7.541405,9.07555 10.425789,11.86329 h 11.910161 c -2.039093,-2.05659 -4.629884,-4.58895 -6.937512,-6.58204 -5.81144,-5.01918 -15.031257,-9.85153 -15.031257,-9.85153 0,0 9.191698,4.10925 13.644548,7.25779 4.507616,3.18731 8.345877,7.16027 10.185524,9.17578 h 1.886741 c 0.163275,-0.49436 0.288756,-1.10517 0.257763,-1.85548 -0.05065,-1.23179 -0.502941,-2.79364 -1.826192,-4.64062 -2.184113,-3.04849 -6.859578,-7.47885 -14.785134,-10.83201 -4.01382,-1.69818 -7.398122,-2.26942 -10.154305,-2.25196 z m 98.568378,5.80078 c -2.82917,0.0189 -4.55667,0.41798 -4.55667,0.41798 0,0 9.84612,14.0685 24.14649,9.85349 0,0 -1.88617,-6.52758 -9.95701,-8.89844 -3.78324,-1.11133 -7.13655,-1.38958 -9.63281,-1.37303 z m -55.689487,6.66014 c -1.719798,0.034 -3.261581,0.58303 -5.011691,1.90431 -2.930533,2.21254 -4.567181,4.49601 -5.046879,5.21484 h 23.917946 c -2.706179,-2.74382 -5.534059,-5.2227 -7.783181,-5.91212 -2.459111,-0.75375 -4.356359,-1.23969 -6.076195,-1.20703 z" />
    </pattern>
    <pattern
       inkscape:collect="always"
       xlink:href="#Strips1_3"
       preserveAspectRatio="xMidYMid"
       id="pattern14"
       patternTransform="matrix(0.11306461,0.11306461,-0.11306461,0.11306461,5.3719897,-2.3346399)"
       x="0"
       y="0" />
    <pattern
       inkscape:collect="always"
       patternUnits="userSpaceOnUse"
       width="4"
       height="1"
       patternTransform="translate(0,0) scale(2,2)"
       preserveAspectRatio="xMidYMid"
       id="Strips1_3"
       style="fill:#000000"
       inkscape:stockid="Stripes 04 (1:3)"
       inkscape:isstock="true"
       inkscape:label="Stripes 04 (1:3)">
      <rect
   style="stroke:none"
   x="0"
   y="-0.5"
   width="1"
   height="2"
   id="rect152" />

    </pattern>
    <pattern
       inkscape:collect="always"
       xlink:href="#pattern28-7"
       preserveAspectRatio="xMidYMid"
       id="pattern29-7"
       patternTransform="matrix(0.11313708,0.11313708,-0.11313708,0.11313708,34.816169,0.00989444)"
       x="0"
       y="0" />
    <pattern
       inkscape:collect="always"
       patternUnits="userSpaceOnUse"
       width="4"
       height="1"
       patternTransform="translate(0,0) scale(2,2)"
       preserveAspectRatio="xMidYMid"
       id="pattern28-7"
       style="fill:#000000"
       inkscape:stockid="Stripes 04 (1:3)"
       inkscape:isstock="true"
       inkscape:label="Stripes 04 (1:3)">
      <rect
   style="stroke:none"
   x="0"
   y="-0.5"
   width="1"
   height="2"
   id="rect27-9" />

    </pattern>
    <pattern
       inkscape:collect="always"
       xlink:href="#pattern31-1"
       preserveAspectRatio="xMidYMid"
       id="pattern32-3"
       patternTransform="matrix(0.02896016,0,0,0.02971969,700.93921,43.012299)"
       x="0"
       y="0" />
    <pattern
       patternUnits="userSpaceOnUse"
       preserveAspectRatio="xMidYMid"
       width="172.58011"
       height="297.28573"
       patternTransform="translate(688.57557,44.61083)"
       style="fill:#000000"
       id="pattern31-1"
       inkscape:collect="always"
       inkscape:isstock="true"
       inkscape:label="Leaves">
      <path
         id="path30-9"
         style="opacity:1;fill-opacity:1;stroke:none;stroke-width:1.97882;stroke-linecap:square;stroke-dasharray:none;stroke-opacity:1;paint-order:markers fill stroke"
         d="M 28.162167,3.4015748e-4 C 28.580485,0.40463622 29.030135,0.78935433 29.533228,1.1585386 c 7.226797,5.3027905 11.800781,2.085959 11.800781,2.085959 l 0.857424,1.6953071 c 0,0 0.0076,0.7687181 -5.496076,4.4589733 -1.803703,1.210091 -9.820686,6.223257 -10.943357,7.908208 0,0 1.769764,-0.228662 6.855458,-3.423836 11.64703,-7.3173547 10.14875,-8.2469673 13.814476,-10.6562272 2.21949,-1.4587086 7.26599,-4.6471181 13.632794,-1.22657 6.366841,3.420548 15.062853,10.5240562 20.234381,11.1230362 5.171641,0.598942 8.710941,-0.158362 8.710941,-0.158362 0,0 -3.998437,-1.649008 -7.046891,-4.5175561 C 80.298633,6.8908346 77.262198,3.256252 74.050809,1.8897638e-4 H 50.132863 C 50.039887,0.13965354 49.915918,0.32031496 49.915918,0.32031496 L 47.36708,1.166022 c 0,0 0.608126,-0.98800625 0.718753,-1.166022 h -2.031269 c -1.23583,1.8150803 -2.599597,3.4824189 -2.599597,3.4824189 0,0 -1.446085,-1.5290835 -3.382791,-3.4824189 z M 161.35941,5.2679433 c 0.1663,0.3348661 -3.38098,4.7303811 -7.99412,6.2011467 -4.57421,1.458368 -8.5745,0.868686 -14.67776,5.730482 -4.72168,3.761272 -2.68161,7.619149 -2.68161,7.619149 19.20915,-7.565404 19.70907,-9.408642 21.00779,-11.496113 0,0 -0.60968,5.73222 -21.96484,14.232416 -11.77875,4.68839 -10.24218,16.607433 -10.24218,16.607433 0,0 1.16375,-12.432416 12.8047,-15.156246 3.33853,-0.781228 7.26671,5.622501 18.07419,-5.429669 5.32475,-5.445355 6.45464,-10.557506 6.42384,-13.9882963 -0.0227,-2.6683843 -0.75001,-4.3203024 -0.75001,-4.3203024 z m -45.64063,2.966778 c -0.60303,-9.827e-4 -1.23122,0.030236 -1.88474,0.09978 -8.36519,0.8856945 -13.48244,4.5273457 -13.48244,4.5273457 0,0 14.46723,9.251678 26.0801,-0.09751 v -0.002 c 0,0 -3.59721,-4.5155913 -10.71292,-4.5273457 z M 52.814513,17.308951 c 0,0 -8.701379,1.774904 -11.460963,17.52344 -1.702791,9.717618 -0.66807,17.138872 0.628913,21.279307 2.09537,6.689384 6.009751,6.205076 6.009751,6.205076 0,0 -2.151987,-8.966626 -2.28514,-17.871117 -0.09449,-6.330255 1.695307,-17.749985 1.695307,-17.749985 0,0 -1.208126,11.947767 -0.328063,20.835931 0.681411,6.881726 2.521474,16.576175 2.521474,16.576175 0,0 -2.670009,0.171591 -5.113285,0.002 -5.606702,-0.388687 -8.710942,-0.675818 -8.710942,-0.675818 0,0 -0.839584,-7.175924 -4.638689,-12.031218 -3.693997,-4.720894 -9.054652,-7.271508 -9.054652,-7.271508 3.154809,4.954545 3.819023,9.654009 5.689436,13.226569 2.813405,5.373619 6.433587,6.251943 6.433587,6.251943 0,0 -15.327458,-1.836926 -21.001965,1.398463 -6.1668285,3.516057 -9.0214678,7.810545 -9.0214678,7.810545 0,0 2.7886866,-0.805455 12.0839808,-2.451175 5.962092,-1.055622 9.492208,-6.296882 9.492208,-6.296882 0,0 5.553827,0.710136 9.306633,1.103509 3.752769,0.393411 10.392567,0.994129 10.392567,0.994129 l -2.146469,1.802759 c 0,0 -3.403805,-0.343559 -7.584,1.109367 -4.180233,1.452964 -5.328189,4.251024 -6.861317,9.886715 -1.533241,5.635616 2.393424,19.724031 3.050759,24.548834 0.657374,4.82468 -0.23811,9.69531 -0.23811,9.69531 0,0 2.636183,-2.78615 5.068347,-8.03319 2.432201,-5.247011 1.453228,-18.26737 2.216806,-26.574242 0.763616,-8.306797 6.271861,-10.829632 8.742198,-11.900372 4.079925,-1.768365 4.00509,0.272882 16.687484,-5.578129 5.537764,-2.554809 6.730469,-4.05275 6.730469,-4.05275 -2.040113,-0.107716 -10.748107,3.932183 -12.77537,4.785185 -6.184743,2.602129 -6.822274,2.070311 -6.822274,2.070311 l -0.921902,-1.968755 c 0,0 5.26696,-2.060334 4.953146,-12.466809 -0.172346,-5.719786 -3.034431,-9.099439 -4.142589,-19.994154 -0.726879,-7.146671 1.404321,-12.18943 1.404321,-12.18943 z m 19.369134,7.974614 c 0,0 -5.214652,4.352769 -4.13673,12.69532 1.077996,8.342513 4.835943,13.374992 4.835943,13.374992 0,0 3.841058,-6.321108 3.763653,-13.88674 -0.04044,-3.962986 -1.157971,-8.266696 -4.462866,-12.183572 z m 41.716803,2.869115 c 0,0 -15.202548,1.683629 -17.595707,17.304718 -4.338897,28.321511 -11.259779,30.757795 -11.259779,30.757795 2.208491,-2.188687 4.347212,-3.339478 8.1504,-28.791004 0,0 -5.368819,-1.318677 -8.658218,5.501934 -4.25193,8.816389 -2.364926,13.47477 -2.845681,19.433611 -0.4848,6.009563 -4.898533,11.59903 -5.361336,11.498041 0,0 11.781165,2.020573 21.025399,-12.289058 C 107.90948,55.231559 98.8416,52.38652 98.841827,48.121436 98.842507,33.250091 113.90045,28.15268 113.90045,28.15268 Z M 3.5410772,38.230828 c -1.1543055,1.52e-4 -2.341304,0.08617 -3.541039404724,0.287244 v 8.54298 C 1.0136693,47.083729 2.0932913,47.023257 3.2559118,46.824831 11.54812,45.410343 16.423861,41.45178 16.423861,41.45178 c 0,0 -5.828749,-3.221594 -12.8827838,-3.220687 z M 172.58011,38.518072 c -3.23879,0.542627 -6.56784,1.915427 -9.59373,4.685556 0,0 3.37803,3.712592 9.59373,3.857424 z m -17.93552,8.371087 c -0.60303,-9.83e-4 -1.23126,0.03024 -1.88478,0.09978 -8.36519,0.885732 -13.48244,4.527344 -13.48244,4.527344 0,0 14.4672,9.250053 26.0801,-0.09978 0,0 -3.59724,-4.515553 -10.71288,-4.527344 z m -26.40431,16.878915 c -0.60303,-9.82e-4 -1.23122,0.03024 -1.88478,0.09978 -8.36519,0.88577 -13.4824,4.527345 -13.4824,4.527345 0,0 14.4655,9.248542 26.07813,-0.09978 -0.0151,-0.02268 -3.61209,-4.51559 -10.71095,-4.527345 z m 36.27734,2.595704 c 0,0 -3.4351,15.519761 -18.21876,17.132826 -4.23991,0.462614 -8.05191,-8.241563 -23.14843,4.021493 -13.22298,10.74119 -9.93555,22.234353 -9.93555,22.234353 -0.1508,-0.44916 4.92612,-5.4446 10.84766,-6.57811 5.87157,-1.12392 10.70835,0.24718 19.01174,-4.935576 6.42372,-4.009361 4.52927,-9.201146 4.52927,-9.201146 -24.88913,6.54017 -25.80007,8.789858 -27.73632,11.222662 0,0 1.67134,-7.143343 29.35547,-14.527368 15.26963,-4.072743 15.29492,-19.369134 15.29492,-19.369134 z M 52.750035,82.951671 c 0,0 -2.376152,11.713625 11.648428,21.384759 16.011742,11.04155 19.129474,2.06464 23.392592,2.19337 14.864575,0.44878 19.505875,15.65235 19.505875,15.65235 0,0 -1.22385,-15.24658 -16.765642,-18.10938 C 62.353361,98.882418 60.125027,91.893089 60.125027,91.893089 c 2.121146,2.273461 3.205833,4.443326 28.531275,9.011721 0,0 1.482067,-5.324906 -5.236346,-8.818361 C 74.735735,87.570821 70.021757,89.316811 64.080113,88.656755 58.087937,87.991067 52.635137,83.411262 52.750035,82.951671 Z M 12.724649,92.20558 c 0,0 -12.31789624,11.96266 -5.8769388,25.40821 0,0 6.1415058,-2.90237 7.1953138,-11.24806 0.197669,-1.5648 0.274393,-3.04097 0.26948,-4.40625 -0.02268,-5.916092 -1.587893,-9.7539 -1.587893,-9.7539 z m 140.677721,15.67967 c 0,0 -3.25833,5.96039 0.80077,13.32813 4.05921,7.36777 9.4004,10.67384 9.4004,10.67384 0,0 0.28573,-1.65234 0.27742,-4.14063 -0.0189,-5.47419 -1.4586,-14.99338 -10.47855,-19.86134 z m -104.619139,6.15821 c 0,0 -4.080415,16.68106 8.519547,24.65039 0,0 1.655093,-2.58437 1.666016,-6.59373 0.0076,-1.95802 -0.383055,-4.25609 -1.54492,-6.75976 -3.540964,-7.63041 -8.640643,-11.2969 -8.640643,-11.2969 z m -12.734362,3.334 c 0,0 -4.199055,0.71819 -9.652346,3.77148 -5.453292,3.05325 -12.184252,15.34099 -17.8242143,22.24804 -2.7684284,3.39038 -5.8208882,4.76231 -8.572270904724,5.20312 v 2.69726 C 1.3919622,152.16461 3.4468157,153.26358 6.0918425,154.07667 c 4.9105885,1.50959 7.6755775,-0.21656 12.4863115,-4.22071 4.810734,-4.00422 9.313474,-19.22744 11.521512,-23.97849 2.208038,-4.7511 5.949203,-8.50001 5.949203,-8.50001 z m 102.410151,2.48829 c -14.89292,0.68375 -19.60936,17.1953 -19.60936,17.1953 0,0 6.24662,-0.66168 13.10155,-5.53712 6.42648,-4.57081 6.52097,-10.81882 6.50781,-11.58202 h 0.002 c -8.7e-4,-0.0506 -0.002,-0.0763 -0.002,-0.0763 z m -52.283184,0.78709 c 0,0 4.716397,16.51158 19.609364,17.19534 0,0 0.008,-0.10772 0.002,-0.30274 -0.0265,-1.36524 -0.51163,-7.09338 -6.509783,-11.35937 -6.854891,-4.87552 -13.101543,-5.53323 -13.101543,-5.53323 z M 71.826217,134.6431 c -3.045959,0.0578 -4.814437,0.96873 -4.814437,0.96873 0,0 5.20131,2.79757 9.076157,9.4707 5.90691,10.1726 5.392365,15.14854 8.875011,20.19338 6.336265,9.17846 12.556611,7.14255 12.556611,7.14255 l 0.394545,2.3633 c 0,0 -0.253228,0.91665 -7.675767,3.14842 -2.433865,0.73179 -13.130608,3.55 -14.958992,5.11722 0,0 2.067855,0.42788 8.857398,-1.37696 15.549392,-4.13337 14.177688,-5.83805 19.107437,-7.26565 2.98477,-0.86442 9.72722,-2.67579 15.73047,3.91797 6.00321,6.59373 4.67501,10.03831 8.3164,18.00979 2.59672,5.68479 8.70898,2.95309 8.70898,2.95309 0,0 -3.55998,1.01545 -5.70898,-5.36326 -2.14896,-6.37875 0.77805,-31.37201 -14.36719,-26.12889 -4.82223,1.7715 -7.77536,4.52734 -7.77536,4.52734 h -3.14846 c 0,0 5.80509,-5.31443 9.05272,-8.36526 3.24767,-3.0508 7.97269,-7.67577 7.97269,-7.67577 0,0 6.6291,1.95575 12.85935,-1.44533 9.7132,-5.30249 12.82617,-6.62498 12.82617,-6.62498 0,0 -5.39637,-1.63038 -13.38475,-0.19729 -7.35069,1.31826 -20.46875,13.97461 -20.46875,13.97461 0,0 2.81409,-3.37353 2.01366,-10.02932 -0.53208,-4.42495 -2.904,-8.94603 -3.11913,-15.48827 0,0 -3.37429,6.06988 -3.81056,12.80076 -0.44878,6.92244 3.33986,13.70117 3.33986,13.70117 0,0 -2.70871,2.49014 -7.68752,6.87696 -2.16957,1.91161 -4.769503,3.69336 -4.769503,3.69336 0,0 -4.460712,-9.66977 -8.208983,-16.08201 -4.841234,-8.28173 -13.578141,-17.68558 -13.578141,-17.68558 0,0 8.944592,8.53134 12.88868,14.04495 5.548006,7.75601 9.251947,17.02538 9.251947,17.02538 0,0 3.95822,-2.41493 1.6504,-9.68361 -1.42843,-4.49899 -5.19133,-11.62934 -12.968766,-18.75779 -7.089864,-6.49826 -13.116964,-7.83432 -17.033197,-7.75975 z m 66.847673,6.28906 c -1.01556,-0.004 -1.40629,0.0975 -1.40629,0.0975 1.90999,1.46657 12.74317,3.70681 15.2129,4.30666 7.53211,1.82933 7.83398,2.73048 7.83398,2.73048 l -0.2657,2.38084 c 0,0 -6.32262,-1.69746 -12.15624,7.80858 -3.20633,5.22478 -2.42412,10.16504 -7.7754,20.64064 -3.51035,6.87182 -8.55273,9.9453 -8.55273,9.9453 0,0 9.48658,4.25847 21.4512,-7.95511 7.38282,-7.53635 10.75506,-14.85831 11.93945,-19.42768 1.91361,-7.38229 -2.16994,-9.58205 -2.16994,-9.58205 0,0 -3.19941,9.45502 -8.32225,17.49804 -3.64188,5.71778 -12.11328,14.7168 -12.11328,14.7168 0,0 8.21658,-9.86048 12.60545,-18.39061 3.39806,-6.60465 7.33398,-16.4981 7.33398,-16.4981 0,0 2.69155,1.63945 4.96093,3.43166 2.32309,1.8347 3.99137,3.17488 5.33008,4.25394 v -2.55273 c -2.13037,-1.76043 -5.05859,-4.19335 -5.05859,-4.19335 l 3.14453,-0.17008 c 0,0 0.72181,0.57936 1.91406,1.32227 v -2.69533 c -2.85392,0.45721 -5.38269,-0.0873 -6.92383,-0.44535 -4.99933,-1.16042 -3.72143,-2.9334 -19.47069,-6.22461 -3.86823,-0.80829 -6.20606,-0.99209 -7.5117,-0.99802 z M 33.877002,150.563 c -2.539465,0.008 -4.076183,0.32806 -4.076183,0.32806 0,0 9.560995,14.26405 23.943383,10.33788 -0.0029,-0.0151 -1.763377,-6.56568 -9.775408,-9.0957 -4.010759,-1.26644 -7.552366,-1.5767 -10.091792,-1.57032 z M 3.7795276e-5,154.33644 v 2.55273 C 1.6621606,158.22886 2.7148724,159.0884 2.7148724,159.0884 c 0,0 -2.56588342,5.24179 -2.714834604724,11.125 v 0.69529 C 0.00759685,171.58537 0.03821102,172.26588 0.11720315,172.94778 c 0.79766929,6.69766 4.49219525,12.57812 4.49219525,12.57812 -0.1371968,-6.54426 1.9878425,-11.18567 2.2812473,-15.63281 0.4412598,-6.6892 -2.5508032,-9.90626 -2.5508032,-9.90626 0,0 13.7824255,11.93254 21.1933605,12.8535 8.053909,1.00097 13.353525,-0.91601 13.353525,-0.91601 0,0 -3.177714,-1.15517 -13.16213,-5.92773 -6.404069,-3.06112 -12.919899,-0.74998 -12.919899,-0.74998 0,0 -4.96611,-4.36463 -8.3730518,-7.23635 C 2.8407307,156.66924 1.8662551,155.87868 0,154.33644 Z M 72.443414,163.47708 c 0,0 -4.168138,15.34023 -19.011742,16.25 -4.257108,0.26079 -7.649121,-8.61505 -23.310538,2.91795 -13.717758,10.10173 -10.9824,21.73632 -10.9824,21.73632 -0.128882,-0.45581 5.179767,-5.20153 11.148435,-6.05272 5.918173,-0.84416 10.684648,0.75553 19.224604,-4.02735 6.606803,-3.70023 4.958967,-8.9785 4.958967,-8.9785 -25.171389,5.35185 -26.186683,7.55634 -28.236321,9.89451 0,0 2.010368,-7.05699 30.013682,-13.11912 15.44553,-3.34364 16.195313,-18.62109 16.195313,-18.62109 z m 100.136696,6.7793 c -0.004,0.18746 -0.002,0.37568 0,0.56443 z M 92.689512,189.022 c 0,0 -4.69954,0.80436 -10.804687,4.22264 -6.105184,3.41828 -13.640882,17.17545 -19.955112,24.90822 -6.314078,7.73276 -13.960743,6.11282 -17.349581,5.32614 -5.597026,-1.29913 -4.166891,-3.28418 -21.798841,-6.96873 -7.698935,-1.6089 -9.984378,-1.00588 -9.984378,-1.00588 2.138306,1.6419 14.266281,4.14682 17.03127,4.81837 8.43239,2.04805 8.771452,3.05862 8.771452,3.05862 l -0.298961,2.66404 c 0,0 -7.076485,-1.90035 -13.607433,8.7422 -3.589606,5.84934 -2.716006,11.38148 -8.707011,23.10935 -3.930028,7.6933 -9.5742237,11.13283 -9.5742237,11.13283 0,0 10.6187337,4.76734 24.0136817,-8.90623 8.26526,-8.43735 12.043125,-16.63439 13.369134,-21.75001 2.14235,-8.26477 -2.427742,-10.72657 -2.427742,-10.72657 0,0 -3.58114,10.58532 -9.316422,19.58982 -4.077165,6.40135 -13.564422,16.47659 -13.564422,16.47659 0,0 9.201714,-11.03996 14.115213,-20.58985 3.804321,-7.39411 8.208982,-18.4707 8.208982,-18.4707 0,0 3.012133,1.83526 5.552731,3.84178 5.829997,4.60437 9.009789,7.22464 9.009789,7.22464 0,0 -3.828623,7.80382 -2.91016,15.5156 0.892989,7.49832 5.031231,14.08203 5.031231,14.08203 -0.153449,-7.32669 2.226255,-12.52316 2.554696,-17.50193 0.494022,-7.48883 -2.855471,-11.08986 -2.855471,-11.08986 0,0 15.427729,13.3575 23.724624,14.38867 9.01663,1.12066 14.951168,-1.02539 14.951168,-1.02539 0,0 -3.558349,-1.28973 -14.73634,-6.63281 -7.169688,-3.42712 -14.464856,-0.84181 -14.464856,-0.84181 0,0 -5.558741,-4.88459 -9.37304,-8.0996 -3.814337,-3.21506 -10.625008,-8.80664 -10.625008,-8.80664 l 3.519534,-0.19125 c 0,0 3.467263,2.9037 8.964851,4.59375 5.497625,1.68998 8.592755,-0.24377 13.978507,-4.72656 5.385789,-4.48293 10.424466,-21.52467 12.896504,-26.84375 2.471962,-5.31908 6.66017,-9.51757 6.66017,-9.51757 z m 18.572258,1.67773 c -0.60302,-10e-4 -1.23318,0.0302 -1.88674,0.0998 -8.36515,0.88569 -13.482406,4.52734 -13.482406,4.52734 0,0 14.467236,9.25017 26.080066,-0.0998 0,0 -3.59528,-4.51559 -10.71092,-4.52734 z m 59.14061,9.99999 c -0.76724,-0.004 -1.57534,0.0461 -2.42774,0.16403 -8.33238,1.1534 -13.33202,4.95704 -13.33202,4.95704 0,0 8.75036,5.1984 17.93749,3.15624 v -8.11717 c -0.68576,-0.0975 -1.41052,-0.15572 -2.17773,-0.16026 z M 3.7795276e-5,200.85997 v 8.11718 C 4.5279118,207.96835 10.43365,204.52792 10.43365,204.52792 c 0,0 -3.2694799,-2.44097 -10.433612204724,-3.66795 z M 116.67583,214.66855 c -5.42442,-0.0265 -9.4961,2.06249 -9.4961,2.06249 0,0 15.37311,-4.04754 23.57227,8.35937 2.35147,3.55827 -3.64585,10.93035 14.16601,18.74218 15.60144,6.84235 24.31835,-1.33788 24.31835,-1.33788 -0.33071,0.33941 -7.09508,-1.89021 -10.81247,-6.63669 -3.68618,-4.7065 -4.67823,-9.63496 -13.08594,-14.64651 -6.50464,-3.87696 -10.25782,0.18369 -10.25782,0.18369 17.20433,19.13775 19.6227,18.9188 22.67187,19.52734 0,0 -7.11798,1.78175 -26.35158,-19.45508 -4.80692,-5.3077 -10.23009,-6.77835 -14.72459,-6.79884 z m -17.7168,8.42577 c 0,0 2.03176,17.05066 16.62694,20.09182 0,0 0.13833,-0.64857 0.14664,-1.7207 0.0189,-2.35877 -0.59648,-6.76819 -4.71677,-10.8262 -5.99339,-5.90264 -12.056659,-7.54492 -12.056659,-7.54492 z m 24.21876,31.39843 c -4.49484,-0.0189 -9.93014,1.40848 -14.78128,6.67578 -19.41033,21.07544 -26.511685,19.23439 -26.511685,19.23439 3.054123,-0.58303 5.470299,-0.3428 22.833975,-19.33595 0,0 -3.71716,-4.0922 -10.253931,-0.26948 -8.449323,4.94113 -9.48359,9.86155 -13.208957,14.53712 -3.75704,4.7153 -10.539515,6.8871 -10.8672,6.5449 0,0 8.644686,8.25275 24.30274,1.54103 17.876488,-7.66277 11.943078,-15.08455 14.324218,-18.62306 8.30257,-12.33797 23.64061,-8.16212 23.64061,-8.16212 0,0 -4.05377,-2.12182 -9.47849,-2.14257 z m 24.45895,9.54297 c 0,0 -3.1474,6.01973 1.04496,13.31251 4.19225,7.29287 9.58983,10.50195 9.58983,10.50195 0,0 0.20826,-1.3437 0.2109,-3.42576 0.008,-5.32082 -1.32495,-15.47158 -10.84569,-20.3887 z m -71.189446,4.58596 c 0,0 -4.741455,0.20296 -10.882809,3.43555 -5.651074,2.97427 -13.384743,16.14063 -13.384743,16.14063 0,0 1.510034,-3.32595 -0.658205,-8.18752 -1.441361,-3.23217 -4.396309,-6.04486 -6.064479,-10.97658 0,0 -1.345474,5.53308 -0.162141,10.78322 1.217499,5.39951 5.834003,9.55272 5.834003,9.55272 0,0 -1.62652,2.62553 -4.656265,7.30469 -0.134551,0.20826 -0.279307,0.40513 -0.419905,0.61134 h 2.031231 c 0.723931,-1.16515 3.027515,-4.86663 4.705096,-7.64062 1.933115,-3.19653 4.701166,-7.98829 4.701166,-7.98829 0,0 5.815823,-0.28422 10.083968,-4.54685 6.654236,-6.64569 8.873046,-8.48829 8.873046,-8.48829 z m -59.134752,9.08398 c -6.063572,0.0385 -9.0878743,2.92577 -9.0878743,2.92577 0,0 4.8502303,0.73988 9.5117103,4.79101 6.205909,5.39357 7.541405,9.07555 10.425789,11.86329 h 11.910161 c -2.039093,-2.05659 -4.629884,-4.58895 -6.937512,-6.58204 -5.81144,-5.01918 -15.031257,-9.85153 -15.031257,-9.85153 0,0 9.191698,4.10925 13.644548,7.25779 4.507616,3.18731 8.345877,7.16027 10.185524,9.17578 h 1.886741 c 0.163275,-0.49436 0.288756,-1.10517 0.257763,-1.85548 -0.05065,-1.23179 -0.502941,-2.79364 -1.826192,-4.64062 -2.184113,-3.04849 -6.859578,-7.47885 -14.785134,-10.83201 -4.01382,-1.69818 -7.398122,-2.26942 -10.154305,-2.25196 z m 98.568378,5.80078 c -2.82917,0.0189 -4.55667,0.41798 -4.55667,0.41798 0,0 9.84612,14.0685 24.14649,9.85349 0,0 -1.88617,-6.52758 -9.95701,-8.89844 -3.78324,-1.11133 -7.13655,-1.38958 -9.63281,-1.37303 z m -55.689487,6.66014 c -1.719798,0.034 -3.261581,0.58303 -5.011691,1.90431 -2.930533,2.21254 -4.567181,4.49601 -5.046879,5.21484 h 23.917946 c -2.706179,-2.74382 -5.534059,-5.2227 -7.783181,-5.91212 -2.459111,-0.75375 -4.356359,-1.23969 -6.076195,-1.20703 z" />
    </pattern>
    <rect
       x="37.070129"
       y="227.71651"
       width="95.94621"
       height="33.02045"
       id="rect43-0" />
    <rect
       x="37.070129"
       y="227.71651"
       width="95.946213"
       height="33.020451"
       id="rect43-0-1" />
    <marker
       style="overflow:visible"
       id="Triangle-9"
       refX="0"
       refY="0"
       orient="auto-start-reverse"
       inkscape:stockid="Triangle arrow"
       markerWidth="1"
       markerHeight="1"
       viewBox="0 0 1 1"
       inkscape:isstock="true"
       inkscape:collect="always"
       preserveAspectRatio="xMidYMid">
      <path
         transform="scale(0.5)"
         style="fill:context-stroke;fill-rule:evenodd;stroke:context-stroke;stroke-width:1pt"
         d="M 5.77,0 -2.88,5 V -5 Z"
         id="path135-7" />
    </marker>
  </defs>
  <g
     inkscape:label="Layer 1"
     inkscape:groupmode="layer"
     id="layer1">
    <rect
       style="fill:#ffffff;stroke:#ffffff;stroke-width:1.38067"
       id="rect1"
       width="98.619324"
       height="98.619331"
       x="0.69033533"
       y="0.69033533"
       sodipodi:insensitive="true" />
  </g>
  <g
     inkscape:groupmode="layer"
     id="layer2"
     inkscape:label="ew free">
    <rect
       style="fill:url(#pattern19);fill-opacity:1;stroke:#000000;stroke-width:0.2;stroke-dasharray:none"
       id="rect2"
       width="24.78997"
       height="6.789969"
       x="10.1"
       y="15.105015" />
    <rect
       style="fill:url(#pattern14);fill-opacity:1;stroke:#000000;stroke-width:0.2;stroke-dasharray:none"
       id="rect2-8"
       width="24.788872"
       height="3.1074128"
       x="10.100549"
       y="21.849108" />
    <rect
       style="fill:#ffffff;stroke:#000000;stroke-width:0.200514;stroke-dasharray:none"
       id="rect2-8-5"
       width="24.799486"
       height="32.563988"
       x="10.100257"
       y="25.036142" />
    <text
       xml:space="preserve"
       style="font-size:14.1111px;font-family:'Times New Roman';-inkscape-font-specification:'Times New Roman, ';text-align:start;letter-spacing:0px;writing-mode:lr-tb;direction:ltr;text-anchor:start;fill:#4b2104;fill-opacity:1;stroke:#000000;stroke-width:0.2;stroke-dasharray:none"
       x="16.413168"
       y="35.006214"
       id="text34"><tspan
         sodipodi:role="line"
         id="tspan34"
         style="stroke-width:0.2"
         x="16.413168"
         y="35.006214" /></text>
    <text
       xml:space="preserve"
       style="font-size:2.82222px;font-family:'Times New Roman';-inkscape-font-specification:'Times New Roman, ';text-align:start;letter-spacing:0px;writing-mode:lr-tb;direction:ltr;text-anchor:start;fill:#4b2104;fill-opacity:1;stroke:#000000;stroke-width:0.2;stroke-dasharray:none"
       x="21.991081"
       y="30.390007"
       id="text35"><tspan
         sodipodi:role="line"
         id="tspan35"
         style="font-size:2.82222px;stroke-width:0.2"
         x="21.991081"
         y="30.390007" /></text>
  </g>
  <g
     inkscape:groupmode="layer"
     id="layer3"
     inkscape:label="ew">
    <rect
       style="fill:url(#pattern32);fill-opacity:1;stroke:#000000;stroke-width:0.2;stroke-dasharray:none"
       id="rect2-1"
       width="12.356836"
       height="1.4743119"
       x="40.099998"
       y="17.327961" />
    <rect
       style="fill:url(#pattern29);fill-opacity:1;stroke:#000000;stroke-width:0.2;stroke-dasharray:none"
       id="rect2-8-4"
       width="24.763868"
       height="9.4053936"
       x="40.099998"
       y="18.870464" />
    <rect
       style="fill:#ffffff;stroke:#000000;stroke-width:0.2;stroke-dasharray:none"
       id="rect2-8-5-2"
       width="24.809019"
       height="29.488796"
       x="40.099998"
       y="28.240259" />
  </g>
  <g
     inkscape:groupmode="layer"
     id="layer4"
     inkscape:label="jw">
    <rect
       style="fill:url(#pattern32-3);fill-opacity:1;stroke:#000000;stroke-width:0.2;stroke-dasharray:none"
       id="rect2-1-6"
       width="12.356836"
       height="1.4743119"
       x="70.099998"
       y="15.223701" />
    <rect
       style="fill:url(#pattern29-7);fill-opacity:1;stroke:#000000;stroke-width:0.2;stroke-dasharray:none"
       id="rect2-8-4-5"
       width="24.778513"
       height="8.0736456"
       x="70.099998"
       y="20.156919" />
    <rect
       style="fill:url(#pattern34);fill-opacity:1;stroke:#000000;stroke-width:0.129244;stroke-dasharray:none"
       id="rect2-8-4-5-8"
       width="24.849268"
       height="3.3619843"
       x="70.064613"
       y="16.793394" />
    <rect
       style="fill:#ffffff;stroke:#000000;stroke-width:0.2;stroke-dasharray:none"
       id="rect2-8-5-2-0"
       width="24.809019"
       height="29.488796"
       x="70.099998"
       y="28.187645" />
  </g>
  <g
     inkscape:groupmode="layer"
     id="layer5"
     inkscape:label="testxt">
    <text
       xml:space="preserve"
       style="font-size:2.82223px;font-family:'Times New Roman';-inkscape-font-specification:'Times New Roman, ';text-align:start;letter-spacing:0px;writing-mode:lr-tb;direction:ltr;text-anchor:start;fill:#4b2104;fill-opacity:1;stroke:#000000;stroke-width:0;stroke-dasharray:none"
       x="4.9237528"
       y="43.106796"
       id="text36"><tspan
         sodipodi:role="line"
         id="tspan36"
         style="font-weight:normal;stroke-width:0;stroke-dasharray:none"
         x="4.9237528"
         y="43.106796">B/C</tspan></text>
    <text
       xml:space="preserve"
       style="font-size:2.82223px;font-family:'Times New Roman';-inkscape-font-specification:'Times New Roman, ';text-align:start;letter-spacing:0px;writing-mode:lr-tb;direction:ltr;text-anchor:start;fill:#4b2104;fill-opacity:1;stroke:#000000;stroke-width:0;stroke-dasharray:none"
       x="5.9142122"
       y="24.377609"
       id="text36-9"><tspan
         sodipodi:role="line"
         id="tspan36-6"
         style="font-weight:normal;stroke-width:0;stroke-dasharray:none"
         x="5.9142122"
         y="24.377609">A</tspan></text>
    <text
       xml:space="preserve"
       style="font-size:2.82223px;font-family:'Times New Roman';-inkscape-font-specification:'Times New Roman, ';text-align:start;letter-spacing:0px;writing-mode:lr-tb;direction:ltr;text-anchor:start;fill:#4b2104;fill-opacity:1;stroke:#000000;stroke-width:0;stroke-dasharray:none"
       x="6.1180081"
       y="19.365562"
       id="text36-9-5"><tspan
         sodipodi:role="line"
         id="tspan36-6-9"
         style="font-weight:normal;stroke-width:0;stroke-dasharray:none"
         x="6.1180081"
         y="19.365562">O</tspan></text>
    <text
       xml:space="preserve"
       style="font-size:2.82223px;font-family:'Times New Roman';-inkscape-font-specification:'Times New Roman, ';text-align:start;letter-spacing:0px;writing-mode:lr-tb;direction:ltr;text-anchor:start;fill:#000000;fill-opacity:1;stroke:#000000;stroke-width:0;stroke-dasharray:none"
       x="35.398376"
       y="7.7306209"
       id="text37"><tspan
         sodipodi:role="line"
         id="tspan37"
         style="stroke-width:0;stroke-dasharray:none;fill:#000000"
         x="35.398376"
         y="7.7306209">Transient/seasonal litter layer</tspan></text>
    <text
       xml:space="preserve"
       style="font-size:2.82223px;font-family:'Times New Roman';-inkscape-font-specification:'Times New Roman, ';text-align:start;letter-spacing:0px;writing-mode:lr-tb;direction:ltr;text-anchor:start;fill:#000000;fill-opacity:1;stroke:#000000;stroke-width:0;stroke-dasharray:none"
       x="79.320007"
       y="6.1194715"
       id="text38"><tspan
         sodipodi:role="line"
         id="tspan38"
         style="stroke-width:0;stroke-dasharray:none;fill:#000000"
         x="79.320007"
         y="6.1194715">Jumping worm </tspan><tspan
         sodipodi:role="line"
         style="stroke-width:0;stroke-dasharray:none;fill:#000000"
         x="79.320007"
         y="9.6472588"
         id="tspan39">cast layer</tspan></text>
    <path
       style="fill:#000000;fill-opacity:1;stroke:#000000;stroke-width:0;stroke-dasharray:none"
       d="m 52.502387,9.2311886 0.16484,6.3464424"
       id="path40" />
    <path
       style="fill:#000000;fill-opacity:1;stroke:#000000;stroke-width:0.1;stroke-dasharray:none"
       d="M 57.859771,9.4784525 68.162436,13.846783"
       id="path41" />
    <path
       style="fill:#000000;fill-opacity:1;stroke:#000000;stroke-width:0.1;stroke-dasharray:none"
       d="m 52.74965,10.220245 -2.967169,5.769492"
       id="path42" />
    <path
       style="fill:#000000;fill-opacity:1;stroke:#000000;stroke-width:0.1;stroke-dasharray:none"
       d="m 90.168933,10.797194 1.401161,5.192543"
       id="path43" />
    <text
       xml:space="preserve"
       transform="matrix(0.26458333,0,0,0.26458333,2.8847465,-0.98905594)"
       id="text43"
       style="font-size:10.6667px;font-family:'Times New Roman';-inkscape-font-specification:'Times New Roman, ';text-align:start;letter-spacing:0px;writing-mode:lr-tb;direction:ltr;white-space:pre;shape-inside:url(#rect43);display:inline;fill:#000000;fill-opacity:1;stroke:#000000;stroke-width:0;stroke-dasharray:none"><tspan
         x="37.070312"
         y="237.18478"
         id="tspan2">Earthworm free</tspan></text>
    <text
       xml:space="preserve"
       transform="matrix(0.26458333,0,0,0.26458333,31.274556,-1.3509097)"
       id="text43-6"
       style="font-size:10.6667px;font-family:'Times New Roman';-inkscape-font-specification:'Times New Roman, ';text-align:start;letter-spacing:0px;writing-mode:lr-tb;direction:ltr;white-space:pre;shape-inside:url(#rect43-0);display:inline;fill:#000000;fill-opacity:1;stroke:#000000;stroke-width:0;stroke-dasharray:none"><tspan
         x="37.070312"
         y="237.18478"
         id="tspan4">Euopean earthworm
</tspan><tspan
         x="37.070312"
         y="250.51816"
         id="tspan5">infested</tspan></text>
    <text
       xml:space="preserve"
       transform="matrix(0.26458333,0,0,0.26458333,63.709127,-2.0061067)"
       id="text43-6-4"
       style="font-size:10.6667px;font-family:'Times New Roman';-inkscape-font-specification:'Times New Roman, ';text-align:start;letter-spacing:0px;writing-mode:lr-tb;direction:ltr;white-space:pre;shape-inside:url(#rect43-0-1);display:inline;fill:#000000;fill-opacity:1;stroke:#000000;stroke-width:0;stroke-dasharray:none"><tspan
         x="37.070312"
         y="237.18478"
         id="tspan6">Jumping worm
</tspan><tspan
         x="37.070312"
         y="250.51816"
         id="tspan7">infested</tspan></text>
    <path
       style="fill:#000000;fill-opacity:1;stroke:#000000;stroke-width:0.363132;stroke-dasharray:none;marker-end:url(#Triangle)"
       d="m 30.001415,39.01775 v 0 l 13.457063,0.104842"
       id="path44" />
    <path
       style="fill:#000000;fill-opacity:1;stroke:#000000;stroke-width:0.363132;stroke-dasharray:none;marker-end:url(#Triangle-9)"
       d="m 60.001415,39.01775 v 0 l 13.457063,0.104842"
       id="path44-7" />
  </g>
</svg>
