<?xml version="1.0" encoding="UTF-8" standalone="no"?>
<!-- Created with Inkscape (http://www.inkscape.org/) -->

<svg
   width="210mm"
   height="297mm"
   viewBox="0 0 210 297"
   version="1.1"
   id="svg1"
   inkscape:version="1.4 (86a8ad7, 2024-10-11)"
   sodipodi:docname="Four panel animals.svg"
   xmlns:inkscape="http://www.inkscape.org/namespaces/inkscape"
   xmlns:sodipodi="http://sodipodi.sourceforge.net/DTD/sodipodi-0.dtd"
   xmlns:xlink="http://www.w3.org/1999/xlink"
   xmlns="http://www.w3.org/2000/svg"
   xmlns:svg="http://www.w3.org/2000/svg">
  <sodipodi:namedview
     id="namedview1"
     pagecolor="#505050"
     bordercolor="#eeeeee"
     borderopacity="1"
     inkscape:showpageshadow="0"
     inkscape:pageopacity="0"
     inkscape:pagecheckerboard="0"
     inkscape:deskcolor="#505050"
     inkscape:document-units="mm"
     inkscape:zoom="4.1972679"
     inkscape:cx="189.7663"
     inkscape:cy="143.30751"
     inkscape:window-width="2256"
     inkscape:window-height="1398"
     inkscape:window-x="-11"
     inkscape:window-y="-11"
     inkscape:window-maximized="1"
     inkscape:current-layer="layer1" />
  <defs
     id="defs1">
    <pattern
       inkscape:collect="always"
       xlink:href="#pattern7"
       preserveAspectRatio="xMidYMid"
       id="pattern8"
       patternTransform="matrix(0.15047866,0.15351429,-0.15047866,0.15351429,-5.3070775,-2.0229188)"
       x="0"
       y="0"
       width="12" />
    <pattern
       inkscape:collect="always"
       patternUnits="userSpaceOnUse"
       width="5"
       height="1"
       patternTransform="translate(0,0) scale(2,2)"
       preserveAspectRatio="xMidYMid"
       id="pattern7"
       style="fill:#7c7c7c"
       inkscape:stockid="Stripes 05 (1:4)"
       inkscape:isstock="true"
       inkscape:label="Stripes 05 (1:4)">
      <rect
   style="stroke:none"
   x="0"
   y="-0.5"
   width="1"
   height="2"
   id="rect6" />

    </pattern>
    <pattern
       inkscape:collect="always"
       xlink:href="#Polkadots-large"
       preserveAspectRatio="xMidYMid"
       id="pattern41"
       patternTransform="matrix(2,0,0,2,-0.75188067,-0.21482305)"
       x="0"
       y="0" />
    <pattern
       patternUnits="userSpaceOnUse"
       width="10"
       height="10"
       patternTransform="translate(0,0) scale(10,10)"
       preserveAspectRatio="xMidYMid"
       id="Polkadots-large"
       inkscape:stockid="Polka dots, large"
       inkscape:label="Polka dots large"
       inkscape:collect="always"
       inkscape:isstock="true">
      <circle
         style="stroke:none"
         cx="2.567"
         cy="0.810"
         r="0.45"
         id="circle584" />
      <circle
         style="stroke:none"
         cx="3.048"
         cy="2.33"
         r="0.45"
         id="circle586" />
      <circle
         style="stroke:none"
         cx="4.418"
         cy="2.415"
         r="0.45"
         id="circle588" />
      <circle
         style="stroke:none"
         cx="1.844"
         cy="3.029"
         r="0.45"
         id="circle590" />
      <circle
         style="stroke:none"
         cx="6.08"
         cy="1.363"
         r="0.45"
         id="circle592" />
      <circle
         style="stroke:none"
         cx="5.819"
         cy="4.413"
         r="0.45"
         id="circle594" />
      <circle
         style="stroke:none"
         cx="4.305"
         cy="4.048"
         r="0.45"
         id="circle596" />
      <circle
         style="stroke:none"
         cx="5.541"
         cy="3.045"
         r="0.45"
         id="circle598" />
      <circle
         style="stroke:none"
         cx="4.785"
         cy="5.527"
         r="0.45"
         id="circle600" />
      <circle
         style="stroke:none"
         cx="2.667"
         cy="5.184"
         r="0.45"
         id="circle602" />
      <circle
         style="stroke:none"
         cx="7.965"
         cy="1.448"
         r="0.45"
         id="circle604" />
      <circle
         style="stroke:none"
         cx="7.047"
         cy="5.049"
         r="0.45"
         id="circle606" />
      <circle
         style="stroke:none"
         cx="4.340"
         cy="0.895"
         r="0.45"
         id="circle608" />
      <circle
         style="stroke:none"
         cx="7.125"
         cy="0.340"
         r="0.45"
         id="circle610" />
      <circle
         style="stroke:none"
         cx="7.125"
         cy="10.340"
         r="0.45"
         id="circle612" />
      <circle
         style="stroke:none"
         cx="9.550"
         cy="1.049"
         r="0.45"
         id="circle614" />
      <circle
         style="stroke:none"
         cx="7.006"
         cy="2.689"
         r="0.45"
         id="circle616" />
      <circle
         style="stroke:none"
         cx="8.909"
         cy="2.689"
         r="0.45"
         id="circle618" />
      <circle
         style="stroke:none"
         cx="9.315"
         cy="4.407"
         r="0.45"
         id="circle620" />
      <circle
         style="stroke:none"
         cx="7.820"
         cy="3.870"
         r="0.45"
         id="circle622" />
      <circle
         style="stroke:none"
         cx="8.270"
         cy="5.948"
         r="0.45"
         id="circle624" />
      <circle
         style="stroke:none"
         cx="7.973"
         cy="7.428"
         r="0.45"
         id="circle626" />
      <circle
         style="stroke:none"
         cx="9.342"
         cy="8.072"
         r="0.45"
         id="circle628" />
      <circle
         style="stroke:none"
         cx="8.206"
         cy="9.315"
         r="0.45"
         id="circle630" />
      <circle
         style="stroke:none"
         cx="9.682"
         cy="9.475"
         r="0.45"
         id="circle632" />
      <circle
         style="stroke:none"
         cx="-0.318"
         cy="9.475"
         r="0.45"
         id="circle634" />
      <circle
         style="stroke:none"
         cx="9.688"
         cy="6.186"
         r="0.45"
         id="circle636" />
      <circle
         style="stroke:none"
         cx="-0.312"
         cy="6.186"
         r="0.45"
         id="circle638" />
      <circle
         style="stroke:none"
         cx="3.379"
         cy="6.296"
         r="0.45"
         id="circle640" />
      <circle
         style="stroke:none"
         cx="2.871"
         cy="8.204"
         r="0.45"
         id="circle642" />
      <circle
         style="stroke:none"
         cx="4.59"
         cy="8.719"
         r="0.45"
         id="circle644" />
      <circle
         style="stroke:none"
         cx="3.181"
         cy="9.671"
         r="0.45"
         id="circle646" />
      <circle
         style="stroke:none"
         cx="3.181"
         cy="-0.329"
         r="0.45"
         id="circle648" />
      <circle
         style="stroke:none"
         cx="5.734"
         cy="7.315"
         r="0.45"
         id="circle650" />
      <circle
         style="stroke:none"
         cx="6.707"
         cy="6.513"
         r="0.45"
         id="circle652" />
      <circle
         style="stroke:none"
         cx="5.730"
         cy="9.670"
         r="0.45"
         id="circle654" />
      <circle
         style="stroke:none"
         cx="5.730"
         cy="-0.330"
         r="0.45"
         id="circle656" />
      <circle
         style="stroke:none"
         cx="6.535"
         cy="8.373"
         r="0.45"
         id="circle658" />
      <circle
         style="stroke:none"
         cx="4.37"
         cy="7.154"
         r="0.45"
         id="circle660" />
      <circle
         style="stroke:none"
         cx="0.622"
         cy="7.25"
         r="0.45"
         id="circle662" />
      <circle
         style="stroke:none"
         cx="0.831"
         cy="5.679"
         r="0.45"
         id="circle664" />
      <circle
         style="stroke:none"
         cx="1.257"
         cy="8.519"
         r="0.45"
         id="circle666" />
      <circle
         style="stroke:none"
         cx="1.989"
         cy="6.877"
         r="0.45"
         id="circle668" />
      <circle
         style="stroke:none"
         cx="0.374"
         cy="3.181"
         r="0.45"
         id="circle670" />
      <circle
         style="stroke:none"
         cx="10.374"
         cy="3.181"
         r="0.45"
         id="circle672" />
      <circle
         style="stroke:none"
         cx="1.166"
         cy="1.664"
         r="0.45"
         id="circle674" />
      <circle
         style="stroke:none"
         cx="1.151"
         cy="0.093"
         r="0.45"
         id="circle676" />
      <circle
         style="stroke:none"
         cx="1.151"
         cy="10.093"
         r="0.45"
         id="circle678" />
      <circle
         style="stroke:none"
         cx="1.302"
         cy="4.451"
         r="0.45"
         id="circle680" />
      <circle
         style="stroke:none"
         cx="3.047"
         cy="3.763"
         r="0.45"
         id="circle682" />
    </pattern>
    <pattern
       inkscape:collect="always"
       xlink:href="#pattern38"
       preserveAspectRatio="xMidYMid"
       id="pattern39"
       patternTransform="matrix(0.13719531,0.13719531,-0.14602544,0.14602544,-7.8537344,0)"
       x="0"
       y="0"
       width="12" />
    <pattern
       inkscape:collect="always"
       patternUnits="userSpaceOnUse"
       width="5"
       height="1"
       patternTransform="translate(0,0) scale(2,2)"
       preserveAspectRatio="xMidYMid"
       id="pattern38"
       style="fill:#7c7c7c"
       inkscape:stockid="Stripes 05 (1:4)"
       inkscape:isstock="true"
       inkscape:label="Stripes 05 (1:4)">
      <rect
         style="stroke:none"
         x="0"
         y="-0.5"
         width="1"
         height="2"
         id="rect37" />
    </pattern>
    <clipPath
       clipPathUnits="userSpaceOnUse"
       id="clipPath52">
      <path
         id="path52"
         style="stroke-width:0.1;stroke-linecap:square;paint-order:markers fill stroke;stop-color:#000000"
         d="m -880.82767,-187.29769 h 1640.84 v 73.28155 h -1640.84 z" />
    </clipPath>
    <inkscape:path-effect
       effect="bspline"
       id="path-effect28"
       is_visible="true"
       lpeversion="1.3"
       weight="33.333333"
       steps="2"
       helper_size="0"
       apply_no_weight="true"
       apply_with_weight="true"
       only_selected="false"
       uniform="false" />
    <inkscape:path-effect
       effect="bspline"
       id="path-effect27"
       is_visible="true"
       lpeversion="1.3"
       weight="33.333333"
       steps="2"
       helper_size="0"
       apply_no_weight="true"
       apply_with_weight="true"
       only_selected="false"
       uniform="false" />
    <inkscape:path-effect
       effect="spiro"
       id="path-effect17"
       is_visible="true"
       lpeversion="1" />
    <inkscape:path-effect
       effect="spiro"
       id="path-effect13"
       is_visible="true"
       lpeversion="1" />
    <inkscape:path-effect
       effect="spiro"
       id="path-effect12"
       is_visible="true"
       lpeversion="1" />
    <inkscape:path-effect
       effect="spiro"
       id="path-effect11"
       is_visible="true"
       lpeversion="1" />
    <marker
       style="overflow:visible"
       id="marker10"
       refX="0"
       refY="0"
       orient="auto-start-reverse"
       inkscape:stockid="Concave triangle arrow"
       markerWidth="1"
       markerHeight="1"
       viewBox="0 0 1 1"
       inkscape:isstock="true"
       inkscape:collect="always"
       preserveAspectRatio="xMidYMid">
      <path
         transform="scale(0.7)"
         d="M -2,-4 9,0 -2,4 c 2,-2.33 2,-5.66 0,-8 z"
         style="fill:context-stroke;fill-rule:evenodd;stroke:none"
         id="path10" />
    </marker>
    <inkscape:path-effect
       effect="spiro"
       id="path-effect9"
       is_visible="true"
       lpeversion="1" />
    <marker
       style="overflow:visible"
       id="ConcaveTriangle"
       refX="0"
       refY="0"
       orient="auto-start-reverse"
       inkscape:stockid="Concave triangle arrow"
       markerWidth="1"
       markerHeight="1"
       viewBox="0 0 1 1"
       inkscape:isstock="true"
       inkscape:collect="always"
       preserveAspectRatio="xMidYMid">
      <path
         transform="scale(0.7)"
         d="M -2,-4 9,0 -2,4 c 2,-2.33 2,-5.66 0,-8 z"
         style="fill:context-stroke;fill-rule:evenodd;stroke:none"
         id="path7" />
    </marker>
    <inkscape:path-effect
       effect="spiro"
       id="path-effect6"
       is_visible="true"
       lpeversion="1" />
    <inkscape:path-effect
       effect="bspline"
       id="path-effect5"
       is_visible="true"
       lpeversion="1.3"
       weight="33.333333"
       steps="2"
       helper_size="0"
       apply_no_weight="true"
       apply_with_weight="true"
       only_selected="false"
       uniform="false" />
    <inkscape:path-effect
       effect="spiro"
       id="path-effect4"
       is_visible="true"
       lpeversion="1" />
    <inkscape:path-effect
       effect="spiro"
       id="path-effect6-5"
       is_visible="true"
       lpeversion="1" />
    <marker
       style="overflow:visible"
       id="ConcaveTriangle-9"
       refX="0"
       refY="0"
       orient="auto-start-reverse"
       inkscape:stockid="Concave triangle arrow"
       markerWidth="1"
       markerHeight="1"
       viewBox="0 0 1 1"
       inkscape:isstock="true"
       inkscape:collect="always"
       preserveAspectRatio="xMidYMid">
      <path
         transform="scale(0.7)"
         d="M -2,-4 9,0 -2,4 c 2,-2.33 2,-5.66 0,-8 z"
         style="fill:context-stroke;fill-rule:evenodd;stroke:none"
         id="path7-2" />
    </marker>
    <inkscape:path-effect
       effect="spiro"
       id="path-effect6-7"
       is_visible="true"
       lpeversion="1" />
    <marker
       style="overflow:visible"
       id="ConcaveTriangle-1"
       refX="0"
       refY="0"
       orient="auto-start-reverse"
       inkscape:stockid="Concave triangle arrow"
       markerWidth="1"
       markerHeight="1"
       viewBox="0 0 1 1"
       inkscape:isstock="true"
       inkscape:collect="always"
       preserveAspectRatio="xMidYMid">
      <path
         transform="scale(0.7)"
         d="M -2,-4 9,0 -2,4 c 2,-2.33 2,-5.66 0,-8 z"
         style="fill:context-stroke;fill-rule:evenodd;stroke:none"
         id="path7-23" />
    </marker>
    <inkscape:path-effect
       effect="spiro"
       id="path-effect6-3"
       is_visible="true"
       lpeversion="1" />
    <marker
       style="overflow:visible"
       id="ConcaveTriangle-9-4"
       refX="0"
       refY="0"
       orient="auto-start-reverse"
       inkscape:stockid="Concave triangle arrow"
       markerWidth="1"
       markerHeight="1"
       viewBox="0 0 1 1"
       inkscape:isstock="true"
       inkscape:collect="always"
       preserveAspectRatio="xMidYMid">
      <path
         transform="scale(0.7)"
         d="M -2,-4 9,0 -2,4 c 2,-2.33 2,-5.66 0,-8 z"
         style="fill:context-stroke;fill-rule:evenodd;stroke:none"
         id="path7-2-1" />
    </marker>
    <inkscape:path-effect
       effect="spiro"
       id="path-effect6-7-1"
       is_visible="true"
       lpeversion="1" />
    <inkscape:path-effect
       effect="spiro"
       id="path-effect13-7"
       is_visible="true"
       lpeversion="1" />
    <inkscape:path-effect
       effect="spiro"
       id="path-effect13-9"
       is_visible="true"
       lpeversion="1" />
    <inkscape:path-effect
       effect="spiro"
       id="path-effect13-2"
       is_visible="true"
       lpeversion="1" />
    <inkscape:path-effect
       effect="spiro"
       id="path-effect13-8"
       is_visible="true"
       lpeversion="1" />
    <inkscape:path-effect
       effect="spiro"
       id="path-effect13-0"
       is_visible="true"
       lpeversion="1" />
    <pattern
       inkscape:collect="always"
       xlink:href="#pattern38-1"
       preserveAspectRatio="xMidYMid"
       id="pattern39-7"
       patternTransform="matrix(0.14142136,0.14142136,-0.14142136,0.14142136,39.59627,-0.04999876)"
       x="0"
       y="0"
       width="12" />
    <pattern
       inkscape:collect="always"
       patternUnits="userSpaceOnUse"
       width="5"
       height="1"
       patternTransform="translate(0,0) scale(2,2)"
       preserveAspectRatio="xMidYMid"
       id="pattern38-1"
       style="fill:#7c7c7c"
       inkscape:stockid="Stripes 05 (1:4)"
       inkscape:isstock="true"
       inkscape:label="Stripes 05 (1:4)">
      <rect
         style="stroke:none"
         x="0"
         y="-0.5"
         width="1"
         height="2"
         id="rect37-1" />
    </pattern>
    <marker
       style="overflow:visible"
       id="ConcaveTriangle-9-4-4"
       refX="0"
       refY="0"
       orient="auto-start-reverse"
       inkscape:stockid="Concave triangle arrow"
       markerWidth="1"
       markerHeight="1"
       viewBox="0 0 1 1"
       inkscape:isstock="true"
       inkscape:collect="always"
       preserveAspectRatio="xMidYMid">
      <path
         transform="scale(0.7)"
         d="M -2,-4 9,0 -2,4 c 2,-2.33 2,-5.66 0,-8 z"
         style="fill:context-stroke;fill-rule:evenodd;stroke:none"
         id="path7-2-1-2" />
    </marker>
    <inkscape:path-effect
       effect="bspline"
       id="path-effect28-3"
       is_visible="true"
       lpeversion="1.3"
       weight="33.333333"
       steps="2"
       helper_size="0"
       apply_no_weight="true"
       apply_with_weight="true"
       only_selected="false"
       uniform="false" />
    <marker
       style="overflow:visible"
       id="ConcaveTriangle-9-4-4-8"
       refX="0"
       refY="0"
       orient="auto-start-reverse"
       inkscape:stockid="Concave triangle arrow"
       markerWidth="1"
       markerHeight="1"
       viewBox="0 0 1 1"
       inkscape:isstock="true"
       inkscape:collect="always"
       preserveAspectRatio="xMidYMid">
      <path
         transform="scale(0.7)"
         d="M -2,-4 9,0 -2,4 c 2,-2.33 2,-5.66 0,-8 z"
         style="fill:context-stroke;fill-rule:evenodd;stroke:none"
         id="path7-2-1-2-5" />
    </marker>
    <inkscape:path-effect
       effect="bspline"
       id="path-effect28-3-7"
       is_visible="true"
       lpeversion="1.3"
       weight="33.333333"
       steps="2"
       helper_size="0"
       apply_no_weight="true"
       apply_with_weight="true"
       only_selected="false"
       uniform="false" />
    <marker
       style="overflow:visible"
       id="ConcaveTriangle-1-7"
       refX="0"
       refY="0"
       orient="auto-start-reverse"
       inkscape:stockid="Concave triangle arrow"
       markerWidth="1"
       markerHeight="1"
       viewBox="0 0 1 1"
       inkscape:isstock="true"
       inkscape:collect="always"
       preserveAspectRatio="xMidYMid">
      <path
         transform="scale(0.7)"
         d="M -2,-4 9,0 -2,4 c 2,-2.33 2,-5.66 0,-8 z"
         style="fill:context-stroke;fill-rule:evenodd;stroke:none"
         id="path7-23-9" />
    </marker>
  </defs>
  <path
     d="M 0.24167593,0.53705762 V 100.53716 H 100.24178 V 0.53705762 Z"
     style="fill:#ffffff;stroke:#000000;stroke-width:0.264583"
     id="path16"
     sodipodi:insensitive="true" />
  <g
     inkscape:label="Layer 1"
     inkscape:groupmode="layer"
     id="layer1">
    <g
       inkscape:groupmode="layer"
       id="layer2"
       inkscape:label="Soil">
      <rect
         style="opacity:1;mix-blend-mode:normal;fill:#ffffff;fill-opacity:1;stroke:#000000;stroke-width:0.184053;stroke-dasharray:none"
         id="rect4"
         width="42.315945"
         height="23.815947"
         x="5.0920267"
         y="23.592026"
         inkscape:label="soil" />
      <rect
         style="opacity:1;fill:url(#pattern39);fill-opacity:1;stroke:none;stroke-width:0.15985;stroke-dasharray:0.9591, 0.9591;stroke-dashoffset:0"
         id="rect33"
         width="42.266434"
         height="7.0891604"
         x="5.0500002"
         y="23.549999" />
      <rect
         style="mix-blend-mode:normal;fill:#ffffff;fill-opacity:1;stroke:#000000;stroke-width:0.184053;stroke-dasharray:none"
         id="rect4-2"
         width="42.315945"
         height="23.815947"
         x="52.592026"
         y="23.592026"
         inkscape:label="soil" />
      <rect
         style="fill:url(#pattern39-7);fill-opacity:1;stroke:none;stroke-width:0.15985;stroke-dasharray:0.9591, 0.9591;stroke-dashoffset:0"
         id="rect33-7"
         width="42.266434"
         height="7.0891604"
         x="52.5"
         y="23.5" />
    </g>
    <rect
       style="fill:none;stroke:#000000;stroke-width:0.279273"
       id="rect2"
       width="42.220726"
       height="42.220726"
       x="5.139636"
       y="5.139636" />
    <rect
       style="fill:none;stroke:#000000;stroke-width:0.279273"
       id="rect2-1"
       width="42.220726"
       height="42.220726"
       x="52.639637"
       y="5.1396365" />
    <rect
       style="fill:none;stroke:#000000;stroke-width:0.295701"
       id="rect2-5"
       width="44.7043"
       height="44.7043"
       x="3.0367355"
       y="51.497337" />
    <text
       xml:space="preserve"
       style="font-style:normal;font-variant:normal;font-weight:normal;font-stretch:normal;font-size:2.82222px;font-family:'Times New Roman';-inkscape-font-specification:'Times New Roman, ';text-align:start;letter-spacing:0px;writing-mode:lr-tb;direction:ltr;text-anchor:start;fill:#333333;stroke:#333333;stroke-width:0.264583"
       x="5.8994031"
       y="7.959569"
       id="text2-7"
       inkscape:label="text2"><tspan
         id="tspan2-6"
         style="font-style:normal;font-variant:normal;font-weight:normal;font-stretch:normal;font-size:2.82222px;font-family:'Times New Roman';-inkscape-font-specification:'Times New Roman, ';letter-spacing:0px;fill:#000000;stroke:none;stroke-width:0.264583"
         x="5.8994031"
         y="7.959569"
         sodipodi:role="line">1)</tspan></text>
    <text
       xml:space="preserve"
       style="font-style:normal;font-variant:normal;font-weight:normal;font-stretch:normal;font-size:2.82222px;font-family:'Times New Roman';-inkscape-font-specification:'Times New Roman, ';text-align:start;letter-spacing:0px;writing-mode:lr-tb;direction:ltr;text-anchor:start;fill:#333333;stroke:#333333;stroke-width:0.264583"
       x="5.669271"
       y="3.4595687"
       id="text2-7-5"
       inkscape:label="text2"><tspan
         id="tspan2-6-7"
         style="font-style:normal;font-variant:normal;font-weight:normal;font-stretch:normal;font-size:2.82222px;font-family:'Times New Roman';-inkscape-font-specification:'Times New Roman, ';letter-spacing:0px;fill:#000000;stroke:none;stroke-width:0.264583"
         x="5.669271"
         y="3.4595687"
         sodipodi:role="line">Vertical activity</tspan></text>
    <text
       xml:space="preserve"
       style="font-style:normal;font-variant:normal;font-weight:normal;font-stretch:normal;font-size:2.11667px;font-family:'Times New Roman';-inkscape-font-specification:'Times New Roman, ';text-align:start;letter-spacing:0px;writing-mode:lr-tb;direction:ltr;text-anchor:start;fill:#333333;stroke:#333333;stroke-width:0.264583"
       x="35.45927"
       y="43.888042"
       id="text2-7-36"
       inkscape:label="text2"><tspan
         id="tspan2-6-1"
         style="font-style:normal;font-variant:normal;font-weight:normal;font-stretch:normal;font-size:2.11667px;font-family:'Times New Roman';-inkscape-font-specification:'Times New Roman, ';letter-spacing:0px;fill:#000000;stroke:none;stroke-width:0.264583"
         x="35.45927"
         y="43.888042"
         sodipodi:role="line">c) sorting</tspan></text>
    <text
       xml:space="preserve"
       style="font-style:normal;font-variant:normal;font-weight:normal;font-stretch:normal;font-size:2.11667px;font-family:'Times New Roman';-inkscape-font-specification:'Times New Roman, ';text-align:start;letter-spacing:0px;writing-mode:lr-tb;direction:ltr;text-anchor:start;fill:#333333;stroke:#333333;stroke-width:0.264583"
       x="19.865736"
       y="19.728487"
       id="text2-7-36-0"
       inkscape:label="text2"><tspan
         id="tspan2-6-1-9"
         style="font-style:normal;font-variant:normal;font-weight:normal;font-stretch:normal;font-size:2.11667px;font-family:'Times New Roman';-inkscape-font-specification:'Times New Roman, ';letter-spacing:0px;fill:#000000;stroke:none;stroke-width:0.264583"
         x="19.865736"
         y="19.728487"
         sodipodi:role="line">b) whole-profile</tspan><tspan
         style="font-style:normal;font-variant:normal;font-weight:normal;font-stretch:normal;font-size:2.11667px;font-family:'Times New Roman';-inkscape-font-specification:'Times New Roman, ';letter-spacing:0px;fill:#000000;stroke:none;stroke-width:0.264583"
         x="19.865736"
         y="22.374325"
         sodipodi:role="line"
         id="tspan23">    mixing</tspan></text>
    <text
       xml:space="preserve"
       style="font-style:normal;font-variant:normal;font-weight:normal;font-stretch:normal;font-size:2.11667px;font-family:'Times New Roman';-inkscape-font-specification:'Times New Roman, ';text-align:start;letter-spacing:0px;writing-mode:lr-tb;direction:ltr;text-anchor:start;fill:#333333;stroke:#333333;stroke-width:0.264583"
       x="80.811272"
       y="42.1731"
       id="text2-7-36-0-2"
       inkscape:label="text2"><tspan
         style="font-style:normal;font-variant:normal;font-weight:normal;font-stretch:normal;font-size:2.11667px;font-family:'Times New Roman';-inkscape-font-specification:'Times New Roman, ';letter-spacing:0px;fill:#000000;stroke:none;stroke-width:0.264583"
         x="80.811272"
         y="42.1731"
         sodipodi:role="line"
         id="tspan23-3">b) shouldering</tspan></text>
    <text
       xml:space="preserve"
       style="font-style:normal;font-variant:normal;font-weight:normal;font-stretch:normal;font-size:2.11667px;font-family:'Times New Roman';-inkscape-font-specification:'Times New Roman, ';text-align:start;letter-spacing:0px;writing-mode:lr-tb;direction:ltr;text-anchor:start;fill:#333333;stroke:#333333;stroke-width:0.264583"
       x="5.650691"
       y="33.303055"
       id="text2-7-36-2"
       inkscape:label="text2"><tspan
         id="tspan2-6-1-6"
         style="font-style:normal;font-variant:normal;font-weight:normal;font-stretch:normal;font-size:2.11667px;font-family:'Times New Roman';-inkscape-font-specification:'Times New Roman, ';letter-spacing:0px;fill:#000000;stroke:none;stroke-width:0.264583"
         x="5.650691"
         y="33.303055"
         sodipodi:role="line">a) depth-limited</tspan><tspan
         style="font-style:normal;font-variant:normal;font-weight:normal;font-stretch:normal;font-size:2.11667px;font-family:'Times New Roman';-inkscape-font-specification:'Times New Roman, ';letter-spacing:0px;fill:#000000;stroke:none;stroke-width:0.264583"
         x="5.650691"
         y="35.948891"
         sodipodi:role="line"
         id="tspan24">    mixing</tspan></text>
    <text
       xml:space="preserve"
       style="font-style:normal;font-variant:normal;font-weight:normal;font-stretch:normal;font-size:2.11667px;font-family:'Times New Roman';-inkscape-font-specification:'Times New Roman, ';text-align:start;letter-spacing:0px;writing-mode:lr-tb;direction:ltr;text-anchor:start;fill:#333333;stroke:#333333;stroke-width:0.264583"
       x="55.599346"
       y="10.733254"
       id="text2-7-36-2-7"
       inkscape:label="text2"><tspan
         style="font-style:normal;font-variant:normal;font-weight:normal;font-stretch:normal;font-size:2.11667px;font-family:'Times New Roman';-inkscape-font-specification:'Times New Roman, ';letter-spacing:0px;fill:#000000;stroke:none;stroke-width:0.264583"
         x="55.599346"
         y="10.733254"
         sodipodi:role="line"
         id="tspan24-5">a) mounding /</tspan><tspan
         style="font-style:normal;font-variant:normal;font-weight:normal;font-stretch:normal;font-size:2.11667px;font-family:'Times New Roman';-inkscape-font-specification:'Times New Roman, ';letter-spacing:0px;fill:#000000;stroke:none;stroke-width:0.264583"
         x="55.599346"
         y="13.379092"
         sodipodi:role="line"
         id="tspan8">    burrowing</tspan></text>
    <text
       xml:space="preserve"
       style="font-style:normal;font-variant:normal;font-weight:normal;font-stretch:normal;font-size:2.82222px;font-family:'Times New Roman';-inkscape-font-specification:'Times New Roman, ';text-align:start;letter-spacing:0px;writing-mode:lr-tb;direction:ltr;text-anchor:start;fill:#333333;stroke:#333333;stroke-width:0.264583"
       x="53.506889"
       y="7.959569"
       id="text2-7-3"
       inkscape:label="text2"><tspan
         id="tspan2-6-2"
         style="font-style:normal;font-variant:normal;font-weight:normal;font-stretch:normal;font-size:2.82222px;font-family:'Times New Roman';-inkscape-font-specification:'Times New Roman, ';letter-spacing:0px;fill:#000000;stroke:none;stroke-width:0.264583"
         x="53.506889"
         y="7.959569"
         sodipodi:role="line">2)</tspan></text>
    <path
       style="fill:none;stroke:#000000;stroke-width:0.20715869;stroke-dasharray:1.24295214,1.24295214;marker-end:url(#ConcaveTriangle);stroke-dashoffset:0"
       d="M 5.3583755,23.595653 C 3.524694,26.769339 2.5117481,30.412677 2.4441712,34.077388 2.3740098,37.882256 3.324648,41.701199 5.1703623,45.029154"
       id="path6"
       inkscape:path-effect="#path-effect6"
       inkscape:original-d="M 5.3583755,23.595653 C 4.3243028,27.183572 3.384237,30.583476 2.4441712,34.077388 1.5041054,37.571299 4.2616318,41.4099 5.1703623,45.029154"
       transform="matrix(0.60709373,0,0,0.86707513,21.906733,4.8664437)"
       inkscape:label="path6" />
    <path
       style="fill:none;stroke:#000000;stroke-width:0.20715869;stroke-dasharray:1.24295214,1.24295214;marker-end:url(#ConcaveTriangle-9);stroke-dashoffset:0"
       d="M 5.3583755,23.595653 C 3.524694,26.769339 2.5117481,30.412677 2.4441712,34.077388 2.3740098,37.882256 3.324648,41.701199 5.1703623,45.029154"
       id="path6-5"
       inkscape:path-effect="#path-effect6-7"
       inkscape:original-d="M 5.3583755,23.595653 C 4.3243028,27.183572 3.384237,30.583476 2.4441712,34.077388 1.5041054,37.571299 4.2616318,41.4099 5.1703623,45.029154"
       transform="matrix(-0.60709373,0,0,-0.86707513,30.428784,65.228113)"
       inkscape:label="path6" />
    <path
       style="fill:none;stroke:#000000;stroke-width:0.24841782;stroke-dasharray:1.49050695,1.49050695;marker-end:url(#ConcaveTriangle-1);stroke-dashoffset:0"
       d="M 5.3583755,23.595653 C 3.524694,26.769339 2.5117481,30.412677 2.4441712,34.077388 2.3740098,37.882256 3.324648,41.701199 5.1703623,45.029154"
       id="path6-8"
       inkscape:path-effect="#path-effect6-3"
       inkscape:original-d="M 5.3583755,23.595653 C 4.3243028,27.183572 3.384237,30.583476 2.4441712,34.077388 1.5041054,37.571299 4.2616318,41.4099 5.1703623,45.029154"
       transform="matrix(0.61592321,0,0,0.26309219,8.8424484,17.693644)"
       inkscape:label="path6" />
    <path
       style="fill:none;stroke:#000000;stroke-width:0.24841782;stroke-dasharray:1.49050695,1.49050695;marker-end:url(#ConcaveTriangle-9-4);stroke-dashoffset:0"
       d="M 5.3583755,23.595653 C 3.524694,26.769339 2.5117481,30.412677 2.4441712,34.077388 2.3740098,37.882256 3.324648,41.701199 5.1703623,45.029154"
       id="path6-5-7"
       inkscape:path-effect="#path-effect6-7-1"
       inkscape:original-d="M 5.3583755,23.595653 C 4.3243028,27.183572 3.384237,30.583476 2.4441712,34.077388 1.5041054,37.571299 4.2616318,41.4099 5.1703623,45.029154"
       transform="matrix(-0.61592321,0,0,-0.26309219,16.924403,36.008877)"
       inkscape:label="path6" />
    <path
       style="fill:none;stroke:#000000;stroke-width:0.15;stroke-dasharray:none"
       d="m 94.807703,33.787852 c -0.238935,0.142073 -0.501476,0.150159 -0.756444,0.252148 -0.07035,0.02814 -0.116266,0.105259 -0.189114,0.126074 -0.08081,0.0231 -0.17241,-0.02658 -0.252147,0 -0.116235,0.03875 -0.201425,0.143608 -0.315185,0.189111 -0.09948,0.03979 -0.219353,0.01511 -0.315185,0.06304 -0.07973,0.03987 -0.114935,0.13966 -0.189111,0.189111 -0.125963,0.08398 -0.477549,0.158546 -0.63037,0.189111 -0.228145,0.04563 -0.52414,0 -0.756444,0 -0.672396,0 -1.344792,0 -2.017186,0 -0.366183,0 -0.719394,-0.02503 -1.071628,0.06304 -0.300167,0.07504 -1.155536,0 -1.51289,0 -0.271825,0 -0.843381,0.07608 -1.071629,0 -0.286446,-0.09548 -0.58342,-0.114337 -0.88252,-0.189111 -0.02037,-0.0051 -0.04202,0 -0.06304,0 -0.06304,0 -0.127956,0.01529 -0.189111,0 -0.109776,-0.02745 -0.207836,-0.09029 -0.315185,-0.126074 -0.1284,-0.0428 -0.796631,-0.02978 -0.945555,0 -0.163534,0.03271 -0.425646,0.104098 -0.567333,0.189111 -0.05096,0.03058 -0.07292,0.0995 -0.126074,0.126074 -0.03759,0.01879 -0.09004,-0.02162 -0.126074,0 -0.222334,0.222334 -0.109376,0.149243 -0.315187,0.252148 -0.170424,0.08521 -0.335161,0.167581 -0.504296,0.252148 -0.183544,0.09177 -0.477369,0.09915 -0.63037,0.252148 -0.04698,0.04698 0,0.1681 -0.06304,0.18911 -0.0598,0.01992 -0.12931,-0.01992 -0.189111,0 -0.01992,0.0066 0.01487,0.04818 0,0.06304 -0.153103,0.153107 -0.09256,-0.01873 -0.189111,0.126074 -0.02606,0.03909 -0.02545,0.09789 -0.06304,0.126074 -0.156175,0.117131 -0.40577,0.122899 -0.567332,0.252151 -0.03669,0.02935 -0.02981,0.09285 -0.06304,0.126074 -0.08664,0.08664 -0.221062,0.110672 -0.315185,0.189111 -0.357434,0.29786 -0.331222,0.23014 -0.756447,0.315185 -0.04607,0.0092 -0.08405,0.04202 -0.126074,0.06304 -0.08405,0.02101 -0.16669,0.04879 -0.252147,0.06304 -0.127969,0.02132 -0.323668,-0.04704 -0.441259,0 -0.05518,0.02207 -0.07662,0.09311 -0.126074,0.126074 -0.06994,0.04662 -0.169731,-0.01648 -0.252148,0 -0.03464,0.0069 -0.413359,0.116773 -0.441259,0.126074 -0.116536,0.03885 -0.09753,0.463851 -0.06304,0.567332 0.09411,0.282324 0.593958,0.0509 0.819481,0.126074 0.02819,0.0094 0.03484,0.05364 0.06304,0.06304 0.09756,0.03252 1.79443,0.04834 1.891112,0 0.143856,-0.07193 0.173656,-0.141935 0.315185,-0.189111 0.01992,-0.0066 0.04202,0 0.06304,0 0.08405,-0.02101 0.174656,-0.02429 0.252147,-0.06304 0.09397,-0.04698 0.09514,-0.205163 0.189111,-0.252148 0.05638,-0.02819 0.12931,0.01992 0.189111,0 0.01992,-0.0066 -0.01487,-0.04818 0,-0.06304 0.07731,-0.07731 0.475086,-0.190649 0.567333,-0.252148 0.04945,-0.03297 0.07662,-0.09311 0.126074,-0.126074 0.09896,-0.06597 0.258636,-0.06628 0.378222,-0.126074 0.05316,-0.02658 0.06969,-0.107281 0.126074,-0.126074 0.03987,-0.01328 0.102764,0.03497 0.126074,0 0.03497,-0.05245 -0.04457,-0.144537 0,-0.189111 0.04457,-0.04458 0.130585,0.02341 0.189111,0 0.05518,-0.02207 0.07663,-0.09311 0.126076,-0.126074 0.03496,-0.02331 0.09636,0.02972 0.126074,0 0.15739,-0.157393 0.128585,-0.203227 0.315185,-0.315185 0.09703,-0.05822 0.207836,-0.09029 0.315185,-0.126074 0.03987,-0.01328 0.112784,0.03987 0.126074,0 0.01992,-0.0598 -0.04457,-0.144539 0,-0.189114 0.04457,-0.04457 0.12931,0.01992 0.189111,0 0.07187,-0.02394 0.118769,-0.09793 0.189111,-0.126074 0.103738,-0.04149 0.274484,-0.02154 0.378222,-0.06304 0.07034,-0.02813 0.121348,-0.09219 0.189111,-0.126073 0.241493,-0.120746 1.676029,-0.06304 2.017186,-0.06304 0.253756,0 1.605147,-0.06396 1.765035,0 0.05518,0.02207 0.07292,0.0995 0.126077,0.126073 0.189878,0.09494 0.602837,-0.02408 0.81948,0 0.299398,0.03327 0.585574,0.08365 0.882518,0.126074 0.560692,0.0801 1.305105,0 1.891112,0 0.137581,0 0.31387,0.02125 0.441259,0 0.15707,-0.02617 0.30421,-0.19341 0.441259,-0.252147 0.213209,-0.09137 0.567703,-0.110591 0.756444,-0.252148 0.03759,-0.02819 0.02545,-0.09788 0.06304,-0.126074 0.154111,-0.115584 0.405701,-0.108294 0.567335,-0.189111 0.02658,-0.01328 0.03485,-0.05364 0.06304,-0.06304 0.03987,-0.01328 0.08849,0.01879 0.126074,0 0.05316,-0.02658 0.07662,-0.09311 0.126074,-0.126074 0.08371,-0.05581 0.315185,-0.171715 0.315185,0.06304"
       id="path11" />
    <path
       style="fill:none;stroke:#000000;stroke-width:0.15;stroke-dasharray:none;marker-end:url(#ConcaveTriangle-1)"
       d="M 78.228962,36.12022 V 34.04"
       id="path14" />
    <path
       style="fill:none;stroke:#000000;stroke-width:0.15;stroke-dasharray:none;marker-end:url(#ConcaveTriangle-1-7)"
       d="m 78.319416,38.832434 v 2.08022"
       id="path14-1" />
  </g>
  <path
     style="fill:none;stroke:#000000;stroke-width:0.15030017;stroke-dasharray:0.90180091,0.90180091;marker-end:url(#marker10);stroke-dashoffset:0"
     d="m 38.824721,24.535719 c 0.14101,0.470033 0.09401,11.56281 0.09401,11.56281"
     id="path9" />
  <path
     style="opacity:1;fill:url(#pattern8);fill-opacity:1;stroke:#000000;stroke-width:0.155305;stroke-dasharray:none;stroke-opacity:1"
     d="m 61.188932,23.502856 c 0,0.131269 -0.0143,0.26319 0,0.393808 0.0039,0.03651 0.04736,0.06227 0.05397,0.09846 0.02453,0.134135 0,0.303469 0,0.443033 0,0.451855 -0.05457,0.930307 0,1.378327 0.0064,0.05156 0.04881,0.096 0.05397,0.147679 0.01296,0.13073 -0.0312,0.265664 0,0.393808 0.0087,0.03581 0.08993,0.01641 0.107929,0.04923 0.06694,0.122116 0,0.743691 0,0.886066 0,0.539519 0.04225,1.097842 -0.05397,1.624458 -0.0373,0.204146 0.07138,0.723307 0,0.886068 -0.01889,0.04308 -0.07971,0.05983 -0.107929,0.09846 -0.149344,0.204341 0.04187,0.951852 -0.05397,1.08297 -0.02823,0.03861 -0.09184,0.05443 -0.107929,0.09846 -0.198729,0.128422 -0.01445,0.298882 -0.05397,0.443035 -0.04139,0.151018 -0.133838,0.289485 -0.161894,0.443033 -0.0088,0.04856 0.01707,0.100974 0,0.147675 -0.02049,0.05612 -0.08741,0.09155 -0.107929,0.147679 -0.05288,0.144724 -0.01798,0.344601 -0.05397,0.492261 -0.02103,0.08625 -0.08443,0.160405 -0.10793,0.24613 -0.03207,0.117 -0.01243,0.231086 -0.05397,0.344581 -0.03064,0.08382 -0.08443,0.160403 -0.107929,0.246132 -0.03054,0.111428 0.02071,0.231283 0,0.344578 -0.0066,0.03619 -0.04124,0.06365 -0.05397,0.09846 -0.09586,0.262341 0.08708,0.90342 0,1.181425 -0.0221,0.07056 -0.09215,0.124945 -0.10793,0.196901 -0.04317,0.19691 0,0.482739 0,0.689165 0,0.541486 0,1.08297 0,1.624457 0,0.658601 0.02553,1.316257 -0.05397,1.969039 -0.0095,0.07876 0.01598,0.350051 0,0.393808 -0.01269,0.0348 -0.08993,0.0164 -0.10793,0.04923 -0.05055,0.09221 0.01296,0.287861 0,0.393805 -0.01403,0.115312 -0.0434,0.228958 -0.05397,0.344583 -0.02455,0.268641 0.07047,0.988544 0,1.181422 -0.02049,0.05612 -0.08385,0.09275 -0.107929,0.147678 -0.0617,0.140697 0,0.658554 0,0.836844 0,0.334001 -0.06015,0.753756 0,1.082968 0.02644,0.144769 0.12661,0.271695 0.215858,0.39381 0.334295,0.457411 0.01777,-0.03303 0.269823,0.196903 0.02844,0.02594 0.02179,0.07643 0.05397,0.09846 0.04551,0.03113 0.111011,0.02604 0.161895,0.04923 0.05801,0.02644 0.10168,0.07647 0.161894,0.09846 0.05262,0.01921 0.418422,-0.04115 0.431717,-0.04923 0.03347,-0.02035 0.02554,-0.07251 0.05397,-0.09846 0.02843,-0.02594 0.08561,-0.01869 0.10793,-0.04923 0.01997,-0.02731 -0.01138,-0.06731 0,-0.09846 0.0081,-0.02202 0.04591,-0.02721 0.05397,-0.04923 0.03239,-0.08861 -0.03239,-0.206749 0,-0.295355 0.03064,-0.08382 0.08691,-0.159871 0.10793,-0.246131 0.0234,-0.09611 0,-0.196903 0,-0.295355 0,-0.24041 0.05772,-1.466483 0,-1.624458 -0.0081,-0.02201 -0.04593,-0.02721 -0.05397,-0.04923 -0.07035,-0.192545 -0.134297,-0.389313 -0.161894,-0.590709 -0.0184,-0.13427 0,-0.603593 0,-0.689165 0,-0.410215 0,-0.820433 0,-1.230648 0,-0.916246 -0.05669,-1.848275 0.05397,-2.756652 0.06713,-0.551091 -0.06713,-1.122593 0,-1.673684 0.0064,-0.05156 0.0446,-0.0965 0.05397,-0.147677 0.04312,-0.236032 -0.05693,-0.504711 0,-0.738391 0.02465,-0.101311 0.08033,-0.194677 0.107929,-0.295357 0.03995,-0.145782 0.0076,-0.414257 0.05397,-0.541483 0.02049,-0.05612 0.07194,-0.09846 0.107929,-0.147678 0.01798,-0.09846 0.02253,-0.199757 0.05397,-0.295356 0.05681,-0.172741 0.215515,-0.318869 0.269822,-0.49226 0.01483,-0.04733 -0.01053,-0.0994 0,-0.147679 0.0191,-0.08709 0.134649,-0.171574 0.161895,-0.246131 0.06387,-0.174814 -0.0844,-0.127065 0.05397,-0.295353 0.02414,-0.02935 0.08561,-0.01869 0.107929,-0.04923 0.01997,-0.02731 -0.007,-0.06628 0,-0.09846 0.03684,-0.167988 0.125064,-0.324277 0.161894,-0.492261 0.07299,-0.332924 -0.02109,-0.691328 0.05397,-1.033743 0.02231,-0.101767 0.08033,-0.194678 0.107929,-0.295358 0.03299,-0.120339 0,-0.32843 0,-0.443034 0,-0.344581 0,-0.689161 0,-1.033744 0,-0.689163 0,-1.378328 0,-2.06749 0,-0.336338 0.04072,-0.699487 0,-1.033746 -0.0064,-0.05156 -0.04462,-0.0965 -0.05397,-0.147677 -0.0088,-0.04856 0.01707,-0.100985 0,-0.147678 -0.02049,-0.05612 -0.08741,-0.09155 -0.107929,-0.147677 -0.06751,-0.184756 0,-0.918492 0,-1.181425"
     id="path24" />
  <path
     style="opacity:1;fill:none;fill-opacity:1;stroke:#000000;stroke-width:0.107472;stroke-dasharray:none"
     d="m 61.238667,23.511665 c -0.169026,-0.268097 -0.357682,-0.52346 -0.507072,-0.804292 -0.136022,-0.255708 -0.14186,-0.596842 -0.338046,-0.804295 -0.04455,-0.04711 -0.124472,-0.04227 -0.169022,-0.08937 -0.04455,-0.04711 -0.0321,-0.141788 -0.08452,-0.178732 -0.04688,-0.03304 -0.118634,0.02664 -0.169026,0 -0.0252,-0.01331 0.01991,-0.06831 0,-0.08937 -0.0813,-0.08598 -0.864576,-0.03163 -1.014138,0 -0.176194,0.03725 -0.3389,0.14317 -0.507066,0.178731 -0.08287,0.01752 -0.173361,-0.02826 -0.253536,0 -0.09635,0.03397 -0.162689,0.130707 -0.253536,0.178733 -0.0756,0.03997 -0.17336,-0.02826 -0.253533,0 -0.109868,0.03872 -0.437982,0.426611 -0.50707,0.536195 -0.116353,0.184558 0.06864,0.586555 0,0.804295 -0.124347,0.39448 -0.08452,-0.324682 -0.08452,0.268097"
     id="path26" />
  <path
     style="fill:none;fill-opacity:1;stroke:#000000;stroke-width:0.107472;stroke-dasharray:none"
     d="m 62.510643,23.533209 c 0.169026,-0.268097 0.357682,-0.52346 0.507072,-0.804292 0.136022,-0.255708 0.14186,-0.596842 0.338046,-0.804294 0.04455,-0.04711 0.124472,-0.04227 0.169022,-0.08937 0.04455,-0.04711 0.0321,-0.141789 0.08452,-0.178733 0.04688,-0.03304 0.118634,0.02664 0.169026,0 0.0252,-0.01331 -0.01991,-0.06831 0,-0.08937 0.0813,-0.08598 0.864575,-0.03163 1.014138,0 0.176194,0.03725 0.3389,0.14317 0.507066,0.178731 0.08287,0.01752 0.17336,-0.02825 0.253536,0 0.09635,0.03397 0.162688,0.130707 0.253536,0.178733 0.0756,0.03997 0.17336,-0.02826 0.253533,0 0.109868,0.03872 0.437982,0.426611 0.50707,0.536195 0.116352,0.184559 -0.06864,0.586555 0,0.804295 0.124347,0.39448 0.08452,-0.324682 0.08452,0.268097"
     id="path26-1" />
  <path
     style="fill:none;fill-opacity:1;stroke:#000000;stroke-width:0.1;stroke-dasharray:0.6, 0.6;stroke-dashoffset:0;marker-end:url(#ConcaveTriangle-9-4-4)"
     d="m 62.835742,22.55642 c 0.02685,-0.116362 0.05371,-0.232724 0.04475,-1.087557 -0.009,-0.854833 -0.05371,-2.448072 -0.322239,-3.392402 -0.268534,-0.94433 -0.760826,-1.239705 -1.100964,-0.78767 -0.340138,0.452036 -0.528105,1.651441 -0.716076,2.85087"
     id="path27-2"
     inkscape:path-effect="#path-effect28-3"
     inkscape:original-d="m 62.835742,22.55642 c 0.02685,-0.116363 0.0537,-0.232725 0.08056,-0.349088 -0.04476,-1.593302 -0.08951,-3.186541 -0.134265,-4.779813 -0.492313,-0.295387 -0.984605,-0.590763 -1.476907,-0.886145 -0.187973,1.199453 -0.375941,2.398858 -0.563912,3.598287"
     transform="matrix(-1.4810102,0,0,1.4517846,155.37773,-9.726011)" />
  <path
     style="fill:none;fill-opacity:1;stroke:#000000;stroke-width:0.1;stroke-dasharray:0.6, 0.6;stroke-dashoffset:0;marker-end:url(#ConcaveTriangle-9-4-4-8)"
     d="m 62.835742,22.55642 c 0.02685,-0.116362 0.05371,-0.232724 0.04475,-1.087557 -0.009,-0.854833 -0.05371,-2.448072 -0.322239,-3.392402 -0.268534,-0.94433 -0.760826,-1.239705 -1.100964,-0.78767 -0.340138,0.452036 -0.528105,1.651441 -0.716076,2.85087"
     id="path27-2-1"
     inkscape:path-effect="#path-effect28-3-7"
     inkscape:original-d="m 62.835742,22.55642 c 0.02685,-0.116363 0.0537,-0.232725 0.08056,-0.349088 -0.04476,-1.593302 -0.08951,-3.186541 -0.134265,-4.779813 -0.492313,-0.295387 -0.984605,-0.590763 -1.476907,-0.886145 -0.187973,1.199453 -0.375941,2.398858 -0.563912,3.598287"
     transform="matrix(1.4810102,0,0,1.4517846,-31.275356,-9.7234729)" />
  <rect
     style="opacity:1;fill:url(#pattern41);fill-opacity:1;stroke:none;stroke-width:0.1;stroke-dasharray:none;stroke-dashoffset:0"
     id="rect39"
     width="13.480146"
     height="4.2427549"
     x="32.921635"
     y="37.432915" />
</svg>
