<?xml version="1.0" encoding="UTF-8" standalone="no"?>
<!-- Created with Inkscape (http://www.inkscape.org/) -->

<svg
   width="270mm"
   height="220mm"
   viewBox="0 0 270 220"
   version="1.1"
   id="svg1"
   inkscape:version="1.4 (86a8ad7, 2024-10-11)"
   sodipodi:docname="frequency_etc.svg"
   inkscape:export-filename="frequency_etc.png"
   inkscape:export-xdpi="96"
   inkscape:export-ydpi="96"
   xmlns:inkscape="http://www.inkscape.org/namespaces/inkscape"
   xmlns:sodipodi="http://sodipodi.sourceforge.net/DTD/sodipodi-0.dtd"
   xmlns:xlink="http://www.w3.org/1999/xlink"
   xmlns="http://www.w3.org/2000/svg"
   xmlns:svg="http://www.w3.org/2000/svg">
  <sodipodi:namedview
     id="namedview1"
     pagecolor="#505050"
     bordercolor="#eeeeee"
     borderopacity="1"
     inkscape:showpageshadow="0"
     inkscape:pageopacity="0"
     inkscape:pagecheckerboard="0"
     inkscape:deskcolor="#505050"
     inkscape:document-units="mm"
     inkscape:zoom="1.1245696"
     inkscape:cx="533.09282"
     inkscape:cy="408.60075"
     inkscape:window-width="2256"
     inkscape:window-height="1398"
     inkscape:window-x="-11"
     inkscape:window-y="-11"
     inkscape:window-maximized="1"
     inkscape:current-layer="layer1" />
  <defs
     id="defs1">
    <inkscape:path-effect
       effect="bspline"
       id="path-effect59"
       is_visible="true"
       lpeversion="1.3"
       weight="33.333333"
       steps="2"
       helper_size="0"
       apply_no_weight="true"
       apply_with_weight="true"
       only_selected="false"
       uniform="false" />
    <pattern
       inkscape:collect="always"
       xlink:href="#pattern21"
       preserveAspectRatio="xMidYMid"
       id="pattern59"
       patternTransform="matrix(0.35355339,0.26059465,-0.35355339,0.44651213,-0.00395197,-7.8671183)" />
    <pattern
       inkscape:collect="always"
       xlink:href="#pattern57"
       preserveAspectRatio="xMidYMid"
       id="pattern58"
       patternTransform="matrix(0.36776796,0.35355339,-0.36776796,0.35355339,-2.1277406,-1.2740985)"
       x="0"
       y="0" />
    <pattern
       inkscape:collect="always"
       patternUnits="userSpaceOnUse"
       width="4"
       height="1"
       patternTransform="translate(0,0) scale(2,2)"
       preserveAspectRatio="xMidYMid"
       id="pattern57"
       style="fill:#000000"
       inkscape:stockid="Stripes 04 (1:3)"
       inkscape:isstock="true"
       inkscape:label="Stripes 04 (1:3)">
      <rect
   style="stroke:none"
   x="0"
   y="-0.5"
   width="1"
   height="2"
   id="rect56" />

    </pattern>
    <pattern
       inkscape:collect="always"
       xlink:href="#pattern50"
       preserveAspectRatio="xMidYMid"
       id="pattern51"
       patternTransform="matrix(0.35355339,-0.35355339,0.35355339,0.35355339,21.467239,-38.738417)"
       x="0"
       y="0" />
    <pattern
       inkscape:collect="always"
       patternUnits="userSpaceOnUse"
       width="4"
       height="1"
       patternTransform="translate(0,0) scale(2,2)"
       preserveAspectRatio="xMidYMid"
       id="pattern50"
       style="fill:#000000"
       inkscape:stockid="Stripes 04 (1:3)"
       inkscape:isstock="true"
       inkscape:label="Stripes 04 (1:3)">
      <rect
   style="stroke:none"
   x="0"
   y="-0.5"
   width="1"
   height="2"
   id="rect49" />

    </pattern>
    <inkscape:path-effect
       effect="bspline"
       id="path-effect47"
       is_visible="true"
       lpeversion="1.3"
       weight="33.333333"
       steps="2"
       helper_size="0"
       apply_no_weight="true"
       apply_with_weight="true"
       only_selected="false"
       uniform="false" />
    <pattern
       inkscape:collect="always"
       xlink:href="#pattern21"
       preserveAspectRatio="xMidYMid"
       id="pattern47"
       patternTransform="matrix(0.35355339,0.25229496,-0.35355339,0.45481182,3.5554174,-7.8161197)" />
    <inkscape:path-effect
       effect="bspline"
       id="path-effect42"
       is_visible="true"
       lpeversion="1.3"
       weight="33.333333"
       steps="2"
       helper_size="0"
       apply_no_weight="true"
       apply_with_weight="true"
       only_selected="false"
       uniform="false" />
    <inkscape:perspective
       sodipodi:type="inkscape:persp3d"
       inkscape:vp_x="0 : 70.000004 : 1"
       inkscape:vp_y="0 : 1000 : 0"
       inkscape:vp_z="300.00001 : 70.000004 : 1"
       inkscape:persp3d-origin="150.00001 : 20.000001 : 1"
       id="perspective23" />
    <pattern
       inkscape:collect="always"
       xlink:href="#Strips1_3"
       preserveAspectRatio="xMidYMid"
       id="pattern21"
       patternTransform="matrix(0.35355339,0.35355339,-0.35355339,0.35355339,0,0)"
       x="0"
       y="0" />
    <inkscape:path-effect
       effect="bspline"
       id="path-effect20"
       is_visible="true"
       lpeversion="1.3"
       weight="33.333333"
       steps="2"
       helper_size="0"
       apply_no_weight="true"
       apply_with_weight="true"
       only_selected="false"
       uniform="false" />
    <pattern
       inkscape:collect="always"
       xlink:href="#Strips1_3"
       preserveAspectRatio="xMidYMid"
       id="pattern20"
       patternTransform="matrix(0.34604814,0.26991718,-0.36090259,0.44093919,5.7455023,-14.13348)"
       x="0"
       y="0" />
    <pattern
       inkscape:collect="always"
       xlink:href="#Strips1_3"
       preserveAspectRatio="xMidYMid"
       id="pattern19"
       patternTransform="matrix(0.32789292,0.29126157,-0.37747348,0.42714091,13.916672,-19.171605)"
       x="0"
       y="0" />
    <inkscape:path-effect
       effect="bspline"
       id="path-effect15"
       is_visible="true"
       lpeversion="1.3"
       weight="33.333333"
       steps="2"
       helper_size="0"
       apply_no_weight="true"
       apply_with_weight="true"
       only_selected="false"
       uniform="false" />
    <pattern
       inkscape:collect="always"
       xlink:href="#Strips1_3"
       preserveAspectRatio="xMidYMid"
       id="pattern15"
       patternTransform="scale(2)" />
    <rect
       x="63.118961"
       y="28.815178"
       width="423.99475"
       height="62.432884"
       id="rect14" />
    <pattern
       inkscape:collect="always"
       xlink:href="#Strips1_3"
       preserveAspectRatio="xMidYMid"
       id="pattern14"
       patternTransform="matrix(0.46992791,-0.17078567,0.17078567,0.46992791,36.896334,-22.299705)"
       x="0"
       y="0" />
    <pattern
       inkscape:collect="always"
       xlink:href="#Strips1_3"
       preserveAspectRatio="xMidYMid"
       id="pattern13"
       patternTransform="matrix(0.46992791,-0.17078567,0.17078567,0.46992791,36.22752,-23.012636)"
       x="0"
       y="0" />
    <pattern
       inkscape:collect="always"
       xlink:href="#Strips1_3"
       preserveAspectRatio="xMidYMid"
       id="pattern12"
       patternTransform="matrix(0.46992791,-0.17078567,0.17078567,0.46992791,35.701404,-24.460281)"
       x="0"
       y="0" />
    <pattern
       inkscape:collect="always"
       patternUnits="userSpaceOnUse"
       width="4"
       height="1"
       patternTransform="translate(0,0) scale(2,2)"
       preserveAspectRatio="xMidYMid"
       id="Strips1_3"
       style="fill:#000000"
       inkscape:stockid="Stripes 04 (1:3)"
       inkscape:isstock="true"
       inkscape:label="Stripes 04 (1:3)">
      <rect
   style="stroke:none"
   x="0"
   y="-0.5"
   width="1"
   height="2"
   id="rect152" />

    </pattern>
    <rect
       x="63.118961"
       y="28.815178"
       width="423.99475"
       height="62.432884"
       id="rect41" />
    <pattern
       inkscape:collect="always"
       xlink:href="#pattern21-2"
       preserveAspectRatio="xMidYMid"
       id="pattern47-4"
       patternTransform="matrix(0.35355339,0.25229496,-0.35355339,0.45481182,-32.968142,2.4056541)" />
    <pattern
       inkscape:collect="always"
       xlink:href="#Strips1_3-7"
       preserveAspectRatio="xMidYMid"
       id="pattern21-2"
       patternTransform="matrix(0.35355339,0.35355339,-0.35355339,0.35355339,0,0)"
       x="0"
       y="0" />
    <pattern
       inkscape:collect="always"
       patternUnits="userSpaceOnUse"
       width="4"
       height="1"
       patternTransform="translate(0,0) scale(2,2)"
       preserveAspectRatio="xMidYMid"
       id="Strips1_3-7"
       style="fill:#000000"
       inkscape:stockid="Stripes 04 (1:3)"
       inkscape:isstock="true"
       inkscape:label="Stripes 04 (1:3)">
      <rect
   style="stroke:none"
   x="0"
   y="-0.5"
   width="1"
   height="2"
   id="rect152-7" />

    </pattern>
    <pattern
       inkscape:collect="always"
       xlink:href="#pattern21-2-6"
       preserveAspectRatio="xMidYMid"
       id="pattern47-4-8"
       patternTransform="matrix(0.35355339,0.25229496,-0.35355339,0.45481182,34.704719,-16.963906)" />
    <pattern
       inkscape:collect="always"
       xlink:href="#Strips1_3-7-5"
       preserveAspectRatio="xMidYMid"
       id="pattern21-2-6"
       patternTransform="matrix(0.35355339,0.35355339,-0.35355339,0.35355339,0,0)"
       x="0"
       y="0" />
    <pattern
       inkscape:collect="always"
       patternUnits="userSpaceOnUse"
       width="4"
       height="1"
       patternTransform="translate(0,0) scale(2,2)"
       preserveAspectRatio="xMidYMid"
       id="Strips1_3-7-5"
       style="fill:#000000"
       inkscape:stockid="Stripes 04 (1:3)"
       inkscape:isstock="true"
       inkscape:label="Stripes 04 (1:3)">
      <rect
   style="stroke:none"
   x="0"
   y="-0.5"
   width="1"
   height="2"
   id="rect152-7-0" />

    </pattern>
  </defs>
  <g
     inkscape:label="Layer 1"
     inkscape:groupmode="layer"
     id="layer1">
    <rect
       style="fill:#ffffff;stroke:#ffffff;stroke-width:0.296444;stroke-dasharray:none"
       id="rect1"
       width="269.70355"
       height="219.70355"
       x="0.14822176"
       y="0.14822176" />
  </g>
  <g
     inkscape:groupmode="layer"
     id="layer2"
     inkscape:label="stuff">
    <circle
       style="fill:#ffffff;stroke:#000000;stroke-width:0.4;stroke-dasharray:none"
       id="path1"
       cx="93.090454"
       cy="33.822025"
       transform="rotate(25.027362)"
       r="49.850334" />
    <path
       style="fill:#ffffff;stroke:#000000;stroke-width:0.499999;stroke-dasharray:none"
       d="m 71.412267,65.890289 c -0.08377,-0.01626 -0.235051,-0.132572 -0.25132,-0.04879 -0.01626,0.08377 0.334221,0.06905 0.25132,0.04879 -0.185377,-0.04526 -0.37434,-0.0754 -0.558894,-0.123898 -0.21091,-0.0554 -0.369712,-0.181113 -0.588888,-0.206421 -0.294978,-0.03409 -0.420478,0.180941 -0.63025,0.322482 -0.04852,0.03274 -0.116539,0.02725 -0.165062,0.05999 -0.258957,0.174726 -0.04704,0.08185 -0.187601,0.255043 -0.02916,0.03593 -0.08137,0.04897 -0.108793,0.08626 -0.08417,0.114441 -0.0997,0.27939 -0.183878,0.393834 -0.076,0.103343 -0.162733,0.126992 -0.187601,0.255044 -0.09202,0.473776 -0.290715,1.237375 0.20977,1.605521 0.100033,0.0736 0.225049,0.105073 0.337574,0.157612 0.895518,0.418105 1.873021,0.449837 2.74958,-0.01826 0.09128,-0.04875 0.215413,-0.01 0.303855,-0.06371 0.03538,-0.02149 0.02405,-0.08248 0.05254,-0.112524 0.02017,-0.02123 0.0596,-0.01181 0.08253,-0.03 0.108919,-0.08635 0.07539,-0.257506 0.101352,-0.363839 0.01471,-0.06032 0.06407,-0.108469 0.07881,-0.168786 0.07463,-0.305734 -0.09591,-0.688495 -0.247404,-0.937826 -0.08903,-0.146521 0.03914,-0.02087 -0.03372,-0.221323 -0.04245,-0.116794 -1.018872,-0.885508 -1.023898,-0.889205 z"
       id="path5" />
    <path
       style="fill:#ffffff;stroke:#000000;stroke-width:0.499999;stroke-dasharray:none"
       d="m 51.209287,40.917636 c -0.08377,-0.01626 -0.235051,-0.132573 -0.25132,-0.04879 -0.01626,0.08377 0.334221,0.06905 0.25132,0.04879 -0.185376,-0.04526 -0.374339,-0.0754 -0.558893,-0.123898 -0.210909,-0.05542 -0.369711,-0.181112 -0.588888,-0.206421 -0.294979,-0.03409 -0.420479,0.180941 -0.63025,0.322481 -0.04852,0.03275 -0.116541,0.02725 -0.165063,0.05999 -0.258956,0.174725 -0.04704,0.08185 -0.187601,0.255043 -0.02916,0.03593 -0.08137,0.04897 -0.108794,0.08626 -0.08417,0.114442 -0.0997,0.27939 -0.183878,0.393835 -0.076,0.103343 -0.162732,0.12699 -0.1876,0.255041 -0.09202,0.473777 -0.290715,1.237377 0.209769,1.605523 0.100033,0.0736 0.22505,0.105073 0.337574,0.15761 0.895517,0.418107 1.873021,0.44984 2.749581,-0.01826 0.09128,-0.04874 0.215412,-0.01 0.303854,-0.06371 0.03538,-0.02149 0.02405,-0.08248 0.05254,-0.112524 0.02017,-0.02122 0.05959,-0.01181 0.08253,-0.03 0.108919,-0.08635 0.07539,-0.257505 0.101352,-0.363837 0.01472,-0.06033 0.06408,-0.10847 0.07881,-0.168788 0.07463,-0.305735 -0.09591,-0.688495 -0.247403,-0.937827 -0.08903,-0.146519 0.03914,-0.02086 -0.03372,-0.221322 -0.04244,-0.116784 -1.018869,-0.885499 -1.023895,-0.889196 z"
       id="path5-8" />
    <path
       style="fill:url(#pattern14);fill-opacity:1;stroke:#000000;stroke-width:0.499999;stroke-dasharray:none"
       d="m 45.088627,60.69316 c -0.120038,0.01249 -0.23945,0.03969 -0.360115,0.03745 -0.170645,-0.0032 -0.333086,-0.07802 -0.502632,-0.09761 -0.304269,-0.03516 -0.616131,-0.0421 -0.919014,-0.08644 -0.460935,-0.06746 -0.146445,-0.10383 -0.585162,-0.06764 -0.716653,0.05914 -1.46508,0.304927 -2.093252,0.667318 -0.653022,0.376727 0.02847,0.01661 -0.543993,0.431279 -0.08382,0.06071 -0.198383,0.07544 -0.273858,0.146247 -0.443207,0.415778 -0.822943,1.422701 -0.806863,2.02171 0.0088,0.329196 0.105276,1.015345 0.20232,1.327937 0.162768,0.524316 0.517632,1.004442 0.734945,1.508086 0.143253,0.332008 0.178136,0.67778 0.277397,1.020357 0.0326,0.112456 0.102345,0.214376 0.119976,0.330123 0.05581,0.36633 -0.08964,0.877901 -0.33031,1.147787 -0.394905,0.442816 -0.895995,0.636786 -1.391838,0.926273 -0.144102,0.08414 -0.263597,0.206757 -0.408925,0.288761 -0.49413,0.278825 -1.035296,0.398302 -1.568076,0.569885 -0.815673,0.262694 -1.624444,0.486091 -2.453367,0.704764 -0.684679,0.180621 -1.272691,0.483484 -1.924467,0.746125 -0.736489,0.296778 -1.495674,0.509905 -2.228318,0.809836 -0.559146,0.228903 -2.147743,0.761946 -2.494724,1.233664 -0.1586,0.215617 -0.352228,0.641163 -0.420293,0.900195 -0.108654,0.41354 -0.107678,0.885878 -0.131532,1.30912 -0.05697,1.010635 0.03986,2.014665 0.0257,3.027166 -0.01062,0.760785 -0.06868,0.545797 -0.049,1.279124 0.04306,1.603875 0.357843,3.307332 1.154484,4.719133 0.572826,1.01515 1.470943,1.853495 2.34773,2.603711 0.598499,0.5121 1.186482,1.041272 1.845287,1.478284 1.448643,0.960947 3.381858,1.790264 5.059865,2.225347 0.830893,0.215436 1.669467,0.339965 2.513169,0.488102 0.252168,0.04427 0.500002,0.113973 0.753949,0.146434 0.285972,0.03651 0.576373,0.02708 0.862752,0.06015 0.895381,0.103489 0.81567,0.178089 1.672958,0.232884 0.518029,0.03313 1.038081,0.01974 1.556708,0.04156 0.778884,0.03274 1.612233,0.110933 2.389469,0.01919 0.23436,-0.02766 0.457389,-0.119071 0.690236,-0.157422 0.918976,-0.151362 0.520078,0.02965 1.410468,-0.232311 0.845615,-0.248821 1.734105,-0.657924 2.498452,-1.094876 0.339031,-0.193809 0.68276,-0.387685 0.982913,-0.637513 0.635296,-0.528772 1.18717,-1.420146 1.440835,-2.205399 0.05246,-0.162411 0.05518,-0.337322 0.09762,-0.502633 0.04151,-0.16162 0.124632,-0.312082 0.153885,-0.476365 0.03685,-0.206764 7.5e-4,-0.844618 1.84e-4,-1.027807 -6.13e-4,-0.203846 0.03612,-0.4091 0.01135,-0.611435 -0.02318,-0.189405 -0.116545,-0.364271 -0.153695,-0.551442 -0.03802,-0.191525 -0.04745,-0.387628 -0.07116,-0.581438 -0.06123,-0.211327 -0.136528,-0.419074 -0.183691,-0.633975 -0.343971,-1.567335 0.140443,0.201139 -0.228585,-1.271676 -0.153898,-0.614214 -0.401921,-1.237888 -0.659868,-1.815664 -0.584338,-1.308862 -1.38741,-2.496627 -1.743563,-3.897742 -0.01095,-0.04319 -0.205725,-0.765883 -0.217409,-0.8553 -0.162561,-1.244194 0.593844,-2.336999 1.159713,-3.364548 0.291448,-0.529235 0.498348,-1.096714 0.705517,-1.657869 0.145888,-0.395159 0.312024,-0.712955 0.330311,-1.147785 0.04624,-1.099851 -0.640689,-2.706199 -1.263472,-3.605067 -0.591239,-0.853338 0.04271,0.164528 -0.461277,-0.626524 -0.16039,-0.251748 -0.294997,-0.519948 -0.464998,-0.765315 -0.38771,-0.559586 -0.89161,-1.020591 -1.346379,-1.519453 -0.09354,-0.102606 -0.157989,-0.230888 -0.258767,-0.326395 -0.269792,-0.255684 -0.621607,-0.455447 -0.907645,-0.697877 -0.50403,-0.42718 -1.041649,-0.899542 -1.616513,-1.234415 -0.196725,-0.114594 -0.424485,-0.170442 -0.618883,-0.28895 -0.346692,-0.211354 -0.03953,-0.143663 -0.48009,-0.292674 -0.156854,-0.05306 -0.82739,-0.115387 -0.836481,-0.116437 z"
       id="path6" />
    <path
       style="fill:url(#pattern12);fill-opacity:1;stroke:#000000;stroke-width:0.499999;stroke-dasharray:none"
       d="m 99.635791,56.853367 c -0.434682,0.04894 -0.871228,-0.04587 -1.305396,0.0073 -0.102724,0.01257 -0.20062,0.05645 -0.303852,0.06371 -0.363729,0.02561 -0.682897,-0.07894 -1.031537,-0.138973 -0.530327,-0.09129 -1.108116,-0.0062 -1.639241,-0.01155 -0.130898,-0.0013 -0.25946,-0.05327 -0.390108,-0.04509 -0.132267,0.0083 -0.256291,0.06842 -0.386383,0.09371 -0.264905,0.05148 -0.544154,0.02776 -0.802761,0.104883 -0.126999,0.03788 -0.231831,0.130972 -0.356391,0.176239 -1.192988,0.28933 0.281842,-0.102431 -0.66024,0.239951 -0.330334,0.120054 -0.638925,0.17238 -0.934101,0.386196 -1.156875,0.837991 -1.892715,2.089381 -2.577634,3.319279 -0.07048,0.126579 -0.113387,0.267257 -0.183875,0.393834 -0.344663,0.618909 -0.724729,1.114378 -0.979376,1.804115 -0.158638,0.429697 -0.163332,0.874523 -0.270322,1.312844 -0.311649,1.276727 -0.259831,2.607242 -0.03447,3.889913 0.15461,0.880027 0.01928,-0.126242 0.243676,0.799038 0.02845,0.117285 0.0089,0.242828 0.03745,0.360113 0.03449,0.142232 0.113913,0.270811 0.149968,0.412653 0.03676,0.14465 0.03066,0.297993 0.06744,0.442647 0.117116,0.460733 0.40192,0.848828 0.562436,1.290489 0.155065,0.42668 0.24473,0.872439 0.42364,1.294217 0.108734,0.256347 0.202775,0.519438 0.326206,0.769042 0.573228,1.159181 -0.176688,-0.630766 0.378747,0.656517 0.155264,0.359843 0.166439,0.70529 0.251128,1.076619 0.02603,0.114152 0.09394,0.215971 0.119973,0.33012 0.05367,0.235329 0.04993,0.480155 0.0749,0.720232 0.143032,1.37554 -0.236113,2.497113 -0.900947,3.690945 -0.213079,0.382634 -0.507331,0.720068 -0.720418,1.1027 -0.301088,0.540661 -0.794694,1.600934 -0.829404,2.216767 -0.0342,0.607324 0.226629,1.259737 0.547344,1.76313 0.419323,0.658171 1.133535,1.325454 1.796473,1.729598 0.159047,0.09697 0.342489,0.147838 0.506359,0.236413 0.146795,0.07935 0.277035,0.187065 0.423831,0.266407 1.225903,0.66267 3.176113,1.26082 4.564869,1.377498 0.203124,0.01706 0.408023,-0.002 0.611433,0.01135 0.827336,0.05462 0.347653,0.101782 1.196599,0.079 0.213002,-0.0057 0.424608,-0.04425 0.637696,-0.0449 0.176839,-5.63e-4 0.352134,0.04606 0.5289,0.04138 0.195183,-0.0052 0.386736,-0.05643 0.581425,-0.07117 0.54344,-0.04115 1.073272,-0.06506 1.605522,-0.20977 0.75501,-0.205256 0.23693,-0.132822 0.9341,-0.386194 0.15194,-0.05522 0.317,-0.06849 0.46893,-0.123701 0.43568,-0.158339 0.96473,-0.407833 1.34301,-0.674963 0.51245,-0.361849 0.98138,-0.86609 1.38068,-1.342648 0.74062,-0.883934 1.33197,-1.829991 1.53099,-2.985621 0.0414,-0.238677 0.0359,-0.48331 0.0639,-0.72395 0.0472,-0.408726 0.10101,-0.842322 0.10531,-1.25285 0.004,-0.366532 -0.0315,-0.740764 -0.0298,-1.110343 0.003,-0.667145 0.0852,-1.338026 0.11285,-2.003086 0.0333,-0.794708 0.0757,-1.470636 0.35678,-2.231853 0.21558,-0.583959 0.53589,-1.253216 0.8406,-1.800386 0.14235,-0.25575 0.33786,-0.479407 0.48027,-0.735133 0.28254,-0.507299 0.56284,-1.017094 0.84804,-1.522803 0.35793,-0.634516 0.84549,-1.200004 1.20068,-1.837835 0.0704,-0.126593 0.11361,-0.267086 0.18389,-0.393834 0.37271,-0.676788 0.80539,-1.299983 1.08446,-2.02916 0.4063,-1.06172 0.63712,-2.224436 0.74333,-3.353375 0.0145,-0.156973 -0.003,-0.316066 0.015,-0.472651 0.0195,-0.169578 0.078,-0.333084 0.0976,-0.502638 0.0498,-0.4302 -0.003,-0.537043 -0.0265,-0.971543 -0.0841,-1.582058 -0.3014,-2.972641 -1.30836,-4.242765 -0.16111,-0.203218 -0.27794,-0.443111 -0.46129,-0.626524 -0.0889,-0.08904 -0.21212,-0.136329 -0.31129,-0.213867 -0.4272,-0.334037 -0.85733,-0.692835 -1.33147,-0.964283 -0.68468,-0.391979 -1.47863,-0.717277 -2.22048,-0.968199 -0.16169,-0.05469 -0.3351,-0.06509 -0.50264,-0.09761 -0.75419,-0.146471 -1.25489,-0.154665 -1.99936,0.02589 -0.27083,0.06568 -0.67007,0.185462 -0.90784,0.329934 -0.0395,0.02405 -0.0654,0.07044 -0.10876,0.08626 -0.0436,0.01582 -0.0953,-0.01209 -0.13879,0.0037 -0.17706,0.06434 -0.3051,0.241873 -0.43519,0.345024 -0.0115,0.0089 -0.34312,0.171416 -0.3564,0.176238 -0.0435,0.01582 -0.0953,-0.0121 -0.13879,0.0037 -0.11344,0.04123 -0.19195,0.14901 -0.30013,0.202506 -0.76848,0.380018 -1.70104,0.484068 -2.54335,0.457173 z"
       id="path7" />
    <path
       style="fill:url(#pattern13);fill-opacity:1;stroke:#000000;stroke-width:0.499999;stroke-dasharray:none"
       d="m 86.205054,30.884133 c -0.339939,-0.275288 -0.578783,-0.652803 -0.921352,-0.924779 -0.08106,-0.06435 -0.181012,-0.103295 -0.258645,-0.171723 -0.273521,-0.241121 -0.423059,-0.54185 -0.624974,-0.832338 -0.307138,-0.441871 -0.773344,-0.793661 -1.142258,-1.175797 -0.09091,-0.09418 -0.144155,-0.222208 -0.241678,-0.309528 -0.09873,-0.08841 -0.228611,-0.13455 -0.337931,-0.20947 -0.222596,-0.152564 -0.401683,-0.368137 -0.638121,-0.498222 -0.116099,-0.06392 -0.256006,-0.07321 -0.375669,-0.130181 -1.043388,-0.646742 0.270783,0.128849 -0.634315,-0.301894 -0.317363,-0.151043 -0.571214,-0.334148 -0.930688,-0.394346 -1.408871,-0.235941 -2.816724,0.118166 -4.173525,0.493474 -0.139635,0.03863 -0.269955,0.1068 -0.40959,0.145427 -0.682769,0.188861 -1.302455,0.265867 -1.972498,0.568562 -0.417429,0.188573 -0.737584,0.497431 -1.124905,0.728851 -1.128184,0.674062 -2.039583,1.644786 -2.79511,2.705546 -0.51836,0.727772 0.103458,-0.07488 -0.398162,0.734372 -0.06359,0.102577 -0.16666,0.176837 -0.230236,0.27942 -0.07711,0.124397 -0.112964,0.271207 -0.188729,0.396425 -0.07724,0.127715 -0.190742,0.230996 -0.267984,0.358706 -0.245999,0.406788 -0.322565,0.882045 -0.524515,1.306362 -0.195134,0.409907 -0.449705,0.786644 -0.624584,1.21011 -0.106291,0.257368 -0.227713,0.508999 -0.318872,0.772112 -0.42341,1.221889 0.325305,-0.568562 -0.201841,0.730562 -0.147361,0.363152 -0.385592,0.613561 -0.59066,0.934503 -0.06305,0.09866 -0.08791,0.218496 -0.150947,0.317158 -0.129961,0.203396 -0.306989,0.372558 -0.460482,0.558835 -0.879458,1.067297 -1.944493,1.584385 -3.261504,1.948685 -0.422112,0.116764 -0.868997,0.143983 -1.29111,0.260741 -0.596448,0.164985 -1.698148,0.557518 -2.161187,0.965006 -0.456641,0.401861 -0.738297,1.045572 -0.871788,1.62733 -0.174537,0.760629 -0.1486,1.737714 0.02879,2.49359 0.04255,0.181352 0.13506,0.347727 0.186979,0.526621 0.0465,0.16026 0.06118,0.328631 0.107692,0.488885 0.388346,1.338341 1.331004,3.147351 2.222577,4.218498 0.130405,0.156667 0.287838,0.2892 0.421031,0.44352 0.541754,0.627669 0.171495,0.319077 0.783552,0.907813 0.153575,0.147719 0.329529,0.271405 0.479546,0.422743 0.124499,0.125592 0.214295,0.283192 0.341745,0.405783 0.140718,0.135362 0.311619,0.235879 0.458766,0.364226 0.410718,0.358225 0.799601,0.718853 1.276248,0.996442 0.676102,0.393757 0.260899,0.07555 0.930692,0.394347 0.14596,0.06947 0.271258,0.177735 0.417222,0.247197 0.418587,0.199186 0.967611,0.400989 1.423387,0.482967 0.617408,0.111061 1.305712,0.09115 1.925423,0.04116 1.149459,-0.0928 2.238397,-0.335554 3.201277,-1.00485 0.198936,-0.138228 0.369599,-0.313492 0.560545,-0.462583 0.324303,-0.253212 0.670954,-0.519167 0.966331,-0.804322 0.263715,-0.254589 0.505612,-0.542288 0.770013,-0.800517 0.477294,-0.466132 1.012751,-0.878593 1.506099,-1.325426 0.589548,-0.53395 1.100737,-0.978204 1.840219,-1.312271 0.567281,-0.256276 1.268818,-0.497826 1.872432,-0.664812 0.282093,-0.07809 0.578626,-0.09579 0.860741,-0.173823 0.559665,-0.15478 1.119527,-0.312917 1.679926,-0.464687 0.703203,-0.190357 1.448209,-0.239936 2.151848,-0.434573 0.139633,-0.03865 0.270022,-0.106487 0.409595,-0.145428 0.74368,-0.209502 1.491277,-0.338674 2.206551,-0.651657 1.041464,-0.455728 2.031713,-1.107341 2.910422,-1.824035 0.12216,-0.09961 0.22303,-0.223961 0.347269,-0.320972 0.134517,-0.105063 0.292035,-0.178181 0.426558,-0.283224 0.34134,-0.266521 0.380466,-0.379026 0.673758,-0.700456 1.067887,-1.170304 1.905977,-2.301019 2.104001,-3.909735 0.03173,-0.257388 0.120581,-0.508978 0.122508,-0.768311 9.7e-4,-0.125896 -0.05176,-0.246784 -0.06614,-0.371852 -0.06189,-0.538754 -0.108173,-1.096961 -0.247593,-1.62523 -0.201314,-0.762829 -0.526827,-1.556697 -0.86875,-2.261251 -0.07452,-0.153554 -0.188821,-0.284371 -0.283231,-0.426558 -0.424973,-0.640027 -0.770549,-1.002436 -1.421674,-1.406035 -0.236869,-0.146823 -0.602386,-0.347144 -0.872163,-0.41515 -0.04488,-0.01128 -0.09603,0.003 -0.137803,-0.01694 -0.0418,-0.0199 -0.05828,-0.07637 -0.100068,-0.09625 -0.170105,-0.08096 -0.386414,-0.04756 -0.551206,-0.06785 -0.01427,-0.0017 -0.362919,-0.124115 -0.375669,-0.130182 -0.0418,-0.01988 -0.05828,-0.07637 -0.100068,-0.09624 -0.108977,-0.05186 -0.24086,-0.03217 -0.354896,-0.07166 -0.810049,-0.280697 -1.538678,-0.871969 -2.110687,-1.49085 z"
       id="path7-5" />
    <path
       style="fill:#ffffff;stroke:#000000;stroke-width:0.499999;stroke-dasharray:none"
       d="m 74.508161,98.129561 c -0.192948,-0.38133 -0.569005,-0.471242 -0.933912,-0.641612 -0.526774,-0.245945 -1.090665,-0.432607 -1.676688,-0.371671 -0.395432,0.04112 -0.580464,0.460361 -0.757861,0.742587 -0.04541,0.07226 -0.125232,0.121455 -0.161335,0.198782 -0.07566,0.162058 -0.185595,0.89213 -0.165278,1.087793 0.01686,0.16206 0.188138,0.430902 0.292488,0.547716 0.58109,0.650504 1.397576,1.039234 2.273026,0.855674 0.127491,-0.0268 0.271429,-0.003 0.386384,-0.0937 0.03245,-0.0256 0.02646,-0.0804 0.05254,-0.11251 0.123758,-0.1525 0.281555,-0.27522 0.4052,-0.427565 0.207637,-0.255833 0.224916,-0.655306 0.307766,-0.952731 0.01666,-0.05981 0.08047,-0.106718 0.07881,-0.168788 -0.006,-0.223796 -0.06745,-0.442646 -0.101158,-0.663966 z"
       id="path8" />
    <text
       xml:space="preserve"
       transform="scale(0.26458333)"
       id="text14"
       style="font-size:24px;font-family:'Times New Roman';-inkscape-font-specification:'Times New Roman, ';text-align:center;letter-spacing:0px;writing-mode:lr-tb;direction:ltr;white-space:pre;shape-inside:url(#rect14);display:inline;fill:url(#pattern15);fill-opacity:1;stroke:#000000;stroke-width:0.377953;stroke-dasharray:none" />
    <text
       xml:space="preserve"
       style="font-size:6.35px;font-family:'Times New Roman';-inkscape-font-specification:'Times New Roman, ';text-align:center;letter-spacing:0px;writing-mode:lr-tb;direction:ltr;text-anchor:middle;fill:#ffffff;stroke:#000000;stroke-width:0;stroke-dasharray:none"
       x="66.082458"
       y="12.409033"
       id="text15"><tspan
         sodipodi:role="line"
         id="tspan15"
         style="fill:#000000;stroke-width:0"
         x="66.082458"
         y="12.409033">Low Disturbance / Area  / Time</tspan></text>
    <path
       style="fill:#000000;stroke:#000000;stroke-width:0.5;stroke-dasharray:3, 3;stroke-dashoffset:0"
       d="M 23.053571,117.99072 C 57.240624,89.733455 91.427679,61.47619 125.61473,33.218927"
       id="path15"
       inkscape:path-effect="#path-effect15"
       inkscape:original-d="M 23.053571,117.99072 C 57.240624,89.733455 91.42768,61.476191 125.61473,33.218927"
       transform="rotate(25.027362,92.082372,65.149087)" />
    <path
       style="fill:#ffffff;stroke:#000000;stroke-width:0.494102;stroke-dasharray:none;stroke-dashoffset:0"
       d="m 20.680289,166.56328 c 0.925515,-0.24335 1.397748,-0.34601 2.534645,-0.92598 3.284088,-1.67521 0.165775,-0.51876 2.914843,-1.80459 0.416303,-0.19475 0.847471,-0.28812 1.267322,-0.46299 2.07249,-0.86325 0.467327,-0.33529 2.281182,-0.98911 0.548314,-0.19767 1.102818,-0.33606 1.647519,-0.56295 0.304138,-0.12667 0.583769,-0.36127 0.887127,-0.4928 1.193188,-0.51736 2.514457,-0.50494 3.675235,-0.70678 2.432857,-0.42303 0.183048,-0.27643 2.28118,-0.47 0.424946,-0.0392 0.844884,-0.0491 1.267322,-0.0737 0.464687,-0.0788 0.933164,-0.19006 1.394058,-0.23676 0.34409,-0.0349 0.667418,0.0468 1.013858,-0.007 3.679152,-0.57077 -1.013646,-0.20713 2.914842,-0.63662 0.344498,-0.0377 0.667418,0.0468 1.013857,-0.007 1.183942,-0.18367 2.481747,-0.65251 3.675235,-0.96631 2.061489,-0.54202 4.151856,-0.98627 6.209883,-1.63275 2.16653,-0.68057 4.429283,-1.49648 6.59008,-1.73271 1.476963,-0.16146 1.029174,-0.0452 2.407912,0.0158 0.589143,0.026 1.208901,-0.0469 1.774252,0.0526 0.887125,0.15608 0.443561,0.27271 1.774251,0.44194 0.450103,0.0572 0.943068,-0.0318 1.394055,0.0228 0.230639,0.028 0.396017,0.21884 0.633661,0.22272 0.549332,0.009 1.449464,-0.38111 2.027716,-0.53315 1.133694,-0.29808 2.43613,-0.59632 3.548506,-1.19254 0.310857,-0.16664 0.591416,-0.41506 0.887125,-0.62257 0.380197,-0.18647 0.760009,-0.37467 1.14059,-0.55944 0.59104,-0.28698 1.180092,-0.58373 1.774252,-0.85584 0.293436,-0.13435 0.601625,-0.19797 0.887125,-0.36303 0.270851,-0.1565 0.487353,-0.43979 0.760394,-0.58924 0.529377,-0.28977 2.174362,-0.92795 2.788112,-1.1224 0.9385,-0.29736 3.309769,-1.01128 4.182164,-1.09961 2.16069,-0.21875 0.679441,0.23527 2.914842,0.27182 0.409589,0.007 0.848108,-0.16189 1.267323,-0.20344 0.638094,-0.0632 1.257982,-0.007 1.900986,-0.11051 1.261031,-0.20243 2.534644,-0.66643 3.801967,-0.99964 2.03716,-0.53562 4.05,-1.09995 6.08315,-1.72921 1.97349,-0.61078 3.97995,-1.04643 5.95642,-1.5661 0.57684,-0.15166 1.20065,-0.25039 1.77425,-0.4665 0.21409,-0.0807 0.41992,-0.21283 0.63366,-0.29637 0.29017,-0.1135 0.59758,-0.11482 0.88713,-0.23325 0.51728,-0.21171 1.00351,-0.57751 1.52078,-0.78918 0.66345,-0.27154 1.36266,-0.27319 2.02772,-0.53315 0.13255,-0.0519 0.24795,-0.17562 0.3802,-0.22975 0.84777,-0.34692 1.80036,-0.47336 2.66138,-0.69974"
       id="path22" />
    <path
       style="fill:url(#pattern19);fill-opacity:1;stroke:#000000;stroke-width:0.499999;stroke-dasharray:none;stroke-dashoffset:0"
       d="m 23.981494,145.93242 c -0.101473,0.23637 -0.514104,0.66279 -0.30441,0.70912 0.209695,0.0464 0.215096,-0.90078 0.30441,-0.70912 0.149267,0.32033 -0.09338,0.8005 -0.0819,1.18663 0.0026,0.087 0.508398,0.78828 0.574485,0.9301 0.06676,0.14326 0.294315,0.17749 0.361068,0.32073 0.10972,0.23548 0.221277,0.47488 0.333773,0.71627 0.03317,0.0712 -0.05137,0.19253 -0.0182,0.26371 0.110213,0.23652 0.458817,0.3212 0.601782,0.53456 0.370891,0.55354 0.824228,1.07946 1.444278,1.28293 0.188706,0.0618 0.280477,0.39742 0.481427,0.42764 0.07995,0.0121 0.178957,-0.062 0.258911,-0.0499 0.227238,0.0342 0.01348,0.17966 0.240713,0.21382 0.07995,0.0121 0.178959,-0.062 0.258913,-0.0499 0.201438,0.0303 0.382981,0.2559 0.619982,0.27086 0.08225,0.005 0.178957,-0.062 0.258911,-0.0499 0.305806,0.046 0.653125,0.32401 0.999253,0.3279 0.663438,0.007 1.393306,-0.25165 2.062198,-0.26715 0.133022,-0.003 0.246243,0.0601 0.379269,0.057 0.252394,-0.006 0.524345,-0.14386 0.776736,-0.14962 0.133026,-0.003 0.242811,0.0833 0.379268,0.0571 0.17792,-0.0342 0.349023,-0.17206 0.526925,-0.23154 0.386734,-0.12949 0.790996,-0.20698 1.174204,-0.35624 0.62983,-0.2461 1.839591,-1.28311 2.421205,-1.76737 0.377904,-0.31465 0.934846,-0.82506 1.349158,-1.04046 0.127239,-0.0663 0.389209,-0.0123 0.517824,-0.0997 0.05651,-0.0384 0.07931,-0.12598 0.138556,-0.1568 0.274517,-0.14267 1.56056,0.26399 1.896346,0.28519 0.164511,0.0104 0.353315,-0.1102 0.517824,-0.0997 0.342009,0.0217 0.675438,0.0426 1.01745,0.0642 0.367155,0.0232 1.52715,-0.59686 1.969139,-0.76961 1.225357,-0.47892 2.506179,-0.69374 3.679367,-1.48936 0.759238,-0.51479 -0.196376,0.0863 0.526925,-0.23155 0.19051,-0.0837 0.345516,-0.27972 0.536023,-0.36345 0.688888,-0.30278 1.352396,-0.4771 1.978242,-0.90146 0.187716,-0.12735 0.399497,-0.45206 0.554222,-0.62715 0.208779,-0.23625 0.491341,-0.43444 0.683678,-0.65208 0.07303,-0.0827 0.08849,-0.19656 0.147656,-0.28863 0.167459,-0.26062 0.972473,-0.97357 1.228801,-1.14738 0.287323,-0.19483 0.775321,-0.14865 1.044749,-0.33129 0.156102,-0.10584 0.250467,-0.23266 0.406567,-0.33852 0.03995,-0.0271 0.0968,0.0121 0.129457,-0.025 0.03266,-0.037 -0.02356,-0.095 0.0091,-0.13184 0.06928,-0.0784 0.198733,-0.10333 0.268012,-0.18173 0.05487,-0.0621 0.238101,-0.5795 0.30441,-0.70913 0.04402,-0.086 -0.02582,-0.17762 0.01819,-0.26369 0.06226,-0.12169 0.230374,-0.1882 0.277111,-0.31358 0.04703,-0.12615 -0.01973,-0.26939 0.0273,-0.39554 0.140878,-0.37788 0.409197,-0.68582 0.581521,-1.02268 0.04474,-0.0875 0.09869,-0.35479 0.156755,-0.42049 0.03266,-0.037 0.0968,0.0121 0.129456,-0.025 0.286676,-0.3244 -0.410045,0.0895 0.147655,-0.28864 0.03995,-0.0272 0.0968,0.0121 0.129456,-0.025 0.286676,-0.3244 -0.410045,0.0895 0.147655,-0.28864 0.03995,-0.0272 0.0968,0.0121 0.129457,-0.025 0.03266,-0.037 -0.02355,-0.095 0.0091,-0.13186 0.04727,-0.0535 0.622802,-0.38017 0.277112,-0.31358 -0.04315,0.009 -0.006,0.0879 -0.0091,0.13185"
       id="path17" />
    <path
       style="fill:url(#pattern20);fill-opacity:1;stroke:#000000;stroke-width:0.5;stroke-dasharray:none;stroke-dashoffset:0"
       d="m 85.867425,130.03705 c 0.170267,0.0886 0.377426,0.47117 0.510808,0.26583 0.133382,-0.20534 -0.614153,-0.42867 -0.510808,-0.26583 0.264684,0.41706 0.66508,0.71147 1.010712,1.05354 0.4092,0.40497 0.754141,0.85251 1.135007,1.28306 0.195321,0.22081 0.210853,0.58236 0.370156,0.81909 0.215004,0.3195 0.558387,0.4892 0.756671,0.85538 0.154088,0.28456 0.620952,1.67765 0.737588,1.76863 0.06695,0.0523 0.189821,0.0155 0.256767,0.0677 0.02994,0.0233 -0.02125,0.0963 -0.0027,0.13046 0.03317,0.0612 0.9656,0.52643 1.021618,0.53168 0.361455,0.0339 0.666713,-0.0175 1.029796,0.14029 0.234077,0.10172 0.0095,0.1632 0.383787,0.16677 0.08347,4.3e-4 0.178012,-0.0706 0.259494,-0.0633 0.248208,0.0232 0.519372,0.31022 0.767576,0.33353 0.08149,0.007 0.17602,-0.0636 0.259494,-0.0632 0.225035,0.002 0.418248,0.10187 0.643281,0.104 0.415115,0.004 0.881462,-0.18736 1.294746,-0.18342 0.421192,0.004 0.962363,0.0119 1.424488,-0.2148 0.215883,-0.10596 1.840226,-1.23127 1.965286,-1.38406 0.0698,-0.0852 0.0654,-0.20701 0.1352,-0.29232 0.13964,-0.1706 0.36727,-0.23236 0.52444,-0.38648 0.213198,-0.20906 1.899848,-1.77638 1.976188,-1.90591 0.0495,-0.084 -0.0237,-0.17178 0.005,-0.26081 0.0959,-0.29389 0.50868,-0.42265 0.65964,-0.6788 0.59362,-1.00721 1.88574,-2.20856 2.77375,-3.00748 0.22962,-0.20658 0.42862,-0.47095 0.65964,-0.67879 0.49915,-0.44906 1.26289,-0.81341 1.83009,-1.09175 0.27353,-0.13422 0.51084,-0.45803 0.78666,-0.57971 0.40309,-0.17779 0.63902,-0.25373 1.04343,-0.51203 0.85496,-0.54613 1.57797,-1.34279 2.36542,-2.00009 0.3261,-0.27219 0.69865,-0.42051 1.04616,-0.64248 0.35743,-0.22832 0.70369,-0.51857 1.04888,-0.77297 0.1172,-0.0864 1.44698,-1.29093 1.43812,-0.86711 -0.002,0.0972 -0.18982,-0.0155 -0.25677,-0.0677"
       id="path18" />
    <path
       style="fill:url(#pattern59);fill-opacity:1;stroke:#000000;stroke-width:0.499999;stroke-dasharray:none;stroke-dashoffset:0"
       d="m 70.334374,133.52245 c 0.263914,0.53723 0.239532,1.15471 0.389326,1.71449 0.134768,0.50364 0.04896,3.08233 0,3.63372 -0.04216,0.47485 -0.217389,1.02092 -0.259551,1.49578 -0.07021,0.79073 0.07021,1.54522 0,2.33595 -0.09505,1.07057 -0.259694,2.14584 -0.389326,3.21698 -0.04292,0.35468 0.03822,0.6842 0,1.0382 -0.02437,0.22564 -0.105418,0.45737 -0.129776,0.683 -0.07094,0.65706 0.09081,1.28709 0,1.94663 -0.01934,0.14051 -0.112807,0.28326 -0.129775,0.42346 -0.04292,0.35467 0.04894,0.68274 0,1.0382 -0.08129,0.59042 -0.166201,1.17068 -0.259551,1.75532 -0.03556,0.2227 0.04242,0.42563 0,0.64888 -0.07029,0.36994 -0.200692,0.73782 -0.259551,1.10644 -0.08279,0.51851 0.121859,1.03784 0,1.55731 -0.02347,0.1 -0.106315,0.19366 -0.129776,0.29367 -0.04863,0.20733 0.06335,0.44216 0,0.64888 -0.01934,0.0631 -0.110429,0.10078 -0.129775,0.16389 -0.107421,0.35052 -0.08242,1.2493 0,1.55731 0.02347,0.0877 0.110805,0.13557 0.129775,0.22543 0.073,0.34583 0.119092,1.2985 0,1.68708 -0.01934,0.0631 -0.110429,0.10078 -0.129775,0.1639 -0.148606,0.4849 0,2.22807 0,2.72529 0,0.53042 -0.09563,1.22045 -0.259551,1.75532 -0.124817,0.40728 -0.02048,1.1324 0.129775,1.39342 0.190339,0.33062 -0.190338,1.09689 0,1.42753 0.02736,0.0475 0.102418,0.0482 0.129776,0.0957 0.03918,0.0681 -0.05999,0.34512 0,0.38933 0.03059,0.0225 0.09919,-0.0567 0.129775,-0.0341 0.06118,0.0452 -0.06118,0.21446 0,0.25955 0.03059,0.0225 0.09919,-0.0567 0.129776,-0.0341 0.06118,0.0452 -0.06118,0.21446 0,0.25955 0.06489,0.0479 0.194664,0.0138 0.259551,0.0615 0.03059,0.0225 -0.03059,0.10724 0,0.12977 0.252145,0.18585 1.257281,-0.71989 1.297755,-0.73053 0.203253,-0.0534 0.161456,-0.20392 0.259551,-0.32781 0.03059,-0.0387 0.09919,0.004 0.129775,-0.0341 0.06118,-0.0772 -0.06118,-0.18228 0,-0.25955 0.04326,-0.0547 0.34607,-0.17748 0.389326,-0.23213 0.128001,-0.16165 0.0352,-0.56355 0.129776,-0.68299 0.03059,-0.0387 0.09919,0.004 0.129775,-0.0341 0.151406,-0.19121 -0.151405,-0.71721 0,-0.90843 0.03059,-0.0387 0.09919,0.004 0.129776,-0.0341 0.03369,-0.0425 0.129775,-0.87742 0.129775,-1.07233 0,-1.36516 -0.135442,-2.79111 0.129776,-4.18693 0.05823,-0.30648 -0.05823,-0.60195 0,-0.90843 0.01897,-0.0999 0.110807,-0.19383 0.129775,-0.29367 0.07491,-0.39426 -0.06284,-0.77443 0,-1.16798 0.02249,-0.14084 0.107289,-0.28261 0.129776,-0.42345 0.07583,-0.47491 -0.111633,-0.95164 0,-1.42753 0.02347,-0.0999 0.106317,-0.19367 0.129775,-0.29368 0.05977,-0.25478 -0.07773,-0.52502 0,-0.77865 0.01934,-0.0631 0.110432,-0.10077 0.129776,-0.16389 0.04697,-0.15327 0.05819,-0.93713 0,-1.03821 -0.160364,-0.27856 -0.129776,0.0789 -0.129776,-0.22543 0,-0.92408 -0.02043,-1.75017 0.259551,-2.66375 0.23844,-0.77801 -0.269012,-1.43926 -0.129775,-2.17206 0.133638,-0.70332 0.227639,-1.35974 0.389326,-2.049 0.113393,-0.48337 0,-1.08758 0,-1.55731 0,-0.52373 -0.141853,-2.00287 0,-2.46574 0.01934,-0.0631 0.102418,-0.10202 0.129776,-0.16388 0.08595,-0.19452 0,-0.70529 0,-0.90843 0,-0.18483 -0.05711,-0.46253 0,-0.64888 0.01934,-0.0631 0.110431,-0.10078 0.129775,-0.1639 0.0684,-0.22318 0.05246,-0.45284 0,-0.64888 -0.01484,-0.0554 -0.110429,-0.0426 -0.129775,-0.0957 -0.08862,-0.24257 0.03003,-0.58707 0.129775,-0.81278 0.138428,-0.31324 -0.138427,-0.72495 0,-1.0382 0.212326,-0.48048 0.03486,-0.85754 0.129776,-1.07233 0.02736,-0.0619 0.129775,-0.10272 0.129775,-0.16389 0,-0.0612 -0.102415,-0.0482 -0.129775,-0.0957 -0.155729,-0.27051 0.155731,-0.89746 0,-1.16798 -0.12115,-0.21044 -0.129776,-0.31788 -0.129776,-0.61476 0,-0.12303 -0.05389,-0.39715 0,-0.5191 0.02736,-0.0619 0.129776,-0.10272 0.129776,-0.16389 0,-0.0433 -0.09919,0.0567 -0.129776,0.0341 -0.05936,-0.0438 -0.04338,-0.94005 0,-1.03821 0.02736,-0.0619 0.102418,-0.10202 0.129776,-0.16389 0.110834,-0.25081 -0.129776,-1.06222 -0.129776,-0.74454 0,0.0612 0.08652,0.0638 0.129776,0.0957"
       id="path21" />
    <path
       style="fill:#ffffff;stroke:#000000;stroke-width:0.482614;stroke-dasharray:none;stroke-dashoffset:0"
       d="m 20.441284,190.8964 c 0.593916,-0.58613 0.949905,-0.45423 1.562743,-0.54141 0.199126,-0.0283 0.401698,-0.12721 0.601056,-0.15804 1.472018,-0.2272 -0.354366,0.21417 1.322321,-0.0866 0.519379,-0.0932 1.043629,-0.3214 1.562744,-0.41089 1.303827,-0.22484 2.650747,-0.45648 3.966965,-0.9125 1.049865,-0.36364 2.080532,-0.82516 3.125488,-1.21335 0.597782,-0.22207 1.206326,-0.37578 1.803165,-0.60464 0.603996,-0.2317 1.190712,-0.6442 1.803166,-0.8657 1.230598,-0.44502 -0.02905,0.17421 1.20211,-0.44658 1.031939,-0.52033 2.073091,-1.20127 3.125487,-1.60493 0.474461,-0.18205 0.968922,-0.19046 1.442531,-0.37928 0.16394,-0.0653 0.315632,-0.21353 0.480848,-0.25698 0.165213,-0.0434 0.316638,0.0275 0.480843,0.004 0.199125,-0.0283 0.401928,-0.12967 0.601055,-0.15803 1.008434,-0.14349 2.140125,0.16053 3.125488,0.22245 0.799848,0.0503 1.702022,-0.14524 2.52443,-0.27216 1.548064,-0.23895 3.352915,-0.88157 4.928655,-1.29587 1.931199,-0.50777 3.847746,-1.00269 5.77013,-1.64767 0.877695,-0.29437 1.766691,-0.40491 2.644645,-0.69535 0.644856,-0.21335 1.278376,-0.55597 1.923376,-0.76675 0.36001,-0.11766 0.72182,-0.16809 1.081899,-0.28446 2.011634,-0.65026 4.001621,-1.6795 6.010551,-2.36351 1.22208,-0.41602 2.873521,-0.8569 4.087178,-1.07463 1.00793,-0.18091 1.9956,-0.094 3.005275,-0.26806 2.166406,-0.37358 4.336334,-0.74751 6.491398,-1.05412 0.659941,-0.0939 1.378434,-0.36243 2.043588,-0.53731 1.303253,-0.34265 2.672661,-0.56218 3.966963,-1.04302 0.203307,-0.0755 0.397575,-0.21498 0.601055,-0.28857 1.337738,-0.48377 2.742531,-0.72109 4.087177,-1.07463 0.947229,-0.24905 1.942249,-0.41767 2.885062,-0.75857 0.629626,-0.22774 1.159206,-0.4353 1.803164,-0.60461 2.86064,-0.75215 5.63518,-0.73807 8.41478,-1.03773 0.76539,-0.0825 1.62677,-0.42772 2.40422,-0.63213 0.19445,-0.0512 0.54579,-0.18171 0.72126,-0.18964 0.0879,-0.004 0.15083,0.0909 0.24042,0.0673 0.0896,-0.0236 0.15351,-0.14729 0.24043,-0.19374 0.22628,-0.12099 0.49499,-0.0686 0.72127,-0.18964 0.0868,-0.0464 0.15542,-0.14067 0.24042,-0.19374 0.25244,-0.15757 0.58903,-0.0636 0.84148,-0.22125 0.0537,-0.0335 0.0664,-0.12852 0.12021,-0.16213 0.23735,-0.14821 0.47437,0.006 0.72127,-0.0591 0.4049,-0.10641 0.68967,-0.13593 1.08189,-0.15393 0.73698,-0.0337 1.64467,-0.43243 2.40422,-0.63213 0.28049,-0.0738 0.56098,-0.1475 0.84147,-0.22125 0.12023,-0.0316 0.24042,-0.0632 0.36065,-0.0948 0.0401,-0.0108 0.1202,0.012 0.1202,-0.0316 0,-0.0616 -0.0802,-0.0658 -0.1202,-0.0989"
       id="path23" />
    <rect
       style="fill:none;stroke:#000000;stroke-width:0.485067;stroke-dasharray:none;stroke-dashoffset:0"
       id="rect29"
       width="102.90553"
       height="55.632648"
       x="20.922289"
       y="151.7917"
       transform="matrix(0.96712947,-0.25428448,0,1,0,0)" />
  </g>
  <g
     inkscape:groupmode="layer"
     id="g40"
     inkscape:label="stuff copy"
     transform="translate(125.75635,2.7914851)">
    <circle
       style="fill:url(#pattern51);fill-opacity:1;stroke:#000000;stroke-width:0.4;stroke-dasharray:none"
       id="circle29"
       cx="96.991638"
       cy="28.520432"
       r="49.850334"
       transform="rotate(25.252035)" />
    <path
       style="fill:#ffffff;stroke:#000000;stroke-width:0.499999;stroke-dasharray:none"
       d="m 76.943408,63.03909 c -0.08371,-0.01661 -0.234527,-0.133496 -0.251123,-0.0498 -0.01661,0.08371 0.333948,0.07035 0.251123,0.0498 -0.185197,-0.04598 -0.374039,-0.07686 -0.558404,-0.126082 -0.210688,-0.05624 -0.368997,-0.182561 -0.588073,-0.208728 -0.294844,-0.03524 -0.421185,0.17929 -0.63151,0.320008 -0.04866,0.03256 -0.116644,0.02678 -0.165294,0.05933 -0.25964,0.17371 -0.04736,0.08166 -0.1886,0.254305 -0.0293,0.03582 -0.08158,0.04865 -0.109138,0.08583 -0.08463,0.11411 -0.100798,0.278998 -0.18542,0.393112 -0.07643,0.103042 -0.16323,0.126352 -0.188599,0.254305 -0.09388,0.473411 -0.295572,1.236225 0.203472,1.606332 0.09974,0.07398 0.224635,0.105955 0.336953,0.158932 0.893871,0.421616 1.871242,0.457181 2.749631,-0.0075 0.09148,-0.04839 0.215451,-0.0091 0.304102,-0.06253 0.03547,-0.02135 0.02438,-0.08239 0.05297,-0.112319 0.02026,-0.02115 0.05963,-0.01158 0.08264,-0.02967 0.109255,-0.08592 0.0764,-0.25721 0.10277,-0.36344 0.01494,-0.06026 0.0645,-0.108217 0.07947,-0.168476 0.07582,-0.30544 -0.09321,-0.688865 -0.243725,-0.93879 -0.08845,-0.146867 0.03922,-0.02073 -0.03285,-0.221454 -0.04198,-0.116957 -1.015392,-0.889497 -1.020403,-0.893212 z"
       id="path29" />
    <path
       style="fill:#ffffff;stroke:#000000;stroke-width:0.499999;stroke-dasharray:none"
       d="m 56.838509,37.987407 c -0.08371,-0.01661 -0.234528,-0.133496 -0.251123,-0.0498 -0.01661,0.08371 0.333948,0.07035 0.251123,0.0498 -0.185197,-0.04598 -0.37404,-0.07686 -0.558405,-0.126081 -0.210688,-0.05624 -0.368997,-0.18256 -0.588073,-0.20873 -0.294843,-0.03524 -0.421185,0.179292 -0.63151,0.320009 -0.04866,0.03256 -0.116644,0.02678 -0.165295,0.05934 -0.259639,0.173709 -0.04736,0.08166 -0.188599,0.254305 -0.0293,0.03582 -0.08158,0.04865 -0.109139,0.08583 -0.08462,0.114111 -0.100797,0.278997 -0.18542,0.393111 -0.07643,0.103042 -0.163229,0.126353 -0.188598,0.254305 -0.09388,0.473412 -0.295572,1.236226 0.203471,1.606332 0.09974,0.07398 0.224637,0.105955 0.336954,0.158933 0.893871,0.421615 1.871242,0.457181 2.749631,-0.0075 0.09148,-0.04839 0.215449,-0.0091 0.304101,-0.06253 0.03547,-0.02135 0.02437,-0.08238 0.05297,-0.112318 0.02026,-0.02115 0.05963,-0.01158 0.08264,-0.02967 0.109255,-0.08592 0.0764,-0.257209 0.10277,-0.363439 0.01494,-0.06027 0.0645,-0.108218 0.07947,-0.168476 0.07582,-0.305441 -0.09321,-0.688866 -0.243723,-0.93879 -0.08845,-0.146867 0.03922,-0.02073 -0.03285,-0.221454 C 57.816922,38.763654 56.84351,37.991115 56.8385,37.9874 Z"
       id="path30" />
    <path
       style="fill:#ffffff;stroke:#000000;stroke-width:0.499999;stroke-dasharray:none"
       d="m 53.108506,101.1886 c -0.08378,-0.0162 -0.234525,-0.13345 -0.251125,-0.0498 -0.01661,0.0837 0.333942,0.0703 0.251125,0.0498 -0.185179,-0.046 -0.374063,-0.0767 -0.558399,-0.12608 -0.210688,-0.0562 -0.368873,-0.18283 -0.588078,-0.20871 -0.294829,-0.0353 -0.421186,0.17929 -0.631512,0.32001 -0.04863,0.0325 -0.116682,0.0268 -0.165292,0.0593 -0.259635,0.17371 -0.04738,0.0817 -0.188609,0.2543 -0.02929,0.0359 -0.08155,0.0486 -0.109144,0.0859 -0.08466,0.11409 -0.100761,0.27902 -0.185421,0.39312 -0.07645,0.10301 -0.163202,0.12636 -0.188608,0.2543 -0.09389,0.4734 -0.295572,1.23622 0.20347,1.60634 0.09973,0.074 0.22463,0.10598 0.33695,0.15891 0.893875,0.42163 1.871251,0.4572 2.749635,-0.007 0.09149,-0.0484 0.215455,-0.009 0.304102,-0.0626 0.03547,-0.0212 0.02438,-0.0824 0.05297,-0.11231 0.02,-0.0213 0.05963,-0.0116 0.08265,-0.0296 0.109289,-0.0859 0.07643,-0.2572 0.10277,-0.36344 0.01495,-0.0603 0.06452,-0.10821 0.07947,-0.16849 0.07585,-0.30542 -0.09321,-0.68885 -0.243725,-0.93878 -0.08845,-0.14686 0.0392,-0.0208 -0.03285,-0.22145 -0.042,-0.11699 -1.015391,-0.88949 -1.020405,-0.89321 z"
       id="path30-4" />
    <path
       style="fill:#ffffff;stroke:#000000;stroke-width:0.499999;stroke-dasharray:none"
       d="m 101.26367,98.883477 c -0.0837,-0.01661 -0.23452,-0.133506 -0.25113,-0.04979 -0.0162,0.08378 0.33393,0.07037 0.25113,0.04979 -0.18519,-0.046 -0.37406,-0.07683 -0.55841,-0.126083 -0.21068,-0.05625 -0.36886,-0.182832 -0.58808,-0.208724 -0.294847,-0.03524 -0.42119,0.179295 -0.631505,0.32001 -0.04865,0.03256 -0.116668,0.02679 -0.165307,0.05935 -0.259629,0.173708 -0.04736,0.08168 -0.188607,0.254299 -0.02932,0.03583 -0.08155,0.04866 -0.109157,0.08582 -0.08465,0.114098 -0.100769,0.279014 -0.185413,0.393116 -0.07644,0.103032 -0.163213,0.126362 -0.188617,0.2543 -0.09389,0.473415 -0.295542,1.236235 0.203469,1.606335 0.09975,0.074 0.224638,0.10595 0.33696,0.15894 0.893877,0.42161 1.871247,0.45717 2.749627,-0.007 0.0915,-0.0484 0.21545,-0.009 0.30411,-0.0626 0.0355,-0.0213 0.0244,-0.0824 0.0529,-0.11232 0.0199,-0.0213 0.0596,-0.0116 0.0826,-0.0297 0.10927,-0.0859 0.0764,-0.25719 0.10271,-0.36344 0.0145,-0.0603 0.0645,-0.10821 0.0794,-0.16847 0.0759,-0.30543 -0.0932,-0.68888 -0.24373,-0.938795 -0.0885,-0.146871 0.0392,-0.02075 -0.0328,-0.221449 -0.0419,-0.116992 -1.0154,-0.889498 -1.02041,-0.893212 z"
       id="path30-0" />
    <path
       style="fill:#ffffff;stroke:#000000;stroke-width:0.499999;stroke-dasharray:none"
       d="m 39.397186,73.749106 c -0.191452,-0.382083 -0.567153,-0.473469 -0.931389,-0.64527 -0.525807,-0.248009 -1.088961,-0.436879 -1.675217,-0.378242 -0.395591,0.03956 -0.582266,0.458082 -0.76077,0.739608 -0.04569,0.07208 -0.125704,0.120965 -0.162111,0.198148 -0.0763,0.16176 -0.189089,0.891397 -0.169551,1.087136 0.01621,0.162124 0.186447,0.431637 0.290338,0.548859 0.578534,0.652781 1.393489,1.044716 2.269652,0.864581 0.127597,-0.02624 0.271437,-0.0015 0.386749,-0.09219 0.03255,-0.02558 0.02678,-0.08028 0.05297,-0.112317 0.124364,-0.152006 0.282633,-0.274108 0.406874,-0.425962 0.208639,-0.255018 0.227485,-0.654419 0.311501,-0.951518 0.01689,-0.05975 0.08089,-0.106401 0.07947,-0.168477 -0.0051,-0.223817 -0.0657,-0.442906 -0.09856,-0.664358 z"
       id="path34" />
    <text
       xml:space="preserve"
       transform="scale(0.26458333)"
       id="text34"
       style="font-size:24px;font-family:'Times New Roman';-inkscape-font-specification:'Times New Roman, ';text-align:center;letter-spacing:0px;writing-mode:lr-tb;direction:ltr;white-space:pre;shape-inside:url(#rect41);display:inline;fill:url(#pattern15);fill-opacity:1;stroke:#000000;stroke-width:0.377953;stroke-dasharray:none" />
    <text
       xml:space="preserve"
       style="font-size:6.35px;font-family:'Times New Roman';-inkscape-font-specification:'Times New Roman, ';text-align:center;letter-spacing:0px;writing-mode:lr-tb;direction:ltr;text-anchor:middle;fill:#ffffff;stroke:#000000;stroke-width:0;stroke-dasharray:none"
       x="70.874916"
       y="9.617548"
       id="text35"><tspan
         sodipodi:role="line"
         id="tspan35"
         style="fill:#000000;stroke-width:0"
         x="70.874916"
         y="9.617548">High Disturbance / Area  / Time</tspan></text>
    <path
       style="fill:#000000;stroke:#000000;stroke-width:0.5;stroke-dasharray:3, 3;stroke-dashoffset:0"
       d="M 23.053571,117.99072 C 57.240624,89.733455 91.427679,61.47619 125.61473,33.218927"
       id="path35"
       inkscape:path-effect="#path-effect42"
       inkscape:original-d="M 23.053571,117.99072 C 57.240624,89.733455 91.42768,61.476191 125.61473,33.218927"
       transform="rotate(25.252035,101.03257,76.116266)" />
    <path
       style="fill:#ffffff;stroke:#000000;stroke-width:0.482614;stroke-dasharray:none;stroke-dashoffset:0"
       d="m 24.688641,190.4424 c 0.593916,-0.60007 0.949905,-0.47652 1.562743,-0.57809 0.199126,-0.033 0.401698,-0.13665 0.601056,-0.17214 1.472018,-0.26178 -0.354366,0.22247 1.322321,-0.1177 0.519379,-0.10537 1.043629,-0.34589 1.562744,-0.44757 1.303827,-0.25544 2.650747,-0.51871 3.966965,-1.00562 1.049865,-0.3883 2.080532,-0.874 3.125488,-1.28673 0.597782,-0.2361 1.206326,-0.40409 1.803165,-0.64696 0.603996,-0.24589 1.190712,-0.67216 1.803166,-0.90803 1.230598,-0.47391 -0.02905,0.17488 1.20211,-0.4748 1.031939,-0.54457 2.073091,-1.24994 3.125487,-1.67831 0.474461,-0.19318 0.968922,-0.2132 1.442531,-0.41314 0.16394,-0.0691 0.315632,-0.22094 0.480848,-0.26825 0.165213,-0.0473 0.316638,0.0201 0.480843,-0.007 0.199125,-0.033 0.401928,-0.1391 0.601055,-0.17214 1.008434,-0.16717 2.140125,0.1103 3.125488,0.14907 0.799848,0.0314 1.702022,-0.18519 2.52443,-0.33141 1.548064,-0.27529 3.352915,-0.96027 4.928655,-1.41157 1.931199,-0.5531 3.847746,-1.093 5.77013,-1.78312 0.877695,-0.31497 1.766691,-0.44638 2.644645,-0.75743 0.644856,-0.22849 1.278376,-0.58598 1.923376,-0.81191 0.36001,-0.1261 0.72182,-0.18503 1.081899,-0.30986 2.011634,-0.69748 4.001621,-1.77343 6.010551,-2.5046 1.22208,-0.44471 2.873521,-0.92436 4.087178,-1.17058 1.00793,-0.20458 1.9956,-0.14083 3.005275,-0.33861 2.166406,-0.42443 4.336331,-0.8493 6.491401,-1.20649 0.659939,-0.10939 1.378429,-0.39479 2.043589,-0.58529 1.30325,-0.37326 2.67266,-0.62493 3.96696,-1.13615 0.20331,-0.0803 0.39757,-0.22432 0.60105,-0.30268 1.33774,-0.51517 2.74254,-0.78547 4.08718,-1.17058 0.94723,-0.27129 1.94224,-0.46326 2.88506,-0.82629 0.62962,-0.24252 1.1592,-0.46252 1.80316,-0.64695 2.86064,-0.81929 5.63518,-0.87035 8.41478,-1.23525 0.76539,-0.10053 1.62677,-0.46592 2.40422,-0.68858 0.19445,-0.0557 0.54579,-0.19452 0.72126,-0.20657 0.0879,-0.006 0.15083,0.0873 0.24042,0.0617 0.0896,-0.0256 0.15351,-0.15089 0.24043,-0.19939 0.22628,-0.12631 0.49499,-0.0803 0.72127,-0.20657 0.0868,-0.0485 0.15542,-0.14431 0.24042,-0.19939 0.25244,-0.16349 0.58903,-0.0774 0.84148,-0.241 0.0537,-0.0348 0.0664,-0.13008 0.12021,-0.16496 0.23735,-0.15378 0.47437,-0.005 0.72127,-0.076 0.4049,-0.11602 0.68967,-0.15212 1.08189,-0.17933 0.73698,-0.0515 1.64467,-0.47103 2.40422,-0.68858 0.28049,-0.0803 0.56098,-0.16065 0.84147,-0.24098 0.12023,-0.0345 0.24042,-0.0688 0.36065,-0.10332 0.0401,-0.0113 0.1202,0.009 0.1202,-0.0345 0,-0.0616 -0.0802,-0.0639 -0.1202,-0.0961"
       id="path40" />
    <rect
       style="fill:none;stroke:#000000;stroke-width:0.486522;stroke-dasharray:none;stroke-dashoffset:0"
       id="rect40"
       width="103.52428"
       height="55.632648"
       x="25.466215"
       y="153.03401"
       transform="matrix(0.96134909,-0.2753324,0,1,0,0)" />
    <path
       style="fill:#ffffff;stroke:#000000;stroke-width:0.499999;stroke-dasharray:none"
       d="m 98.880436,58.300565 c -0.191449,-0.382083 -0.567155,-0.473472 -0.931391,-0.645273 -0.525806,-0.248008 -1.088958,-0.436877 -1.675216,-0.378241 -0.395592,0.03956 -0.582268,0.45808 -0.760767,0.73961 -0.04571,0.07206 -0.125714,0.120959 -0.16212,0.198144 -0.0763,0.161758 -0.189088,0.891395 -0.16955,1.087134 0.01619,0.162112 0.18645,0.431638 0.290341,0.548861 0.578528,0.652779 1.393484,1.044714 2.269647,0.864579 0.127595,-0.02624 0.27144,-0.0015 0.386756,-0.09219 0.03253,-0.0256 0.0268,-0.08026 0.05297,-0.112318 0.124336,-0.152019 0.282632,-0.274108 0.406866,-0.425965 0.208629,-0.255023 0.227512,-0.654407 0.311505,-0.951515 0.01689,-0.05975 0.08092,-0.106389 0.07947,-0.168476 -0.0051,-0.22382 -0.06571,-0.442909 -0.09856,-0.664362 z"
       id="path34-3" />
    <path
       style="fill:#ffffff;stroke:#000000;stroke-width:0.494102;stroke-dasharray:none;stroke-dashoffset:0"
       d="m 24.927646,166.10367 c 0.925515,-0.26507 1.397748,-0.37882 2.534645,-0.98547 3.284088,-1.75231 0.165775,-0.52266 2.914843,-1.87302 0.416303,-0.20453 0.847471,-0.30802 1.267322,-0.49275 2.07249,-0.91189 0.467327,-0.34626 2.281182,-1.04266 0.548314,-0.21053 1.102818,-0.36194 1.647519,-0.60163 0.304138,-0.1338 0.583769,-0.37497 0.887127,-0.51362 1.193188,-0.54537 2.514457,-0.56396 3.675235,-0.79304 2.432857,-0.48015 0.183048,-0.28074 2.28118,-0.52355 0.424946,-0.0493 0.844884,-0.0689 1.267322,-0.10341 0.464687,-0.0898 0.933164,-0.21195 1.394058,-0.26948 0.34409,-0.043 0.667418,0.0311 1.013858,-0.0308 3.679152,-0.65714 -1.013646,-0.18333 2.914842,-0.70504 0.344498,-0.0458 0.667418,0.0311 1.013857,-0.0308 1.183942,-0.21147 2.481747,-0.71078 3.675235,-1.0526 2.061489,-0.59041 4.151856,-1.08373 6.209883,-1.77852 2.16653,-0.73143 4.429283,-1.60046 6.59008,-1.88741 1.476963,-0.19614 1.029174,-0.0694 2.407912,-0.0408 0.589143,0.0122 1.208901,-0.0751 1.774252,0.0109 0.887125,0.13526 0.443561,0.2623 1.774251,0.40029 0.450103,0.0466 0.943068,-0.054 1.394055,-0.01 0.230639,0.0225 0.396017,0.20954 0.633661,0.20784 0.549332,-0.004 1.449464,-0.41512 2.027716,-0.58074 1.133694,-0.32469 2.43613,-0.65351 3.548506,-1.27585 0.310857,-0.17392 0.591416,-0.42893 0.887125,-0.64339 0.380197,-0.19539 0.760009,-0.3925 1.14059,-0.58621 0.59104,-0.30086 1.180092,-0.61143 1.774252,-0.89749 0.293436,-0.14124 0.601625,-0.21211 0.887125,-0.38385 0.270851,-0.16287 0.487353,-0.45124 0.760392,-0.6071 0.52938,-0.3022 2.17436,-0.97899 2.78811,-1.18785 0.9385,-0.3194 3.309769,-1.08898 4.182169,-1.19779 2.16069,-0.26947 0.67944,0.21932 2.91484,0.20339 0.40959,-0.003 0.84811,-0.18179 1.26732,-0.23319 0.6381,-0.0782 1.25799,-0.0368 1.90099,-0.1551 1.26103,-0.23203 2.53465,-0.72593 3.80196,-1.08889 2.03716,-0.58345 4.05,-1.19503 6.08315,-1.872 1.97349,-0.65712 3.97995,-1.13987 5.95642,-1.70594 0.57684,-0.16521 1.20065,-0.27856 1.77425,-0.50815 0.21409,-0.0858 0.41992,-0.22268 0.63366,-0.31125 0.29017,-0.1203 0.59758,-0.12887 0.88713,-0.25408 0.51728,-0.22385 1.00351,-0.60106 1.52078,-0.82488 0.66345,-0.28712 1.36266,-0.30517 2.02772,-0.58074 0.13255,-0.055 0.24795,-0.18144 0.3802,-0.23867 0.84777,-0.36683 1.80036,-0.51563 2.66138,-0.76223"
       id="path36" />
    <path
       style="fill:url(#pattern47);fill-opacity:1;stroke:#000000;stroke-width:0.499999;stroke-dasharray:none;stroke-dashoffset:0"
       d="m 73.893742,131.92225 c 0.263914,0.53103 0.239532,1.14909 0.389326,1.70536 0.134768,0.50046 0.04896,3.08118 0,3.63372 -0.04216,0.47583 -0.217389,1.02601 -0.259551,1.50186 -0.07021,0.79238 0.07021,1.54357 0,2.33595 -0.09505,1.07281 -0.259694,2.15194 -0.389326,3.22612 -0.04292,0.35569 0.03822,0.68331 0,1.0382 -0.02437,0.22622 -0.105418,0.45984 -0.129776,0.68606 -0.07094,0.65872 0.09081,1.28496 0,1.94663 -0.01934,0.14096 -0.112807,0.28589 -0.129775,0.42649 -0.04292,0.35569 0.04894,0.68159 0,1.0382 -0.08129,0.59233 -0.166201,1.17458 -0.259551,1.76142 -0.03556,0.22354 0.04242,0.42464 0,0.64888 -0.07029,0.37159 -0.200692,0.74253 -0.259551,1.11254 -0.08279,0.52044 0.121859,1.03497 0,1.55731 -0.02347,0.10052 -0.106315,0.19616 -0.129776,0.29671 -0.04863,0.20847 0.06335,0.44068 0,0.64888 -0.01934,0.0636 -0.110429,0.10332 -0.129775,0.16694 -0.107421,0.35303 -0.08242,1.25122 0,1.55731 0.02347,0.0871 0.110805,0.13297 0.129775,0.22238 0.073,0.34411 0.119092,1.29571 0,1.68708 -0.01934,0.0635 -0.110429,0.10332 -0.129775,0.16695 -0.148606,0.48838 0,2.22807 0,2.72529 0,0.53042 -0.09563,1.22269 -0.259551,1.76141 -0.124817,0.4102 -0.02048,1.13288 0.129775,1.39037 0.190339,0.32616 -0.190338,1.10136 0,1.42753 0.02736,0.0469 0.102418,0.0457 0.129776,0.0926 0.03918,0.0672 -0.05999,0.34652 0,0.38933 0.03059,0.0219 0.09919,-0.059 0.129775,-0.0372 0.06118,0.0436 -0.06118,0.21589 0,0.25955 0.03059,0.0219 0.09919,-0.059 0.129776,-0.0372 0.06118,0.0436 -0.06118,0.21589 0,0.25955 0.06489,0.0463 0.194664,0.009 0.259551,0.0555 0.03059,0.0219 -0.03059,0.10796 0,0.12977 0.252145,0.17994 1.257281,-0.74942 1.297755,-0.76101 0.203253,-0.0582 0.161456,-0.20769 0.259551,-0.33389 0.03059,-0.0393 0.09919,0.002 0.129775,-0.0372 0.06118,-0.0788 -0.06118,-0.18084 0,-0.25955 0.04326,-0.0556 0.34607,-0.18561 0.389326,-0.24127 0.128001,-0.16466 0.0352,-0.56438 0.129776,-0.68605 0.03059,-0.0393 0.09919,0.002 0.129775,-0.0372 0.151406,-0.19476 -0.151405,-0.71365 0,-0.90843 0.03059,-0.0393 0.09919,0.002 0.129776,-0.0371 0.03369,-0.0433 0.129775,-0.88046 0.129775,-1.07537 0,-1.36516 -0.135442,-2.78794 0.129776,-4.18999 0.05823,-0.30784 -0.05823,-0.60058 0,-0.90843 0.01897,-0.10036 0.110807,-0.19644 0.129775,-0.29672 0.07491,-0.39601 -0.06284,-0.77295 0,-1.16798 0.02249,-0.14137 0.107289,-0.28511 0.129776,-0.42649 0.07583,-0.47669 -0.111633,-0.94903 0,-1.42753 0.02347,-0.10052 0.106317,-0.19616 0.129775,-0.29672 0.05977,-0.25618 -0.07773,-0.5232 0,-0.77865 0.01934,-0.0635 0.110432,-0.10332 0.129776,-0.16694 0.04697,-0.15438 0.05819,-0.9385 0,-1.03821 -0.160364,-0.27481 -0.129776,0.082 -0.129776,-0.22238 0,-0.92408 -0.02043,-1.7497 0.259551,-2.66985 0.23844,-0.78361 -0.269012,-1.43295 -0.129775,-2.16901 0.133638,-0.70646 0.227639,-1.36509 0.389326,-2.05814 0.113393,-0.48605 0,-1.08758 0,-1.55731 0,-0.52373 -0.141853,-1.99954 0,-2.46574 0.01934,-0.0636 0.102418,-0.10447 0.129776,-0.16693 0.08595,-0.19653 0,-0.70529 0,-0.90843 0,-0.18483 -0.05711,-0.46119 0,-0.64888 0.01934,-0.0635 0.110431,-0.10332 0.129775,-0.16694 0.0684,-0.22479 0.05246,-0.45408 0,-0.64888 -0.01484,-0.0551 -0.110429,-0.0401 -0.129775,-0.0926 -0.08862,-0.24049 0.03003,-0.58776 0.129775,-0.81582 0.138428,-0.3165 -0.138427,-0.7217 0,-1.0382 0.212326,-0.48546 0.03486,-0.85836 0.129776,-1.07538 0.02736,-0.0625 0.129775,-0.10581 0.129775,-0.16693 0,-0.0612 -0.102415,-0.0457 -0.129775,-0.0926 -0.155729,-0.26686 0.155731,-0.90112 0,-1.16798 -0.12115,-0.20761 -0.129776,-0.31483 -0.129776,-0.61171 0,-0.12303 -0.05389,-0.39588 0,-0.5191 0.02736,-0.0625 0.129776,-0.10581 0.129776,-0.16694 0,-0.0433 -0.09919,0.059 -0.129776,0.0372 -0.05936,-0.0424 -0.04338,-0.93903 0,-1.03821 0.02736,-0.0625 0.102418,-0.10447 0.129776,-0.16694 0.110834,-0.25342 -0.129776,-1.05917 -0.129776,-0.74149 0,0.0612 0.08652,0.0617 0.129776,0.0926"
       id="path39" />
    <path
       style="fill:url(#pattern47-4);fill-opacity:1;stroke:#000000;stroke-width:0.499999;stroke-dasharray:none;stroke-dashoffset:0"
       d="m 37.370184,142.14403 c 0.263914,0.53103 0.239532,1.14909 0.389326,1.70536 0.134768,0.50048 0.04896,3.08118 0,3.63372 -0.04216,0.47583 -0.217389,1.02602 -0.259551,1.50186 -0.07021,0.79239 0.07021,1.54358 0,2.33595 -0.09505,1.07282 -0.259694,2.15194 -0.389326,3.22613 -0.04292,0.35569 0.03822,0.6833 0,1.0382 -0.02437,0.22621 -0.105418,0.45984 -0.129776,0.68605 -0.07094,0.65873 0.09081,1.28496 0,1.94663 -0.01934,0.14096 -0.112807,0.28589 -0.129775,0.42649 -0.04292,0.35569 0.04894,0.6816 0,1.0382 -0.08129,0.59234 -0.166201,1.17458 -0.259551,1.76142 -0.03556,0.22354 0.04242,0.42464 0,0.64888 -0.07029,0.37159 -0.200692,0.74253 -0.259551,1.11254 -0.08279,0.52045 0.121859,1.03497 0,1.55731 -0.02347,0.10052 -0.106315,0.19616 -0.129776,0.29672 -0.04863,0.20846 0.06335,0.44067 0,0.64888 -0.01934,0.0635 -0.110429,0.10332 -0.129775,0.16693 -0.107421,0.35304 -0.08242,1.25122 0,1.55731 0.02347,0.0871 0.110805,0.13297 0.129775,0.22239 0.073,0.34411 0.119092,1.2957 0,1.68708 -0.01934,0.0636 -0.110429,0.10332 -0.129775,0.16694 -0.148606,0.48838 0,2.22807 0,2.72529 0,0.53042 -0.09563,1.22269 -0.259551,1.76141 -0.124817,0.41021 -0.02048,1.13289 0.129775,1.39037 0.190339,0.32616 -0.190338,1.10137 0,1.42753 0.02736,0.0469 0.102418,0.0457 0.129776,0.0926 0.03918,0.0672 -0.05999,0.34652 0,0.38933 0.03059,0.0219 0.09919,-0.059 0.129775,-0.0372 0.06118,0.0437 -0.06118,0.21589 0,0.25955 0.03059,0.0219 0.09919,-0.059 0.129776,-0.0372 0.06118,0.0436 -0.06118,0.21589 0,0.25955 0.06489,0.0463 0.194664,0.009 0.259551,0.0555 0.03059,0.0219 -0.03059,0.10796 0,0.12977 0.252145,0.17994 1.257281,-0.7494 1.297755,-0.761 0.203253,-0.0583 0.161456,-0.2077 0.259551,-0.3339 0.03059,-0.0393 0.09919,0.002 0.129775,-0.0371 0.06118,-0.0788 -0.06118,-0.18085 0,-0.25955 0.04326,-0.0557 0.34607,-0.18562 0.389326,-0.24127 0.128001,-0.16467 0.0352,-0.56439 0.129776,-0.68606 0.03059,-0.0393 0.09919,0.002 0.129775,-0.0372 0.151406,-0.19477 -0.151405,-0.71366 0,-0.90843 0.03059,-0.0393 0.09919,0.002 0.129776,-0.0372 0.03369,-0.0433 0.129775,-0.88046 0.129775,-1.07537 0,-1.36516 -0.135442,-2.78794 0.129776,-4.18998 0.05823,-0.30784 -0.05823,-0.60059 0,-0.90843 0.01897,-0.10037 0.110807,-0.19645 0.129775,-0.29672 0.07491,-0.39601 -0.06284,-0.77295 0,-1.16798 0.02249,-0.14137 0.107289,-0.28512 0.129776,-0.4265 0.07583,-0.47669 -0.111633,-0.94902 0,-1.42753 0.02347,-0.10052 0.106317,-0.19616 0.129775,-0.29672 0.05977,-0.25618 -0.07773,-0.5232 0,-0.77865 0.01934,-0.0636 0.110432,-0.10332 0.129776,-0.16694 0.04697,-0.15437 0.05819,-0.9385 0,-1.03821 -0.160364,-0.27479 -0.129776,0.082 -0.129776,-0.22238 0,-0.92408 -0.02043,-1.7497 0.259551,-2.66984 0.23844,-0.78362 -0.269012,-1.43295 -0.129775,-2.16902 0.133638,-0.70646 0.227639,-1.36509 0.389326,-2.05813 0.113393,-0.48604 0,-1.08758 0,-1.55731 0,-0.52373 -0.141853,-1.99954 0,-2.46574 0.01934,-0.0635 0.102418,-0.10448 0.129776,-0.16694 0.08595,-0.19653 0,-0.70529 0,-0.90843 0,-0.18483 -0.05711,-0.46118 0,-0.64888 0.01934,-0.0636 0.110431,-0.10332 0.129775,-0.16694 0.0684,-0.22479 0.05246,-0.45407 0,-0.64888 -0.01484,-0.0551 -0.110429,-0.0401 -0.129775,-0.0926 -0.08862,-0.24048 0.03003,-0.58776 0.129775,-0.81582 0.138428,-0.3165 -0.138427,-0.7217 0,-1.0382 0.212326,-0.48546 0.03486,-0.85836 0.129776,-1.07538 0.02736,-0.0625 0.129775,-0.10571 0.129775,-0.16693 0,-0.0612 -0.102415,-0.0457 -0.129775,-0.0926 -0.155729,-0.26686 0.155731,-0.90111 0,-1.16798 -0.12115,-0.20759 -0.129776,-0.31483 -0.129776,-0.61171 0,-0.12303 -0.05389,-0.39588 0,-0.5191 0.02736,-0.0625 0.129776,-0.10581 0.129776,-0.16694 0,-0.0433 -0.09919,0.059 -0.129776,0.0372 -0.05936,-0.0423 -0.04338,-0.93902 0,-1.03821 0.02736,-0.0625 0.102418,-0.10447 0.129776,-0.16694 0.110834,-0.2534 -0.129776,-1.05917 -0.129776,-0.74149 0,0.0612 0.08652,0.0617 0.129776,0.0926"
       id="path39-3" />
    <path
       style="fill:url(#pattern47-4-8);fill-opacity:1;stroke:#000000;stroke-width:0.499999;stroke-dasharray:none;stroke-dashoffset:0"
       d="m 105.04304,122.77447 c 0.26391,0.53104 0.23953,1.14909 0.38932,1.70536 0.13477,0.50047 0.049,3.08117 0,3.63372 -0.0422,0.47585 -0.21739,1.02603 -0.25955,1.50187 -0.0702,0.79238 0.0702,1.54358 0,2.33595 -0.095,1.07279 -0.25969,2.15193 -0.38932,3.22612 -0.0429,0.35567 0.0382,0.68331 0,1.0382 -0.0244,0.22622 -0.10542,0.45985 -0.12978,0.68605 -0.0709,0.65871 0.0908,1.28496 0,1.94663 -0.0193,0.14095 -0.11281,0.28589 -0.12977,0.4265 -0.0429,0.35568 0.0489,0.6816 0,1.0382 -0.0813,0.59233 -0.16621,1.17457 -0.25956,1.76141 -0.0356,0.22355 0.0424,0.42465 0,0.64888 -0.0703,0.37159 -0.20069,0.74253 -0.25955,1.11254 -0.0828,0.52045 0.12186,1.03498 0,1.55731 -0.0235,0.10052 -0.10631,0.19616 -0.12977,0.29672 -0.0486,0.20846 0.0633,0.44068 0,0.64888 -0.0193,0.0635 -0.11043,0.10332 -0.12978,0.16693 -0.10742,0.35304 -0.0824,1.25122 0,1.55731 0.0235,0.0871 0.11081,0.13297 0.12978,0.22239 0.073,0.34411 0.11909,1.2957 0,1.68708 -0.0193,0.0635 -0.11043,0.10332 -0.12978,0.16694 -0.1486,0.48838 0,2.22807 0,2.72529 0,0.53042 -0.0956,1.22269 -0.25955,1.76142 -0.12482,0.4102 -0.0205,1.13288 0.12978,1.39036 0.19034,0.32616 -0.19034,1.10137 0,1.42753 0.0274,0.0469 0.10241,0.0457 0.12977,0.0926 0.0392,0.0672 -0.06,0.34653 0,0.38933 0.0306,0.0219 0.0992,-0.059 0.12978,-0.0372 0.0612,0.0437 -0.0612,0.2159 0,0.25955 0.0306,0.0219 0.0992,-0.059 0.12977,-0.0372 0.0612,0.0437 -0.0612,0.21591 0,0.25955 0.0649,0.0463 0.19467,0.009 0.25955,0.0555 0.0306,0.0219 -0.0306,0.10797 0,0.12977 0.25215,0.17994 1.25729,-0.7494 1.29776,-0.76099 0.20325,-0.0583 0.16146,-0.20771 0.25955,-0.33391 0.0306,-0.0393 0.0992,0.002 0.12978,-0.0371 0.0612,-0.0787 -0.0612,-0.18084 0,-0.25955 0.0433,-0.0557 0.34607,-0.18562 0.38932,-0.24127 0.128,-0.16467 0.0352,-0.56439 0.12978,-0.68606 0.0306,-0.0393 0.0992,0.002 0.12977,-0.0372 0.15141,-0.19477 -0.1514,-0.71366 0,-0.90843 0.0306,-0.0393 0.0992,0.002 0.12978,-0.0372 0.0337,-0.0433 0.12977,-0.88045 0.12977,-1.07536 0,-1.36516 -0.13544,-2.78794 0.12978,-4.18999 0.0582,-0.30783 -0.0582,-0.60059 0,-0.90843 0.019,-0.10037 0.11081,-0.19644 0.12977,-0.29672 0.0749,-0.39601 -0.0628,-0.77297 0,-1.16798 0.0225,-0.14137 0.10729,-0.28512 0.12978,-0.42649 0.0758,-0.47669 -0.11163,-0.94903 0,-1.42753 0.0235,-0.10052 0.10632,-0.19616 0.12978,-0.29673 0.0598,-0.25619 -0.0777,-0.52321 0,-0.77865 0.0193,-0.0635 0.11043,-0.10332 0.12977,-0.16694 0.047,-0.15438 0.0582,-0.9385 0,-1.03821 -0.16036,-0.2748 -0.12977,0.082 -0.12977,-0.22238 0,-0.92408 -0.0204,-1.74971 0.25955,-2.66984 0.23844,-0.78362 -0.26902,-1.43295 -0.12978,-2.16902 0.13364,-0.70646 0.22764,-1.36509 0.38933,-2.05814 0.11339,-0.48603 0,-1.08758 0,-1.55731 0,-0.52373 -0.14186,-1.99953 0,-2.46574 0.0193,-0.0635 0.10242,-0.10447 0.12977,-0.16693 0.0859,-0.19651 0,-0.70529 0,-0.90843 0,-0.18483 -0.0571,-0.46118 0,-0.64888 0.0193,-0.0635 0.11043,-0.10332 0.12978,-0.16694 0.0684,-0.22478 0.0525,-0.45409 0,-0.64888 -0.0148,-0.0551 -0.11043,-0.0401 -0.12978,-0.0926 -0.0886,-0.24049 0.03,-0.58775 0.12978,-0.81582 0.13843,-0.31649 -0.13843,-0.7217 0,-1.0382 0.21232,-0.48545 0.0349,-0.85838 0.12977,-1.07537 0.0274,-0.0625 0.12978,-0.10581 0.12978,-0.16694 0,-0.0612 -0.10242,-0.0457 -0.12978,-0.0926 -0.15572,-0.26687 0.15574,-0.90113 0,-1.16798 -0.12115,-0.2076 -0.12977,-0.31484 -0.12977,-0.61172 0,-0.12303 -0.0539,-0.39588 0,-0.5191 0.0274,-0.0625 0.12977,-0.10581 0.12977,-0.16693 0,-0.0433 -0.0992,0.059 -0.12977,0.0372 -0.0594,-0.0423 -0.0434,-0.93901 0,-1.03821 0.0274,-0.0625 0.10242,-0.10447 0.12977,-0.16693 0.11084,-0.25342 -0.12977,-1.05918 -0.12977,-0.7415 0,0.0612 0.0865,0.0617 0.12977,0.0926"
       id="path39-3-8" />
    <rect
       style="fill:url(#pattern58);fill-opacity:1;stroke:#000000;stroke-width:0;stroke-dasharray:none;stroke-dashoffset:0"
       id="rect55"
       width="103.23239"
       height="17.199717"
       x="25.218363"
       y="152.79582"
       transform="matrix(0.96134909,-0.2753324,0,1,0,0)" />
  </g>
</svg>
