<?xml version="1.0" encoding="UTF-8" standalone="no"?>
<!-- Created with Inkscape (http://www.inkscape.org/) -->

<svg
   width="300mm"
   height="165mm"
   viewBox="0 0 300 165"
   version="1.1"
   id="svg1"
   inkscape:version="1.4 (86a8ad7, 2024-10-11)"
   sodipodi:docname="mixing_sorting.svg"
   inkscape:export-filename="mixing_sorting.png"
   inkscape:export-xdpi="96"
   inkscape:export-ydpi="96"
   xmlns:inkscape="http://www.inkscape.org/namespaces/inkscape"
   xmlns:sodipodi="http://sodipodi.sourceforge.net/DTD/sodipodi-0.dtd"
   xmlns:xlink="http://www.w3.org/1999/xlink"
   xmlns="http://www.w3.org/2000/svg"
   xmlns:svg="http://www.w3.org/2000/svg">
  <sodipodi:namedview
     id="namedview1"
     pagecolor="#505050"
     bordercolor="#eeeeee"
     borderopacity="1"
     inkscape:showpageshadow="0"
     inkscape:pageopacity="0"
     inkscape:pagecheckerboard="0"
     inkscape:deskcolor="#505050"
     inkscape:document-units="mm"
     inkscape:zoom="0.84487663"
     inkscape:cx="459.23865"
     inkscape:cy="449.17801"
     inkscape:window-width="2256"
     inkscape:window-height="1398"
     inkscape:window-x="-11"
     inkscape:window-y="-11"
     inkscape:window-maximized="1"
     inkscape:current-layer="layer1" />
  <defs
     id="defs1">
    <rect
       x="43.904072"
       y="29.966272"
       width="45.994743"
       height="24.391151"
       id="rect201" />
    <clipPath
       clipPathUnits="userSpaceOnUse"
       id="clipPath128">
      <rect
         style="fill:#000000;stroke:none;stroke-width:0.999995;stroke-linecap:butt;stroke-linejoin:bevel;paint-order:stroke markers fill;stop-color:#000000"
         id="rect128"
         width="46.19186"
         height="80.006783"
         x="74.999985"
         y="399.99661" />
    </clipPath>
    <clipPath
       clipPathUnits="userSpaceOnUse"
       id="clipPath126">
      <rect
         style="fill:#000000;stroke:none;stroke-width:0.999995;stroke-linecap:butt;stroke-linejoin:bevel;paint-order:stroke markers fill;stop-color:#000000"
         id="rect126"
         width="46.19186"
         height="80.006783"
         x="74.999985"
         y="399.99661" />
    </clipPath>
    <clipPath
       clipPathUnits="userSpaceOnUse"
       id="clipPath120">
      <path
         id="path120"
         style="stroke-width:0.1;stroke-linecap:square;paint-order:markers fill stroke;stop-color:#000000"
         d="m -880.82767,-187.29769 h 1640.84 v 73.28155 h -1640.84 z" />
    </clipPath>
    <inkscape:path-effect
       effect="spiro"
       id="path-effect115"
       is_visible="true"
       lpeversion="1" />
    <inkscape:path-effect
       effect="spiro"
       id="path-effect113"
       is_visible="true"
       lpeversion="1" />
    <pattern
       inkscape:collect="always"
       xlink:href="#Strips1_3"
       preserveAspectRatio="xMidYMid"
       id="pattern90"
       patternTransform="matrix(0.35355339,0.35355339,-0.35355339,0.35355339,0,0)"
       x="0"
       y="0" />
    <pattern
       inkscape:collect="always"
       xlink:href="#Strips1_3"
       preserveAspectRatio="xMidYMid"
       id="pattern89"
       patternTransform="matrix(0.35355339,0.35355339,-0.35355339,0.35355339,0,0)"
       x="0"
       y="0" />
    <pattern
       inkscape:collect="always"
       xlink:href="#Strips1_3"
       preserveAspectRatio="xMidYMid"
       id="pattern88"
       patternTransform="matrix(0.35355339,0.35355339,-0.35355339,0.35355339,0,0)"
       x="0"
       y="0" />
    <pattern
       inkscape:collect="always"
       patternUnits="userSpaceOnUse"
       width="4"
       height="1"
       patternTransform="translate(0,0) scale(2,2)"
       preserveAspectRatio="xMidYMid"
       id="Strips1_3"
       style="fill:#000000"
       inkscape:stockid="Stripes 04 (1:3)"
       inkscape:isstock="true"
       inkscape:label="Stripes 04 (1:3)">
      <rect
   style="stroke:none"
   x="0"
   y="-0.5"
   width="1"
   height="2"
   id="rect152" />

    </pattern>
    <linearGradient
       id="linearGradient81"
       inkscape:collect="always">
      <stop
         style="stop-color:#000000;stop-opacity:1;"
         offset="0"
         id="stop81" />
      <stop
         style="stop-color:#000000;stop-opacity:0;"
         offset="1"
         id="stop82" />
    </linearGradient>
    <linearGradient
       id="linearGradient79"
       inkscape:collect="always">
      <stop
         style="stop-color:#000000;stop-opacity:1;"
         offset="0"
         id="stop79" />
      <stop
         style="stop-color:#000000;stop-opacity:0;"
         offset="1"
         id="stop80" />
    </linearGradient>
    <inkscape:path-effect
       effect="bspline"
       id="path-effect78"
       is_visible="true"
       lpeversion="1.3"
       weight="33.333333"
       steps="2"
       helper_size="0"
       apply_no_weight="true"
       apply_with_weight="true"
       only_selected="false"
       uniform="false" />
    <linearGradient
       id="linearGradient77"
       inkscape:collect="always">
      <stop
         style="stop-color:#b8b8b8;stop-opacity:1;"
         offset="0"
         id="stop77" />
      <stop
         style="stop-color:#000000;stop-opacity:0;"
         offset="1"
         id="stop78" />
    </linearGradient>
    <inkscape:path-effect
       effect="spiro"
       id="path-effect72"
       is_visible="true"
       lpeversion="1" />
    <inkscape:path-effect
       effect="spiro"
       id="path-effect70"
       is_visible="true"
       lpeversion="1" />
    <inkscape:path-effect
       effect="bspline"
       id="path-effect57"
       is_visible="true"
       lpeversion="1.3"
       weight="33.333333"
       steps="2"
       helper_size="0"
       apply_no_weight="true"
       apply_with_weight="true"
       only_selected="false"
       uniform="false" />
    <clipPath
       clipPathUnits="userSpaceOnUse"
       id="clipPath52">
      <path
         id="path52"
         style="stroke-width:0.1;stroke-linecap:square;paint-order:markers fill stroke;stop-color:#000000"
         d="m -880.82767,-187.29769 h 1640.84 v 73.28155 h -1640.84 z" />
    </clipPath>
    <clipPath
       clipPathUnits="userSpaceOnUse"
       id="clipPath33">
      <rect
         style="fill:#000000;stroke:none;stroke-width:0.999995;stroke-linecap:butt;stroke-linejoin:bevel;paint-order:stroke markers fill;stop-color:#000000"
         id="rect33"
         width="46.19186"
         height="80.006783"
         x="74.999985"
         y="399.99661" />
    </clipPath>
    <inkscape:path-effect
       effect="bspline"
       id="path-effect2"
       is_visible="true"
       lpeversion="1.3"
       weight="33.333333"
       steps="2"
       helper_size="0"
       apply_no_weight="true"
       apply_with_weight="true"
       only_selected="false"
       uniform="false" />
    <inkscape:path-effect
       effect="bspline"
       id="path-effect2-4"
       is_visible="true"
       lpeversion="1.3"
       weight="33.333333"
       steps="2"
       helper_size="0"
       apply_no_weight="true"
       apply_with_weight="true"
       only_selected="false"
       uniform="false" />
    <inkscape:path-effect
       effect="bspline"
       id="path-effect2-4-5"
       is_visible="true"
       lpeversion="1.3"
       weight="33.333333"
       steps="2"
       helper_size="0"
       apply_no_weight="true"
       apply_with_weight="true"
       only_selected="false"
       uniform="false" />
    <inkscape:path-effect
       effect="bspline"
       id="path-effect2-4-5-1"
       is_visible="true"
       lpeversion="1.3"
       weight="33.333333"
       steps="2"
       helper_size="0"
       apply_no_weight="true"
       apply_with_weight="true"
       only_selected="false"
       uniform="false" />
    <inkscape:path-effect
       effect="spiro"
       id="path-effect6-7"
       is_visible="true"
       lpeversion="1" />
    <inkscape:path-effect
       effect="spiro"
       id="path-effect6"
       is_visible="true"
       lpeversion="1" />
    <inkscape:path-effect
       effect="spiro"
       id="path-effect6-9"
       is_visible="true"
       lpeversion="1" />
    <inkscape:path-effect
       effect="spiro"
       id="path-effect6-7-5"
       is_visible="true"
       lpeversion="1" />
    <inkscape:path-effect
       effect="spiro"
       id="path-effect6-7-9"
       is_visible="true"
       lpeversion="1" />
    <inkscape:path-effect
       effect="spiro"
       id="path-effect6-8"
       is_visible="true"
       lpeversion="1" />
    <marker
       style="overflow:visible"
       id="ConcaveTriangle-9"
       refX="0"
       refY="0"
       orient="auto-start-reverse"
       inkscape:stockid="Concave triangle arrow"
       markerWidth="1"
       markerHeight="1"
       viewBox="0 0 1 1"
       inkscape:isstock="true"
       inkscape:collect="always"
       preserveAspectRatio="xMidYMid">
      <path
         transform="scale(0.7)"
         d="M -2,-4 9,0 -2,4 c 2,-2.33 2,-5.66 0,-8 z"
         style="fill:context-stroke;fill-rule:evenodd;stroke:none"
         id="path7-2" />
    </marker>
    <inkscape:path-effect
       effect="spiro"
       id="path-effect6-7-9-0"
       is_visible="true"
       lpeversion="1" />
    <marker
       style="overflow:visible"
       id="ConcaveTriangle"
       refX="0"
       refY="0"
       orient="auto-start-reverse"
       inkscape:stockid="Concave triangle arrow"
       markerWidth="1"
       markerHeight="1"
       viewBox="0 0 1 1"
       inkscape:isstock="true"
       inkscape:collect="always"
       preserveAspectRatio="xMidYMid">
      <path
         transform="scale(0.7)"
         d="M -2,-4 9,0 -2,4 c 2,-2.33 2,-5.66 0,-8 z"
         style="fill:context-stroke;fill-rule:evenodd;stroke:none"
         id="path7" />
    </marker>
    <inkscape:path-effect
       effect="spiro"
       id="path-effect6-8-1"
       is_visible="true"
       lpeversion="1" />
    <linearGradient
       inkscape:collect="always"
       xlink:href="#linearGradient77"
       id="linearGradient78"
       x1="105"
       y1="21"
       x2="105"
       y2="51"
       gradientUnits="userSpaceOnUse" />
    <inkscape:path-effect
       effect="bspline"
       id="path-effect78-9"
       is_visible="true"
       lpeversion="1.3"
       weight="33.333333"
       steps="2"
       helper_size="0"
       apply_no_weight="true"
       apply_with_weight="true"
       only_selected="false"
       uniform="false" />
    <linearGradient
       inkscape:collect="always"
       xlink:href="#linearGradient79"
       id="linearGradient80"
       x1="105.00019"
       y1="12.5"
       x2="105.00019"
       y2="42.5"
       gradientUnits="userSpaceOnUse" />
    <linearGradient
       inkscape:collect="always"
       xlink:href="#linearGradient81"
       id="linearGradient82"
       x1="35"
       y1="12.5"
       x2="35"
       y2="42.5"
       gradientUnits="userSpaceOnUse" />
    <linearGradient
       inkscape:collect="always"
       xlink:href="#linearGradient81"
       id="linearGradient100"
       gradientUnits="userSpaceOnUse"
       x1="35"
       y1="12.5"
       x2="35"
       y2="42.5" />
    <inkscape:path-effect
       effect="bspline"
       id="path-effect57-5"
       is_visible="true"
       lpeversion="1.3"
       weight="33.333333"
       steps="2"
       helper_size="0"
       apply_no_weight="true"
       apply_with_weight="true"
       only_selected="false"
       uniform="false" />
    <marker
       style="overflow:visible"
       id="ConcaveTriangle-9-6"
       refX="0"
       refY="0"
       orient="auto-start-reverse"
       inkscape:stockid="Concave triangle arrow"
       markerWidth="1"
       markerHeight="1"
       viewBox="0 0 1 1"
       inkscape:isstock="true"
       inkscape:collect="always"
       preserveAspectRatio="xMidYMid">
      <path
         transform="scale(0.7)"
         d="M -2,-4 9,0 -2,4 c 2,-2.33 2,-5.66 0,-8 z"
         style="fill:context-stroke;fill-rule:evenodd;stroke:none"
         id="path7-2-4" />
    </marker>
    <inkscape:path-effect
       effect="spiro"
       id="path-effect72-0"
       is_visible="true"
       lpeversion="1" />
    <marker
       style="overflow:visible"
       id="ConcaveTriangle-6"
       refX="0"
       refY="0"
       orient="auto-start-reverse"
       inkscape:stockid="Concave triangle arrow"
       markerWidth="1"
       markerHeight="1"
       viewBox="0 0 1 1"
       inkscape:isstock="true"
       inkscape:collect="always"
       preserveAspectRatio="xMidYMid">
      <path
         transform="scale(0.7)"
         d="M -2,-4 9,0 -2,4 c 2,-2.33 2,-5.66 0,-8 z"
         style="fill:context-stroke;fill-rule:evenodd;stroke:none"
         id="path7-1" />
    </marker>
    <inkscape:path-effect
       effect="spiro"
       id="path-effect70-8"
       is_visible="true"
       lpeversion="1" />
    <pattern
       inkscape:collect="always"
       xlink:href="#Strips1_3-9"
       preserveAspectRatio="xMidYMid"
       id="pattern88-3"
       patternTransform="matrix(0.35355339,0.35355339,-0.35355339,0.35355339,230.00018,-1.2052237e-6)"
       x="0"
       y="0" />
    <pattern
       inkscape:collect="always"
       patternUnits="userSpaceOnUse"
       width="4"
       height="1"
       patternTransform="translate(0,0) scale(2,2)"
       preserveAspectRatio="xMidYMid"
       id="Strips1_3-9"
       style="fill:#000000"
       inkscape:stockid="Stripes 04 (1:3)"
       inkscape:isstock="true"
       inkscape:label="Stripes 04 (1:3)">
      <rect
   style="stroke:none"
   x="0"
   y="-0.5"
   width="1"
   height="2"
   id="rect152-8" />

    </pattern>
    <linearGradient
       inkscape:collect="always"
       xlink:href="#linearGradient81"
       id="linearGradient115"
       gradientUnits="userSpaceOnUse"
       x1="35"
       y1="12.5"
       x2="35"
       y2="42.5"
       gradientTransform="translate(230.00018)" />
    <marker
       style="overflow:visible"
       id="ConcaveTriangle-9-6-0"
       refX="0"
       refY="0"
       orient="auto-start-reverse"
       inkscape:stockid="Concave triangle arrow"
       markerWidth="1"
       markerHeight="1"
       viewBox="0 0 1 1"
       inkscape:isstock="true"
       inkscape:collect="always"
       preserveAspectRatio="xMidYMid">
      <path
         transform="scale(0.7)"
         d="M -2,-4 9,0 -2,4 c 2,-2.33 2,-5.66 0,-8 z"
         style="fill:context-stroke;fill-rule:evenodd;stroke:none"
         id="path7-2-4-9" />
    </marker>
    <inkscape:path-effect
       effect="spiro"
       id="path-effect72-0-9"
       is_visible="true"
       lpeversion="1" />
    <marker
       style="overflow:visible"
       id="ConcaveTriangle-6-6"
       refX="0"
       refY="0"
       orient="auto-start-reverse"
       inkscape:stockid="Concave triangle arrow"
       markerWidth="1"
       markerHeight="1"
       viewBox="0 0 1 1"
       inkscape:isstock="true"
       inkscape:collect="always"
       preserveAspectRatio="xMidYMid">
      <path
         transform="scale(0.7)"
         d="M -2,-4 9,0 -2,4 c 2,-2.33 2,-5.66 0,-8 z"
         style="fill:context-stroke;fill-rule:evenodd;stroke:none"
         id="path7-1-8" />
    </marker>
    <inkscape:path-effect
       effect="spiro"
       id="path-effect70-8-3"
       is_visible="true"
       lpeversion="1" />
    <marker
       style="overflow:visible"
       id="ConcaveTriangle-9-6-0-2"
       refX="0"
       refY="0"
       orient="auto-start-reverse"
       inkscape:stockid="Concave triangle arrow"
       markerWidth="1"
       markerHeight="1"
       viewBox="0 0 1 1"
       inkscape:isstock="true"
       inkscape:collect="always"
       preserveAspectRatio="xMidYMid">
      <path
         transform="scale(0.7)"
         d="M -2,-4 9,0 -2,4 c 2,-2.33 2,-5.66 0,-8 z"
         style="fill:context-stroke;fill-rule:evenodd;stroke:none"
         id="path7-2-4-9-5" />
    </marker>
    <inkscape:path-effect
       effect="spiro"
       id="path-effect72-0-9-5"
       is_visible="true"
       lpeversion="1" />
    <marker
       style="overflow:visible"
       id="ConcaveTriangle-6-6-3"
       refX="0"
       refY="0"
       orient="auto-start-reverse"
       inkscape:stockid="Concave triangle arrow"
       markerWidth="1"
       markerHeight="1"
       viewBox="0 0 1 1"
       inkscape:isstock="true"
       inkscape:collect="always"
       preserveAspectRatio="xMidYMid">
      <path
         transform="scale(0.7)"
         d="M -2,-4 9,0 -2,4 c 2,-2.33 2,-5.66 0,-8 z"
         style="fill:context-stroke;fill-rule:evenodd;stroke:none"
         id="path7-1-8-3" />
    </marker>
    <inkscape:path-effect
       effect="spiro"
       id="path-effect70-8-3-3"
       is_visible="true"
       lpeversion="1" />
    <marker
       style="overflow:visible"
       id="ConcaveTriangle-9-9"
       refX="0"
       refY="0"
       orient="auto-start-reverse"
       inkscape:stockid="Concave triangle arrow"
       markerWidth="1"
       markerHeight="1"
       viewBox="0 0 1 1"
       inkscape:isstock="true"
       inkscape:collect="always"
       preserveAspectRatio="xMidYMid">
      <path
         transform="scale(0.7)"
         d="M -2,-4 9,0 -2,4 c 2,-2.33 2,-5.66 0,-8 z"
         style="fill:context-stroke;fill-rule:evenodd;stroke:none"
         id="path7-2-8" />
    </marker>
    <inkscape:path-effect
       effect="spiro"
       id="path-effect72-9"
       is_visible="true"
       lpeversion="1" />
    <marker
       style="overflow:visible"
       id="ConcaveTriangle-7"
       refX="0"
       refY="0"
       orient="auto-start-reverse"
       inkscape:stockid="Concave triangle arrow"
       markerWidth="1"
       markerHeight="1"
       viewBox="0 0 1 1"
       inkscape:isstock="true"
       inkscape:collect="always"
       preserveAspectRatio="xMidYMid">
      <path
         transform="scale(0.7)"
         d="M -2,-4 9,0 -2,4 c 2,-2.33 2,-5.66 0,-8 z"
         style="fill:context-stroke;fill-rule:evenodd;stroke:none"
         id="path7-22" />
    </marker>
    <inkscape:path-effect
       effect="spiro"
       id="path-effect70-82"
       is_visible="true"
       lpeversion="1" />
    <inkscape:path-effect
       effect="bspline"
       id="path-effect78-9-2"
       is_visible="true"
       lpeversion="1.3"
       weight="33.333333"
       steps="2"
       helper_size="0"
       apply_no_weight="true"
       apply_with_weight="true"
       only_selected="false"
       uniform="false" />
  </defs>
  <g
     inkscape:label="Layer 1"
     inkscape:groupmode="layer"
     id="layer1">
    <rect
       style="fill:#ffffff;stroke:#ffffff;stroke-width:0.436016"
       id="rect1"
       width="299.56396"
       height="164.56398"
       x="0.2180084"
       y="0.2180084"
       sodipodi:insensitive="true" />
  </g>
  <g
     inkscape:groupmode="layer"
     id="layer3"
     inkscape:label="profile baseline">
    <rect
       style="fill:url(#linearGradient82);stroke:#000000;stroke-width:0.300369;stroke-dasharray:none;stroke-dashoffset:0"
       id="rect16"
       width="29.699631"
       height="14.699631"
       x="20.150185"
       y="20.150185" />
    <rect
       style="fill:none;fill-opacity:1;stroke:#000000;stroke-width:0.33;stroke-dasharray:none;stroke-dashoffset:0"
       id="rect16-1"
       width="29.67038"
       height="9.6703806"
       x="20.16481"
       y="35.16481" />
    <rect
       style="fill:#ffffff;stroke:#000000;stroke-width:0.316056;stroke-dasharray:none;stroke-dashoffset:0"
       id="rect16-1-6"
       width="29.683945"
       height="29.683945"
       x="20.158028"
       y="45.158028" />
    <rect
       style="fill:url(#pattern88);fill-opacity:1;stroke:#000000;stroke-width:0.428;stroke-dasharray:none;stroke-dashoffset:0"
       id="rect16-1-6-8"
       width="29.572269"
       height="54.572269"
       x="20.213867"
       y="75.213867" />
    <path
       style="fill:#ffffff;stroke:#000000;stroke-width:0.4004;stroke-dasharray:none"
       d="m 43.456637,38.403797 c -0.76427,-0.08023 -1.07412,0.02352 -1.7562,0.250885 -0.60619,0.202065 -0.54044,0.820561 -0.62721,1.25443 -0.0259,0.129659 -0.21894,0.282826 -0.12545,0.376327 0.12095,0.120941 2.10924,-0.141216 2.38342,-0.250886 0.2666,-0.10664 1.20257,-0.834612 1.12898,-1.128985 -0.0321,-0.12828 -0.0995,-0.246668 -0.12544,-0.376327 -0.0164,-0.082 0.0828,-0.239059 0,-0.250886 -0.2927,-0.04181 -0.5854,0.08363 -0.8781,0.125442 z"
       id="path5-8" />
    <path
       style="fill:#ffffff;stroke:#000000;stroke-width:0.4004;stroke-dasharray:none"
       d="m 44.257367,54.57935 c -0.76427,-0.08023 -1.07411,0.02352 -1.7562,0.250885 -0.60619,0.202065 -0.54044,0.820561 -0.62721,1.25443 -0.0259,0.129659 -0.21894,0.282826 -0.12544,0.376327 0.12094,0.120941 2.10924,-0.141216 2.38341,-0.250886 0.2666,-0.10664 1.20258,-0.834612 1.12898,-1.128985 -0.0321,-0.12828 -0.0995,-0.246668 -0.12544,-0.376327 -0.0164,-0.082 0.0828,-0.239059 0,-0.250886 -0.2927,-0.04181 -0.5854,0.08363 -0.8781,0.125442 z"
       id="path5-2-9" />
    <path
       style="fill:#ffffff;stroke:#000000;stroke-width:0.4004;stroke-dasharray:none"
       d="m 28.654392,49.129151 c -0.86119,0.166518 -1.218906,0.812604 -1.881643,1.254427 -0.202866,0.135244 -0.454808,0.203924 -0.627213,0.376327 -0.05913,0.05913 0.0374,0.176085 0,0.250886 -0.351255,0.702514 -0.501772,0.467458 -0.501772,1.254426 0,0.14092 -0.05274,0.538121 0.125445,0.627216 0.112199,0.0561 0.250886,0 0.376327,0 1.703467,0 1.190837,0.06359 2.383412,-1.128985 0.360495,-0.360494 0.233566,0.212043 0.376327,-0.501771 0.131263,-0.656307 -0.17486,-1.524328 -0.250883,-2.132526 z"
       id="path6-2" />
    <path
       style="fill:#ffffff;stroke:#000000;stroke-width:0.4004;stroke-dasharray:none"
       d="m 29.908813,38.278354 c -1.79484,0.299143 0.32676,-0.08169 -3.01062,0.752658 -0.24675,0.06169 -0.513626,0.03852 -0.752659,0.125441 -0.889314,0.32339 -0.62217,0.687414 -0.752654,0.752658 -0.0748,0.0374 -0.191752,-0.05914 -0.250886,0 -0.05913,0.05913 0,0.167256 0,0.250886 0,0.511746 -0.03474,0.538051 0.501771,0.752654 0.420429,0.168172 0.113679,-0.05978 0.376328,-0.125441 0.121698,-0.03043 0.259858,0.04659 0.376327,0 0.297973,-0.11919 0.449153,-0.651489 0.752653,-0.752658 0.19729,-0.06576 1.30272,0.07716 1.37987,0 0.0591,-0.05913 -0.0374,-0.176085 0,-0.250883 0.0187,-0.0374 0.0858,0.01323 0.12545,0 0.0525,-0.01749 0.60627,-0.47485 0.62721,-0.501772 0.24218,-0.31138 0.41814,-0.669028 0.62721,-1.003543 z"
       id="path8-7" />
    <path
       style="fill:#ffffff;stroke:#000000;stroke-width:0.4004;stroke-dasharray:none"
       d="m 23.824844,25.734083 c 1.025369,-0.512683 0.314773,-0.250886 2.25797,-0.250886 0.182846,0 0.699765,-0.05289 0.8781,0.125442 0.172405,0.172405 0.220239,0.439909 0.376327,0.627216 0.05986,0.07183 0.199022,0.04765 0.250886,0.125441 0.09487,0.142299 0.134935,0.926582 0,1.128985 -0.03362,0.05043 -0.668692,0 -0.752658,0 -0.167256,0 -0.426971,-0.1496 -0.501769,0 -0.0374,0.0748 0.05913,0.191752 0,0.250886 -0.104187,0.104188 -0.561334,-0.05956 -0.627213,-0.125444 -0.06611,-0.06611 -0.05064,-0.194786 -0.125444,-0.250886 -0.105783,-0.07934 -0.246669,-0.09951 -0.376328,-0.125441 -0.082,-0.0164 -0.191751,0.05913 -0.250886,0 -0.07954,-0.07954 -0.07939,-0.70085 -0.125441,-0.752658 -0.277799,-0.312523 -0.669028,-0.501769 -1.003544,-0.752655 z"
       id="path9-9" />
    <path
       style="fill:#ffffff;stroke:#000000;stroke-width:0.4004;stroke-dasharray:none"
       d="m 44.083849,69.8272 c -0.008,0.01678 -1.30315,0.09745 -1.31715,0.125445 -0.028,0.0561 0.0348,0.135974 0,0.188163 -0.0492,0.0738 -0.15214,0.107106 -0.18816,0.188164 -0.1116,0.251098 -0.28261,0.787239 -0.31361,1.066263 -0.003,0.02939 0.045,0.03907 0.0627,0.06272 0.0731,0.09753 0.0906,0.240461 0.18817,0.313605 0.0529,0.03967 0.13527,0.02305 0.18816,0.06272 0.2014,0.151053 0.36309,0.350718 0.56449,0.501771 0.0966,0.07248 0.63736,0.139584 0.75266,0.06272 0.21294,-0.14196 0.056,-0.08563 0.18816,-0.250886 0.0554,-0.06926 0.13494,-0.117203 0.18817,-0.188164 0.15482,-0.206436 0.16254,-0.898411 0.18816,-1.128985 0.0167,-0.150529 0.004,0.0042 -0.0627,-0.06272 -0.0331,-0.03306 -0.0253,-0.09739 -0.0627,-0.125445 -0.0652,-0.169441 -0.22491,-0.0036 -0.31361,-0.06272 -0.13518,-0.09013 -0.0627,-0.744347 -0.0627,-0.752658 z"
       id="path10-5" />
    <path
       style="fill:#ffffff;stroke:#000000;stroke-width:0.4004;stroke-dasharray:none"
       d="m 42.264928,29.434643 c -0.36928,0.283094 -1.03052,-0.433496 -1.50531,-0.250885 -0.48507,0.186563 -0.60452,0.559112 -0.75266,1.00354 -0.14746,0.442402 -0.27065,0.693349 -0.12544,1.128985 0.19005,0.570156 1.50487,0.569902 1.81892,0.43905 0.20907,-0.104537 0.41814,-0.209071 0.62721,-0.313608 0,-0.04181 -0.0268,-0.09332 0,-0.125442 0.0857,-0.102843 0.22791,-0.148042 0.31361,-0.250885 0.0325,-0.03899 0.0648,-1.504435 0.0627,-1.505313 -0.1399,-0.05996 -0.2927,-0.08363 -0.43905,-0.125442 z"
       id="path11-43" />
    <path
       style="fill:#ffffff;stroke:#000000;stroke-width:0.4004;stroke-dasharray:none"
       d="m 29.933025,62.252148 c -0.369281,0.283094 -1.030525,-0.433496 -1.505312,-0.250885 -0.485066,0.186563 -0.604515,0.559112 -0.752658,1.00354 -0.147465,0.442402 -0.270653,0.693349 -0.125441,1.128985 0.190052,0.570156 1.50487,0.569902 1.81892,0.43905 0.209071,-0.104537 0.418142,-0.209071 0.627213,-0.313608 0,-0.04181 -0.02677,-0.09332 0,-0.125442 0.0857,-0.102843 0.227904,-0.148042 0.313606,-0.250885 0.0325,-0.03899 0.06477,-1.504435 0.06272,-1.505313 -0.139899,-0.05996 -0.292701,-0.08363 -0.43905,-0.125442 z"
       id="path11-4-1" />
  </g>
  <g
     inkscape:groupmode="layer"
     id="layer7"
     inkscape:label="sorting 2">
    <rect
       style="fill:url(#linearGradient115);fill-opacity:1;stroke:#000000;stroke-width:0.300369;stroke-dasharray:none;stroke-dashoffset:0"
       id="rect16-7"
       width="29.699631"
       height="14.699631"
       x="250.15036"
       y="20.150185" />
    <rect
       style="fill:none;fill-opacity:1;stroke:#000000;stroke-width:0.33;stroke-dasharray:none;stroke-dashoffset:0"
       id="rect16-1-7"
       width="29.67038"
       height="9.6703806"
       x="250.16499"
       y="35.16481" />
    <rect
       style="fill:#ffffff;stroke:#000000;stroke-width:0.316056;stroke-dasharray:none;stroke-dashoffset:0"
       id="rect16-1-6-83"
       width="29.683945"
       height="29.683945"
       x="250.1582"
       y="45.158028" />
    <rect
       style="fill:url(#pattern88-3);fill-opacity:1;stroke:#000000;stroke-width:0.428;stroke-dasharray:none;stroke-dashoffset:0"
       id="rect16-1-6-8-8"
       width="29.572269"
       height="54.572269"
       x="250.21405"
       y="75.213867" />
    <path
       style="fill:#ffffff;stroke:#000000;stroke-width:0.4004;stroke-dasharray:none"
       d="m 273.45682,38.403796 c -0.76427,-0.08023 -1.07412,0.02352 -1.7562,0.250885 -0.60619,0.202065 -0.54044,0.820561 -0.62721,1.25443 -0.0259,0.129659 -0.21894,0.282826 -0.12545,0.376327 0.12095,0.120941 2.10924,-0.141216 2.38342,-0.250886 0.2666,-0.10664 1.20257,-0.834612 1.12898,-1.128985 -0.0321,-0.12828 -0.0995,-0.246668 -0.12544,-0.376327 -0.0164,-0.082 0.0828,-0.239059 0,-0.250886 -0.2927,-0.04181 -0.5854,0.08363 -0.8781,0.125442 z"
       id="path5-8-3" />
    <path
       style="fill:#ffffff;stroke:#000000;stroke-width:0.4004;stroke-dasharray:none"
       d="m 274.25755,54.579349 c -0.76427,-0.08023 -1.07411,0.02352 -1.7562,0.250885 -0.60619,0.202065 -0.54044,0.820561 -0.62721,1.25443 -0.0259,0.129659 -0.21894,0.282826 -0.12544,0.376327 0.12094,0.120941 2.10924,-0.141216 2.38341,-0.250886 0.2666,-0.10664 1.20258,-0.834612 1.12898,-1.128985 -0.0321,-0.12828 -0.0995,-0.246668 -0.12544,-0.376327 -0.0164,-0.082 0.0828,-0.239059 0,-0.250886 -0.2927,-0.04181 -0.5854,0.08363 -0.8781,0.125442 z"
       id="path5-2-9-7" />
    <path
       style="fill:#ffffff;stroke:#000000;stroke-width:0.4004;stroke-dasharray:none"
       d="m 258.65457,49.12915 c -0.86119,0.166518 -1.2189,0.812604 -1.88164,1.254427 -0.20287,0.135244 -0.45481,0.203924 -0.62721,0.376327 -0.0591,0.05913 0.0374,0.176085 0,0.250886 -0.35126,0.702514 -0.50178,0.467458 -0.50178,1.254426 0,0.14092 -0.0527,0.538121 0.12545,0.627216 0.1122,0.0561 0.25088,0 0.37633,0 1.70346,0 1.19083,0.06359 2.38341,-1.128985 0.36049,-0.360494 0.23356,0.212043 0.37632,-0.501771 0.13127,-0.656307 -0.17486,-1.524328 -0.25088,-2.132526 z"
       id="path6-2-10" />
    <path
       style="fill:#ffffff;stroke:#000000;stroke-width:0.4004;stroke-dasharray:none"
       d="m 259.90899,38.278353 c -1.79484,0.299143 0.32676,-0.08169 -3.01062,0.752658 -0.24675,0.06169 -0.51362,0.03852 -0.75266,0.125441 -0.88931,0.32339 -0.62217,0.687414 -0.75265,0.752658 -0.0748,0.0374 -0.19175,-0.05914 -0.25089,0 -0.0591,0.05913 0,0.167256 0,0.250886 0,0.511746 -0.0347,0.538051 0.50177,0.752654 0.42043,0.168172 0.11368,-0.05978 0.37633,-0.125441 0.1217,-0.03043 0.25986,0.04659 0.37633,0 0.29797,-0.11919 0.44915,-0.651489 0.75265,-0.752658 0.19729,-0.06576 1.30272,0.07716 1.37987,0 0.0591,-0.05913 -0.0374,-0.176085 0,-0.250883 0.0187,-0.0374 0.0858,0.01323 0.12545,0 0.0525,-0.01749 0.60627,-0.47485 0.62721,-0.501772 0.24218,-0.31138 0.41814,-0.669028 0.62721,-1.003543 z"
       id="path8-7-7" />
    <path
       style="fill:#ffffff;stroke:#000000;stroke-width:0.4004;stroke-dasharray:none"
       d="m 253.82502,25.734082 c 1.02537,-0.512683 0.31478,-0.250886 2.25797,-0.250886 0.18285,0 0.69977,-0.05289 0.8781,0.125442 0.17241,0.172405 0.22024,0.439909 0.37633,0.627216 0.0599,0.07183 0.19902,0.04765 0.25089,0.125441 0.0949,0.142299 0.13493,0.926582 0,1.128985 -0.0336,0.05043 -0.6687,0 -0.75266,0 -0.16726,0 -0.42697,-0.1496 -0.50177,0 -0.0374,0.0748 0.0591,0.191752 0,0.250886 -0.10419,0.104188 -0.56133,-0.05956 -0.62721,-0.125444 -0.0661,-0.06611 -0.0506,-0.194786 -0.12545,-0.250886 -0.10578,-0.07934 -0.24667,-0.09951 -0.37633,-0.125441 -0.082,-0.0164 -0.19175,0.05913 -0.25088,0 -0.0795,-0.07954 -0.0794,-0.70085 -0.12544,-0.752658 -0.2778,-0.312523 -0.66903,-0.501769 -1.00355,-0.752655 z"
       id="path9-9-3" />
    <path
       style="fill:#ffffff;stroke:#000000;stroke-width:0.4004;stroke-dasharray:none"
       d="m 274.08403,69.827199 c -0.008,0.01678 -1.30315,0.09745 -1.31715,0.125445 -0.028,0.0561 0.0348,0.135974 0,0.188163 -0.0492,0.0738 -0.15214,0.107106 -0.18816,0.188164 -0.1116,0.251098 -0.28261,0.787239 -0.31361,1.066263 -0.003,0.02939 0.045,0.03907 0.0627,0.06272 0.0731,0.09753 0.0906,0.240461 0.18817,0.313605 0.0529,0.03967 0.13527,0.02305 0.18816,0.06272 0.2014,0.151053 0.36309,0.350718 0.56449,0.501771 0.0966,0.07248 0.63736,0.139584 0.75266,0.06272 0.21294,-0.14196 0.056,-0.08563 0.18816,-0.250886 0.0554,-0.06926 0.13494,-0.117203 0.18817,-0.188164 0.15482,-0.206436 0.16254,-0.898411 0.18816,-1.128985 0.0167,-0.150529 0.004,0.0042 -0.0627,-0.06272 -0.0331,-0.03306 -0.0253,-0.09739 -0.0627,-0.125445 -0.0652,-0.169441 -0.22491,-0.0036 -0.31361,-0.06272 -0.13518,-0.09013 -0.0627,-0.744347 -0.0627,-0.752658 z"
       id="path10-5-4" />
    <path
       style="fill:#ffffff;stroke:#000000;stroke-width:0.4004;stroke-dasharray:none"
       d="m 272.26511,29.434642 c -0.36928,0.283094 -1.03052,-0.433496 -1.50531,-0.250885 -0.48507,0.186563 -0.60452,0.559112 -0.75266,1.00354 -0.14746,0.442402 -0.27065,0.693349 -0.12544,1.128985 0.19005,0.570156 1.50487,0.569902 1.81892,0.43905 0.20907,-0.104537 0.41814,-0.209071 0.62721,-0.313608 0,-0.04181 -0.0268,-0.09332 0,-0.125442 0.0857,-0.102843 0.22791,-0.148042 0.31361,-0.250885 0.0325,-0.03899 0.0648,-1.504435 0.0627,-1.505313 -0.1399,-0.05996 -0.2927,-0.08363 -0.43905,-0.125442 z"
       id="path11-43-9" />
    <path
       style="fill:#ffffff;stroke:#000000;stroke-width:0.4004;stroke-dasharray:none"
       d="m 259.9332,62.252147 c -0.36928,0.283094 -1.03052,-0.433496 -1.50531,-0.250885 -0.48506,0.186563 -0.60451,0.559112 -0.75266,1.00354 -0.14746,0.442402 -0.27065,0.693349 -0.12544,1.128985 0.19006,0.570156 1.50487,0.569902 1.81892,0.43905 0.20907,-0.104537 0.41815,-0.209071 0.62722,-0.313608 0,-0.04181 -0.0268,-0.09332 0,-0.125442 0.0857,-0.102843 0.2279,-0.148042 0.3136,-0.250885 0.0325,-0.03899 0.0648,-1.504435 0.0627,-1.505313 -0.1399,-0.05996 -0.2927,-0.08363 -0.43905,-0.125442 z"
       id="path11-4-1-6" />
    <text
       xml:space="preserve"
       transform="scale(0.26458333)"
       id="text201"
       style="font-size:8px;font-family:'Times New Roman';-inkscape-font-specification:'Times New Roman, ';text-align:center;letter-spacing:0px;writing-mode:lr-tb;direction:ltr;white-space:pre;shape-inside:url(#rect201);display:inline;fill:#ffffff;fill-opacity:1;fill-rule:nonzero;stroke:none;stroke-width:1.13386;stroke-dasharray:6.80315, 6.80315;stroke-dashoffset:0" />
    <text
       xml:space="preserve"
       style="font-size:6.35px;font-family:'Times New Roman';-inkscape-font-specification:'Times New Roman, ';text-align:center;letter-spacing:0px;writing-mode:lr-tb;direction:ltr;text-anchor:middle;fill:#ffffff;fill-opacity:1;fill-rule:nonzero;stroke:none;stroke-width:0.3;stroke-dasharray:1.8, 1.8;stroke-dashoffset:0"
       x="17.36902"
       y="16.528467"
       id="text202"><tspan
         id="tspan202"
         style="font-size:6.35px;fill:#000000;stroke-width:0.3"
         x="17.36902"
         y="16.528467"
         sodipodi:role="line">A)</tspan></text>
    <text
       xml:space="preserve"
       style="font-size:6.35px;font-family:'Times New Roman';-inkscape-font-specification:'Times New Roman, ';text-align:center;letter-spacing:0px;writing-mode:lr-tb;direction:ltr;text-anchor:middle;fill:#ffffff;fill-opacity:1;fill-rule:nonzero;stroke:none;stroke-width:0.3;stroke-dasharray:1.8, 1.8;stroke-dashoffset:0"
       x="34.725693"
       y="144.40903"
       id="text202-1"><tspan
         id="tspan202-9"
         style="font-size:6.35px;fill:#000000;stroke-width:0.3"
         x="34.725693"
         y="144.40903"
         sodipodi:role="line">&quot;Animal Free&quot;</tspan></text>
    <text
       xml:space="preserve"
       style="font-size:6.35px;font-family:'Times New Roman';-inkscape-font-specification:'Times New Roman, ';text-align:center;letter-spacing:0px;writing-mode:lr-tb;direction:ltr;text-anchor:middle;fill:#ffffff;fill-opacity:1;fill-rule:nonzero;stroke:none;stroke-width:0.3;stroke-dasharray:1.8, 1.8;stroke-dashoffset:0"
       x="86.248894"
       y="16.697788"
       id="text202-5"><tspan
         id="tspan202-8"
         style="font-size:6.35px;fill:#000000;stroke-width:0.3"
         x="86.248894"
         y="16.697788"
         sodipodi:role="line">B)</tspan></text>
    <text
       xml:space="preserve"
       style="font-size:6.35px;font-family:'Times New Roman';-inkscape-font-specification:'Times New Roman, ';text-align:center;letter-spacing:0px;writing-mode:lr-tb;direction:ltr;text-anchor:middle;fill:#ffffff;fill-opacity:1;fill-rule:nonzero;stroke:none;stroke-width:0.3;stroke-dasharray:1.8, 1.8;stroke-dashoffset:0"
       x="132.97704"
       y="16.607708"
       id="text202-5-4"><tspan
         id="tspan202-8-2"
         style="font-size:6.35px;fill:#000000;stroke-width:0.3"
         x="132.97704"
         y="16.607708"
         sodipodi:role="line">C)</tspan></text>
    <g
       id="g1"
       transform="translate(68.426936,-2.2345883)">
      <text
         xml:space="preserve"
         style="font-size:6.35px;font-family:'Times New Roman';-inkscape-font-specification:'Times New Roman, ';text-align:center;letter-spacing:0px;writing-mode:lr-tb;direction:ltr;text-anchor:middle;fill:#ffffff;fill-opacity:1;fill-rule:nonzero;stroke:none;stroke-width:0.3;stroke-dasharray:1.8, 1.8;stroke-dashoffset:0"
         x="134.17171"
         y="19.310122"
         id="text202-5-2"><tspan
           id="tspan202-8-6"
           style="font-size:6.35px;fill:#000000;stroke-width:0.3"
           x="134.17171"
           y="19.310122"
           sodipodi:role="line">D)</tspan></text>
      <text
         xml:space="preserve"
         style="font-size:6.35px;font-family:'Times New Roman';-inkscape-font-specification:'Times New Roman, ';text-align:center;letter-spacing:0px;writing-mode:lr-tb;direction:ltr;text-anchor:middle;fill:#ffffff;fill-opacity:1;fill-rule:nonzero;stroke:none;stroke-width:0.3;stroke-dasharray:1.8, 1.8;stroke-dashoffset:0"
         x="178.65916"
         y="19.269617"
         id="text202-5-2-4"><tspan
           id="tspan202-8-6-6"
           style="font-size:6.35px;fill:#000000;stroke-width:0.3"
           x="178.65916"
           y="19.269617"
           sodipodi:role="line">E)</tspan></text>
    </g>
    <text
       xml:space="preserve"
       style="font-size:6.35px;font-family:'Times New Roman';-inkscape-font-specification:'Times New Roman, ';text-align:center;letter-spacing:0px;writing-mode:lr-tb;direction:ltr;text-anchor:middle;fill:#000000;fill-opacity:1;fill-rule:nonzero;stroke:none;stroke-width:0.3;stroke-dasharray:1.8, 1.8;stroke-dashoffset:0"
       x="127.77031"
       y="144.40903"
       id="text203"><tspan
         sodipodi:role="line"
         id="tspan203"
         style="stroke-width:0.3"
         x="127.77031"
         y="144.40903">Mixing</tspan></text>
    <text
       xml:space="preserve"
       style="font-size:6.35px;font-family:'Times New Roman';-inkscape-font-specification:'Times New Roman, ';text-align:center;letter-spacing:0px;writing-mode:lr-tb;direction:ltr;text-anchor:middle;fill:#000000;fill-opacity:1;fill-rule:nonzero;stroke:none;stroke-width:0.3;stroke-dasharray:1.8, 1.8;stroke-dashoffset:0"
       x="242.47574"
       y="144.40903"
       id="text204"><tspan
         sodipodi:role="line"
         id="tspan204"
         style="stroke-width:0.3"
         x="242.47574"
         y="144.40903">Sorting</tspan></text>
  </g>
  <g
     inkscape:groupmode="layer"
     id="layer5"
     inkscape:label="other">
    <path
       style="fill:none;fill-opacity:1;stroke:#000000;stroke-width:0.428001;stroke-dasharray:5.13601, 5.13601;stroke-dashoffset:0"
       d="m 75.516519,13.296929 c 0,41.646985 0,83.293968 0,124.940951"
       id="path57"
       inkscape:path-effect="#path-effect57"
       inkscape:original-d="m 75.516519,13.296929 c 0,41.646985 0,83.293968 0,124.940951"
       transform="translate(-5.3025185)" />
    <path
       style="fill:none;fill-opacity:1;stroke:#000000;stroke-width:0.428001;stroke-dasharray:5.13601, 5.13601;stroke-dashoffset:0"
       d="m 75.516519,13.296929 c 0,41.646985 0,83.293968 0,124.940951"
       id="path57-2"
       inkscape:path-effect="#path-effect57-5"
       inkscape:original-d="m 75.516519,13.296929 c 0,41.646985 0,83.293968 0,124.940951"
       transform="translate(109.69748,-0.06776233)" />
  </g>
  <g
     inkscape:groupmode="layer"
     id="layer6"
     inkscape:label="mixing">
    <rect
       style="fill:url(#linearGradient80);fill-opacity:1;fill-rule:nonzero;stroke:#000000;stroke-width:0.300369;stroke-dasharray:none;stroke-dashoffset:0"
       id="rect16-3"
       width="29.699631"
       height="14.699631"
       x="90.150375"
       y="20.150185" />
    <rect
       style="fill:none;fill-opacity:1;stroke:#000000;stroke-width:0.33;stroke-dasharray:none;stroke-dashoffset:0"
       id="rect16-1-3"
       width="29.67038"
       height="9.6703806"
       x="90.165001"
       y="35.164814" />
    <rect
       style="fill:#ffffff;stroke:#000000;stroke-width:0.316056;stroke-dasharray:none;stroke-dashoffset:0"
       id="rect16-1-6-5"
       width="29.683945"
       height="29.683945"
       x="90.158218"
       y="45.158031" />
    <rect
       style="fill:url(#pattern89);fill-opacity:1;stroke:#000000;stroke-width:0.428;stroke-dasharray:none;stroke-dashoffset:0"
       id="rect16-1-6-8-9"
       width="29.572269"
       height="54.572269"
       x="90.214058"
       y="75.21386" />
    <path
       style="fill:#ffffff;stroke:#000000;stroke-width:0.4004;stroke-dasharray:none"
       d="m 113.45683,38.403798 c -0.76427,-0.08023 -1.07412,0.02352 -1.7562,0.250885 -0.60619,0.202065 -0.54044,0.820561 -0.62721,1.25443 -0.0259,0.129659 -0.21894,0.282826 -0.12545,0.376327 0.12095,0.120941 2.10924,-0.141216 2.38342,-0.250886 0.2666,-0.10664 1.20257,-0.834612 1.12898,-1.128985 -0.0321,-0.12828 -0.0995,-0.246668 -0.12544,-0.376327 -0.0164,-0.082 0.0828,-0.239059 0,-0.250886 -0.2927,-0.04181 -0.5854,0.08363 -0.8781,0.125442 z"
       id="path5-8-9" />
    <path
       style="fill:#ffffff;stroke:#000000;stroke-width:0.4004;stroke-dasharray:none"
       d="m 114.25756,54.579351 c -0.76427,-0.08023 -1.07411,0.02352 -1.7562,0.250885 -0.60619,0.202065 -0.54044,0.820561 -0.62721,1.25443 -0.0259,0.129659 -0.21894,0.282826 -0.12544,0.376327 0.12094,0.120941 2.10924,-0.141216 2.38341,-0.250886 0.2666,-0.10664 1.20258,-0.834612 1.12898,-1.128985 -0.0321,-0.12828 -0.0995,-0.246668 -0.12544,-0.376327 -0.0164,-0.082 0.0828,-0.239059 0,-0.250886 -0.2927,-0.04181 -0.5854,0.08363 -0.8781,0.125442 z"
       id="path5-2-9-8" />
    <path
       style="fill:#ffffff;stroke:#000000;stroke-width:0.4004;stroke-dasharray:none"
       d="m 98.654581,49.129152 c -0.86119,0.166518 -1.218906,0.812604 -1.881643,1.254427 -0.202866,0.135244 -0.454808,0.203924 -0.627213,0.376327 -0.05913,0.05913 0.0374,0.176085 0,0.250886 -0.351255,0.702514 -0.501772,0.467458 -0.501772,1.254426 0,0.14092 -0.05274,0.538121 0.125445,0.627216 0.112199,0.0561 0.250886,0 0.376327,0 1.703467,0 1.190837,0.06359 2.383412,-1.128985 0.360491,-0.360494 0.233566,0.212043 0.376331,-0.501771 0.13126,-0.656307 -0.174864,-1.524328 -0.250887,-2.132526 z"
       id="path6-2-1" />
    <path
       style="fill:#ffffff;stroke:#000000;stroke-width:0.4004;stroke-dasharray:none"
       d="m 99.908998,38.278355 c -1.794836,0.299143 0.326762,-0.08169 -3.010616,0.752658 -0.24675,0.06169 -0.513626,0.03852 -0.752659,0.125441 -0.889314,0.32339 -0.62217,0.687414 -0.752654,0.752658 -0.0748,0.0374 -0.191752,-0.05914 -0.250886,0 -0.05913,0.05913 0,0.167256 0,0.250886 0,0.511746 -0.03474,0.538051 0.501771,0.752654 0.420429,0.168172 0.113679,-0.05978 0.376328,-0.125441 0.121698,-0.03043 0.259858,0.04659 0.376327,0 0.297973,-0.11919 0.449153,-0.651489 0.752653,-0.752658 0.19729,-0.06576 1.30272,0.07716 1.37987,0 0.0591,-0.05913 -0.0374,-0.176085 0,-0.250883 0.0187,-0.0374 0.0858,0.01323 0.12545,0 0.0525,-0.01749 0.606266,-0.47485 0.627206,-0.501772 0.24218,-0.31138 0.41814,-0.669028 0.62721,-1.003543 z"
       id="path8-7-8" />
    <path
       style="fill:#ffffff;stroke:#000000;stroke-width:0.4004;stroke-dasharray:none"
       d="m 93.825033,25.734084 c 1.025369,-0.512683 0.314773,-0.250886 2.25797,-0.250886 0.182846,0 0.699765,-0.05289 0.8781,0.125442 0.172405,0.172405 0.220239,0.439909 0.376327,0.627216 0.05986,0.07183 0.199022,0.04765 0.250886,0.125441 0.09487,0.142299 0.134935,0.926582 0,1.128985 -0.03362,0.05043 -0.668692,0 -0.752658,0 -0.167256,0 -0.426971,-0.1496 -0.501769,0 -0.0374,0.0748 0.05913,0.191752 0,0.250886 -0.104187,0.104188 -0.561334,-0.05956 -0.627213,-0.125444 -0.06611,-0.06611 -0.05064,-0.194786 -0.125444,-0.250886 -0.105783,-0.07934 -0.246669,-0.09951 -0.376328,-0.125441 -0.082,-0.0164 -0.191751,0.05913 -0.250886,0 -0.07954,-0.07954 -0.07939,-0.70085 -0.125441,-0.752658 -0.277799,-0.312523 -0.669028,-0.501769 -1.003544,-0.752655 z"
       id="path9-9-2" />
    <path
       style="fill:#ffffff;stroke:#000000;stroke-width:0.4004;stroke-dasharray:none"
       d="m 114.08404,69.827201 c -0.008,0.01678 -1.30315,0.09745 -1.31715,0.125445 -0.028,0.0561 0.0348,0.135974 0,0.188163 -0.0492,0.0738 -0.15214,0.107106 -0.18816,0.188164 -0.1116,0.251098 -0.28261,0.787239 -0.31361,1.066263 -0.003,0.02939 0.045,0.03907 0.0627,0.06272 0.0731,0.09753 0.0906,0.240461 0.18817,0.313605 0.0529,0.03967 0.13527,0.02305 0.18816,0.06272 0.2014,0.151053 0.36309,0.350718 0.56449,0.501771 0.0966,0.07248 0.63736,0.139584 0.75266,0.06272 0.21294,-0.14196 0.056,-0.08563 0.18816,-0.250886 0.0554,-0.06926 0.13494,-0.117203 0.18817,-0.188164 0.15482,-0.206436 0.16254,-0.898411 0.18816,-1.128985 0.0167,-0.150529 0.004,0.0042 -0.0627,-0.06272 -0.0331,-0.03306 -0.0253,-0.09739 -0.0627,-0.125445 -0.0652,-0.169441 -0.22491,-0.0036 -0.31361,-0.06272 -0.13518,-0.09013 -0.0627,-0.744347 -0.0627,-0.752658 z"
       id="path10-5-6" />
    <path
       style="fill:#ffffff;stroke:#000000;stroke-width:0.4004;stroke-dasharray:none"
       d="m 112.26512,29.434644 c -0.36928,0.283094 -1.03052,-0.433496 -1.50531,-0.250885 -0.48507,0.186563 -0.60452,0.559112 -0.75266,1.00354 -0.14746,0.442402 -0.27065,0.693349 -0.12544,1.128985 0.19005,0.570156 1.50487,0.569902 1.81892,0.43905 0.20907,-0.104537 0.41814,-0.209071 0.62721,-0.313608 0,-0.04181 -0.0268,-0.09332 0,-0.125442 0.0857,-0.102843 0.22791,-0.148042 0.31361,-0.250885 0.0325,-0.03899 0.0648,-1.504435 0.0627,-1.505313 -0.1399,-0.05996 -0.2927,-0.08363 -0.43905,-0.125442 z"
       id="path11-43-6" />
    <path
       style="fill:#ffffff;stroke:#000000;stroke-width:0.4004;stroke-dasharray:none"
       d="m 99.933218,62.252149 c -0.36929,0.283094 -1.03053,-0.433496 -1.505316,-0.250885 -0.485066,0.186563 -0.604515,0.559112 -0.752658,1.00354 -0.147465,0.442402 -0.270653,0.693349 -0.125441,1.128985 0.190052,0.570156 1.504865,0.569902 1.818915,0.43905 0.20908,-0.104537 0.41815,-0.209071 0.62722,-0.313608 0,-0.04181 -0.0268,-0.09332 0,-0.125442 0.0857,-0.102843 0.227902,-0.148042 0.313602,-0.250885 0.0325,-0.03899 0.0648,-1.504435 0.0627,-1.505313 -0.1399,-0.05996 -0.2927,-0.08363 -0.439052,-0.125442 z"
       id="path11-4-1-0" />
    <path
       style="fill:none;stroke:#000000;stroke-width:0.450859;stroke-dasharray:none;stroke-dashoffset:0;marker-end:url(#ConcaveTriangle)"
       d="M 5.3583755,23.595653 C 3.524694,26.769339 2.5117481,30.412677 2.4441712,34.077388 2.3740098,37.882256 3.324648,41.701199 5.1703623,45.029154"
       id="path6-8"
       inkscape:path-effect="#path-effect6-8-1"
       inkscape:original-d="M 5.3583755,23.595653 C 4.3243028,27.183572 3.384237,30.583476 2.4441712,34.077388 1.5041054,37.571299 4.2616318,41.4099 5.1703623,45.029154"
       transform="matrix(1.1349393,0,0,0.48884244,96.6955,11.037698)"
       inkscape:label="path6" />
    <path
       style="fill:none;stroke:#000000;stroke-width:0.450859;stroke-dasharray:none;stroke-dashoffset:0;marker-end:url(#ConcaveTriangle-9)"
       d="M 5.3583755,23.595653 C 3.524694,26.769339 2.5117481,30.412677 2.4441712,34.077388 2.3740098,37.882256 3.324648,41.701199 5.1703623,45.029154"
       id="path6-5"
       inkscape:path-effect="#path-effect6-7-9-0"
       inkscape:original-d="M 5.3583755,23.595653 C 4.3243028,27.183572 3.384237,30.583476 2.4441712,34.077388 1.5041054,37.571299 4.2616318,41.4099 5.1703623,45.029154"
       transform="matrix(-1.1349393,0,0,-0.48884244,112.62714,45.068601)"
       inkscape:label="path6" />
    <path
       style="fill:#000000;fill-opacity:1;fill-rule:nonzero;stroke:#000000;stroke-width:0.3;stroke-dasharray:1.8, 1.8;stroke-dashoffset:0"
       d="m 135.13215,35.581844 c 9.92218,0 19.84436,0 29.76653,0"
       id="path78"
       inkscape:path-effect="#path-effect78"
       inkscape:original-d="m 135.13215,35.581844 c 9.92218,0 19.84436,0 29.76653,0"
       transform="matrix(1.0078434,0,0,1,-1.1920455,-0.43184399)" />
    <path
       style="fill:#000000;fill-opacity:1;fill-rule:nonzero;stroke:#000000;stroke-width:0.3;stroke-dasharray:1.8, 1.8;stroke-dashoffset:0"
       d="m 135.13215,35.581844 c 9.92218,0 19.84436,0 29.76653,0"
       id="path78-7"
       inkscape:path-effect="#path-effect78-9"
       inkscape:original-d="m 135.13215,35.581844 c 9.92218,0 19.84436,0 29.76653,0"
       transform="matrix(1.0078434,0,0,1,-1.1920419,9.568156)" />
    <path
       style="fill:#000000;fill-opacity:1;fill-rule:nonzero;stroke:#000000;stroke-width:0.3;stroke-dasharray:1.8, 1.8;stroke-dashoffset:0"
       d="m 135.13215,35.581844 c 9.92218,0 19.84436,0 29.76653,0"
       id="path78-7-2"
       inkscape:path-effect="#path-effect78-9-2"
       inkscape:original-d="m 135.13215,35.581844 c 9.92218,0 19.84436,0 29.76653,0"
       transform="matrix(1.0078434,0,0,1,113.80795,-8.231844)" />
  </g>
  <g
     inkscape:groupmode="layer"
     id="g69"
     inkscape:label="mixing 2"
     transform="translate(44.999999)">
    <rect
       style="fill:url(#linearGradient78);stroke:none;stroke-width:0.445413;stroke-dasharray:none;stroke-dashoffset:0"
       id="rect57"
       width="30"
       height="32"
       x="90"
       y="20" />
    <rect
       style="fill:none;stroke:#000000;stroke-width:0.427656;stroke-dasharray:none;stroke-dashoffset:0"
       id="rect59"
       width="29.572289"
       height="54.572346"
       x="90.213829"
       y="20.213829" />
    <rect
       style="fill:url(#pattern90);fill-opacity:1;stroke:#000000;stroke-width:0.428;stroke-dasharray:none;stroke-dashoffset:0"
       id="rect60"
       width="29.572269"
       height="54.572269"
       x="90.214058"
       y="75.21386" />
    <path
       style="fill:#ffffff;stroke:#000000;stroke-width:0.4004;stroke-dasharray:none"
       d="m 113.45683,38.403798 c -0.76427,-0.08023 -1.07412,0.02352 -1.7562,0.250885 -0.60619,0.202065 -0.54044,0.820561 -0.62721,1.25443 -0.0259,0.129659 -0.21894,0.282826 -0.12545,0.376327 0.12095,0.120941 2.10924,-0.141216 2.38342,-0.250886 0.2666,-0.10664 1.20257,-0.834612 1.12898,-1.128985 -0.0321,-0.12828 -0.0995,-0.246668 -0.12544,-0.376327 -0.0164,-0.082 0.0828,-0.239059 0,-0.250886 -0.2927,-0.04181 -0.5854,0.08363 -0.8781,0.125442 z"
       id="path60" />
    <path
       style="fill:#ffffff;stroke:#000000;stroke-width:0.4004;stroke-dasharray:none"
       d="m 114.25756,54.579351 c -0.76427,-0.08023 -1.07411,0.02352 -1.7562,0.250885 -0.60619,0.202065 -0.54044,0.820561 -0.62721,1.25443 -0.0259,0.129659 -0.21894,0.282826 -0.12544,0.376327 0.12094,0.120941 2.10924,-0.141216 2.38341,-0.250886 0.2666,-0.10664 1.20258,-0.834612 1.12898,-1.128985 -0.0321,-0.12828 -0.0995,-0.246668 -0.12544,-0.376327 -0.0164,-0.082 0.0828,-0.239059 0,-0.250886 -0.2927,-0.04181 -0.5854,0.08363 -0.8781,0.125442 z"
       id="path61" />
    <path
       style="fill:#ffffff;stroke:#000000;stroke-width:0.4004;stroke-dasharray:none"
       d="m 98.654581,49.129152 c -0.86119,0.166518 -1.218906,0.812604 -1.881643,1.254427 -0.202866,0.135244 -0.454808,0.203924 -0.627213,0.376327 -0.05913,0.05913 0.0374,0.176085 0,0.250886 -0.351255,0.702514 -0.501772,0.467458 -0.501772,1.254426 0,0.14092 -0.05274,0.538121 0.125445,0.627216 0.112199,0.0561 0.250886,0 0.376327,0 1.703467,0 1.190837,0.06359 2.383412,-1.128985 0.360491,-0.360494 0.233566,0.212043 0.376331,-0.501771 0.13126,-0.656307 -0.174864,-1.524328 -0.250887,-2.132526 z"
       id="path62" />
    <path
       style="fill:#ffffff;stroke:#000000;stroke-width:0.4004;stroke-dasharray:none"
       d="m 99.908998,38.278355 c -1.794836,0.299143 0.326762,-0.08169 -3.010616,0.752658 -0.24675,0.06169 -0.513626,0.03852 -0.752659,0.125441 -0.889314,0.32339 -0.62217,0.687414 -0.752654,0.752658 -0.0748,0.0374 -0.191752,-0.05914 -0.250886,0 -0.05913,0.05913 0,0.167256 0,0.250886 0,0.511746 -0.03474,0.538051 0.501771,0.752654 0.420429,0.168172 0.113679,-0.05978 0.376328,-0.125441 0.121698,-0.03043 0.259858,0.04659 0.376327,0 0.297973,-0.11919 0.449153,-0.651489 0.752653,-0.752658 0.19729,-0.06576 1.30272,0.07716 1.37987,0 0.0591,-0.05913 -0.0374,-0.176085 0,-0.250883 0.0187,-0.0374 0.0858,0.01323 0.12545,0 0.0525,-0.01749 0.606266,-0.47485 0.627206,-0.501772 0.24218,-0.31138 0.41814,-0.669028 0.62721,-1.003543 z"
       id="path63" />
    <path
       style="fill:#ffffff;stroke:#000000;stroke-width:0.4004;stroke-dasharray:none"
       d="m 93.825033,25.734084 c 1.025369,-0.512683 0.314773,-0.250886 2.25797,-0.250886 0.182846,0 0.699765,-0.05289 0.8781,0.125442 0.172405,0.172405 0.220239,0.439909 0.376327,0.627216 0.05986,0.07183 0.199022,0.04765 0.250886,0.125441 0.09487,0.142299 0.134935,0.926582 0,1.128985 -0.03362,0.05043 -0.668692,0 -0.752658,0 -0.167256,0 -0.426971,-0.1496 -0.501769,0 -0.0374,0.0748 0.05913,0.191752 0,0.250886 -0.104187,0.104188 -0.561334,-0.05956 -0.627213,-0.125444 -0.06611,-0.06611 -0.05064,-0.194786 -0.125444,-0.250886 -0.105783,-0.07934 -0.246669,-0.09951 -0.376328,-0.125441 -0.082,-0.0164 -0.191751,0.05913 -0.250886,0 -0.07954,-0.07954 -0.07939,-0.70085 -0.125441,-0.752658 -0.277799,-0.312523 -0.669028,-0.501769 -1.003544,-0.752655 z"
       id="path64" />
    <path
       style="fill:#ffffff;stroke:#000000;stroke-width:0.4004;stroke-dasharray:none"
       d="m 114.08404,69.827201 c -0.008,0.01678 -1.30315,0.09745 -1.31715,0.125445 -0.028,0.0561 0.0348,0.135974 0,0.188163 -0.0492,0.0738 -0.15214,0.107106 -0.18816,0.188164 -0.1116,0.251098 -0.28261,0.787239 -0.31361,1.066263 -0.003,0.02939 0.045,0.03907 0.0627,0.06272 0.0731,0.09753 0.0906,0.240461 0.18817,0.313605 0.0529,0.03967 0.13527,0.02305 0.18816,0.06272 0.2014,0.151053 0.36309,0.350718 0.56449,0.501771 0.0966,0.07248 0.63736,0.139584 0.75266,0.06272 0.21294,-0.14196 0.056,-0.08563 0.18816,-0.250886 0.0554,-0.06926 0.13494,-0.117203 0.18817,-0.188164 0.15482,-0.206436 0.16254,-0.898411 0.18816,-1.128985 0.0167,-0.150529 0.004,0.0042 -0.0627,-0.06272 -0.0331,-0.03306 -0.0253,-0.09739 -0.0627,-0.125445 -0.0652,-0.169441 -0.22491,-0.0036 -0.31361,-0.06272 -0.13518,-0.09013 -0.0627,-0.744347 -0.0627,-0.752658 z"
       id="path65" />
    <path
       style="fill:#ffffff;stroke:#000000;stroke-width:0.4004;stroke-dasharray:none"
       d="m 112.26512,29.434644 c -0.36928,0.283094 -1.03052,-0.433496 -1.50531,-0.250885 -0.48507,0.186563 -0.60452,0.559112 -0.75266,1.00354 -0.14746,0.442402 -0.27065,0.693349 -0.12544,1.128985 0.19005,0.570156 1.50487,0.569902 1.81892,0.43905 0.20907,-0.104537 0.41814,-0.209071 0.62721,-0.313608 0,-0.04181 -0.0268,-0.09332 0,-0.125442 0.0857,-0.102843 0.22791,-0.148042 0.31361,-0.250885 0.0325,-0.03899 0.0648,-1.504435 0.0627,-1.505313 -0.1399,-0.05996 -0.2927,-0.08363 -0.43905,-0.125442 z"
       id="path66" />
    <path
       style="fill:#ffffff;stroke:#000000;stroke-width:0.4004;stroke-dasharray:none"
       d="m 99.933218,62.252149 c -0.36929,0.283094 -1.03053,-0.433496 -1.505316,-0.250885 -0.485066,0.186563 -0.604515,0.559112 -0.752658,1.00354 -0.147465,0.442402 -0.270653,0.693349 -0.125441,1.128985 0.190052,0.570156 1.504865,0.569902 1.818915,0.43905 0.20908,-0.104537 0.41815,-0.209071 0.62722,-0.313608 0,-0.04181 -0.0268,-0.09332 0,-0.125442 0.0857,-0.102843 0.227902,-0.148042 0.313602,-0.250885 0.0325,-0.03899 0.0648,-1.504435 0.0627,-1.505313 -0.1399,-0.05996 -0.2927,-0.08363 -0.439052,-0.125442 z"
       id="path67" />
    <path
       style="fill:none;stroke:#000000;stroke-width:0.450859;stroke-dasharray:none;stroke-dashoffset:0;marker-end:url(#ConcaveTriangle)"
       d="M 5.3583755,23.595653 C 3.524694,26.769339 2.5117481,30.412677 2.4441712,34.077388 2.3740098,37.882256 3.324648,41.701199 5.1703623,45.029154"
       id="path68"
       inkscape:path-effect="#path-effect70"
       inkscape:original-d="M 5.3583755,23.595653 C 4.3243028,27.183572 3.384237,30.583476 2.4441712,34.077388 1.5041054,37.571299 4.2616318,41.4099 5.1703623,45.029154"
       transform="matrix(1.6891939,0,0,1.0972295,92.89766,-1.7378513)"
       inkscape:label="path6" />
    <path
       style="fill:none;stroke:#000000;stroke-width:0.450859;stroke-dasharray:none;stroke-dashoffset:0;marker-end:url(#ConcaveTriangle-9)"
       d="M 5.3583755,23.595653 C 3.524694,26.769339 2.5117481,30.412677 2.4441712,34.077388 2.3740098,37.882256 3.324648,41.701199 5.1703623,45.029154"
       id="path69"
       inkscape:path-effect="#path-effect72"
       inkscape:original-d="M 5.3583755,23.595653 C 4.3243028,27.183572 3.384237,30.583476 2.4441712,34.077388 1.5041054,37.571299 4.2616318,41.4099 5.1703623,45.029154"
       transform="matrix(-1.6891939,0,0,-1.0972295,116.60962,74.646086)"
       inkscape:label="path6" />
  </g>
  <g
     inkscape:groupmode="layer"
     id="g100"
     inkscape:label="sorting 2"
     transform="translate(185.00019)">
    <rect
       style="fill:url(#linearGradient100);fill-opacity:1;stroke:#000000;stroke-width:0.300369;stroke-dasharray:none;stroke-dashoffset:0"
       id="rect90"
       width="29.699631"
       height="14.699631"
       x="20.150185"
       y="20.150185" />
    <rect
       style="fill:none;fill-opacity:1;stroke:#000000;stroke-width:0.33;stroke-dasharray:none;stroke-dashoffset:0"
       id="rect91"
       width="29.67038"
       height="9.6703806"
       x="20.16481"
       y="35.16481" />
    <rect
       style="fill:#ffffff;stroke:#000000;stroke-width:0.316056;stroke-dasharray:none;stroke-dashoffset:0"
       id="rect92"
       width="29.683945"
       height="29.683945"
       x="20.158028"
       y="45.158028" />
    <rect
       style="fill:url(#pattern88);fill-opacity:1;stroke:#000000;stroke-width:0.428;stroke-dasharray:none;stroke-dashoffset:0"
       id="rect93"
       width="29.572269"
       height="54.572269"
       x="20.213867"
       y="75.213867" />
    <path
       style="fill:#ffffff;stroke:#000000;stroke-width:0.4004;stroke-dasharray:none"
       d="m 39.486949,51.605317 c -0.76427,-0.08023 -1.07412,0.02352 -1.7562,0.250885 -0.60619,0.202065 -0.54044,0.820561 -0.62721,1.25443 -0.0259,0.129659 -0.21894,0.282826 -0.12545,0.376327 0.12095,0.120941 2.10924,-0.141216 2.38342,-0.250886 0.2666,-0.10664 1.20257,-0.834612 1.12898,-1.128985 -0.0321,-0.12828 -0.0995,-0.246668 -0.12544,-0.376327 -0.0164,-0.082 0.0828,-0.239059 0,-0.250886 -0.2927,-0.04181 -0.5854,0.08363 -0.8781,0.125442 z"
       id="path93" />
    <path
       style="fill:#ffffff;stroke:#000000;stroke-width:0.4004;stroke-dasharray:none"
       d="m 44.257367,53.47153 c -0.76427,-0.08023 -1.07411,0.02352 -1.7562,0.250885 -0.60619,0.202065 -0.54044,0.820561 -0.62721,1.25443 -0.0259,0.129659 -0.21894,0.282826 -0.12544,0.376327 0.12094,0.120941 2.10924,-0.141216 2.38341,-0.250886 0.2666,-0.10664 1.20258,-0.834612 1.12898,-1.128985 -0.0321,-0.12828 -0.0995,-0.246668 -0.12544,-0.376327 -0.0164,-0.082 0.0828,-0.239059 0,-0.250886 -0.2927,-0.04181 -0.5854,0.08363 -0.8781,0.125442 z"
       id="path94" />
    <path
       style="fill:#ffffff;stroke:#000000;stroke-width:0.4004;stroke-dasharray:none"
       d="m 27.915845,51.160154 c -0.86119,0.166518 -1.218906,0.812604 -1.881643,1.254427 -0.202866,0.135244 -0.454808,0.203924 -0.627213,0.376327 -0.05913,0.05913 0.0374,0.176085 0,0.250886 -0.351255,0.702514 -0.501772,0.467458 -0.501772,1.254426 0,0.14092 -0.05274,0.538121 0.125445,0.627216 0.112199,0.0561 0.250886,0 0.376327,0 1.703467,0 1.190837,0.06359 2.383412,-1.128985 0.360495,-0.360494 0.233566,0.212043 0.376327,-0.501771 0.131263,-0.656307 -0.17486,-1.524328 -0.250883,-2.132526 z"
       id="path95" />
    <path
       style="fill:#ffffff;stroke:#000000;stroke-width:0.4004;stroke-dasharray:none"
       d="m 34.617047,50.649009 c -1.79484,0.299143 0.32676,-0.08169 -3.01062,0.752658 -0.24675,0.06169 -0.513626,0.03852 -0.752659,0.125441 -0.889314,0.32339 -0.62217,0.687414 -0.752654,0.752658 -0.0748,0.0374 -0.191752,-0.05914 -0.250886,0 -0.05913,0.05913 0,0.167256 0,0.250886 0,0.511746 -0.03474,0.538051 0.501771,0.752654 0.420429,0.168172 0.113679,-0.05978 0.376328,-0.125441 0.121698,-0.03043 0.259858,0.04659 0.376327,0 0.297973,-0.11919 0.449153,-0.651489 0.752653,-0.752658 0.19729,-0.06576 1.30272,0.07716 1.37987,0 0.0591,-0.05913 -0.0374,-0.176085 0,-0.250883 0.0187,-0.0374 0.0858,0.01323 0.12545,0 0.0525,-0.01749 0.60627,-0.47485 0.62721,-0.501772 0.24218,-0.31138 0.41814,-0.669028 0.62721,-1.003543 z"
       id="path96" />
    <path
       style="fill:#ffffff;stroke:#000000;stroke-width:0.4004;stroke-dasharray:none"
       d="m 21.33225,49.55221 c 1.025369,-0.512683 0.314773,-0.250886 2.25797,-0.250886 0.182846,0 0.699765,-0.05289 0.8781,0.125442 0.172405,0.172405 0.220239,0.439909 0.376327,0.627216 0.05986,0.07183 0.199022,0.04765 0.250886,0.125441 0.09487,0.142299 0.134935,0.926582 0,1.128985 -0.03362,0.05043 -0.668692,0 -0.752658,0 -0.167256,0 -0.426971,-0.1496 -0.501769,0 -0.0374,0.0748 0.05913,0.191752 0,0.250886 -0.104187,0.104188 -0.561334,-0.05956 -0.627213,-0.125444 -0.06611,-0.06611 -0.05064,-0.194786 -0.125444,-0.250886 -0.105783,-0.07934 -0.246669,-0.09951 -0.376328,-0.125441 -0.082,-0.0164 -0.191751,0.05913 -0.250886,0 -0.07954,-0.07954 -0.07939,-0.70085 -0.125441,-0.752658 -0.277799,-0.312523 -0.669028,-0.501769 -1.003544,-0.752655 z"
       id="path97" />
    <path
       style="fill:#ffffff;stroke:#000000;stroke-width:0.4004;stroke-dasharray:none"
       d="m 44.083849,69.8272 c -0.008,0.01678 -1.30315,0.09745 -1.31715,0.125445 -0.028,0.0561 0.0348,0.135974 0,0.188163 -0.0492,0.0738 -0.15214,0.107106 -0.18816,0.188164 -0.1116,0.251098 -0.28261,0.787239 -0.31361,1.066263 -0.003,0.02939 0.045,0.03907 0.0627,0.06272 0.0731,0.09753 0.0906,0.240461 0.18817,0.313605 0.0529,0.03967 0.13527,0.02305 0.18816,0.06272 0.2014,0.151053 0.36309,0.350718 0.56449,0.501771 0.0966,0.07248 0.63736,0.139584 0.75266,0.06272 0.21294,-0.14196 0.056,-0.08563 0.18816,-0.250886 0.0554,-0.06926 0.13494,-0.117203 0.18817,-0.188164 0.15482,-0.206436 0.16254,-0.898411 0.18816,-1.128985 0.0167,-0.150529 0.004,0.0042 -0.0627,-0.06272 -0.0331,-0.03306 -0.0253,-0.09739 -0.0627,-0.125445 -0.0652,-0.169441 -0.22491,-0.0036 -0.31361,-0.06272 -0.13518,-0.09013 -0.0627,-0.744347 -0.0627,-0.752658 z"
       id="path98" />
    <path
       style="fill:#ffffff;stroke:#000000;stroke-width:0.4004;stroke-dasharray:none"
       d="m 47.804027,50.113947 c -0.36928,0.283094 -1.03052,-0.433496 -1.50531,-0.250885 -0.48507,0.186563 -0.60452,0.559112 -0.75266,1.00354 -0.14746,0.442402 -0.27065,0.693349 -0.12544,1.128985 0.19005,0.570156 1.50487,0.569902 1.81892,0.43905 0.20907,-0.104537 0.41814,-0.209071 0.62721,-0.313608 0,-0.04181 -0.0268,-0.09332 0,-0.125442 0.0857,-0.102843 0.22791,-0.148042 0.31361,-0.250885 0.0325,-0.03899 0.0648,-1.504435 0.0627,-1.505313 -0.1399,-0.05996 -0.2927,-0.08363 -0.43905,-0.125442 z"
       id="path99" />
    <path
       style="fill:#ffffff;stroke:#000000;stroke-width:0.4004;stroke-dasharray:none"
       d="m 29.933025,62.252148 c -0.369281,0.283094 -1.030525,-0.433496 -1.505312,-0.250885 -0.485066,0.186563 -0.604515,0.559112 -0.752658,1.00354 -0.147465,0.442402 -0.270653,0.693349 -0.125441,1.128985 0.190052,0.570156 1.50487,0.569902 1.81892,0.43905 0.209071,-0.104537 0.418142,-0.209071 0.627213,-0.313608 0,-0.04181 -0.02677,-0.09332 0,-0.125442 0.0857,-0.102843 0.227904,-0.148042 0.313606,-0.250885 0.0325,-0.03899 0.06477,-1.504435 0.06272,-1.505313 -0.139899,-0.05996 -0.292701,-0.08363 -0.43905,-0.125442 z"
       id="path100" />
    <path
       style="fill:none;stroke:#000000;stroke-width:0.450859;stroke-dasharray:none;stroke-dashoffset:0;marker-end:url(#ConcaveTriangle-6)"
       d="M 5.3583755,23.595653 C 3.524694,26.769339 2.5117481,30.412677 2.4441712,34.077388 2.3740098,37.882256 3.324648,41.701199 5.1703623,45.029154"
       id="path68-8"
       inkscape:path-effect="#path-effect70-8"
       inkscape:original-d="M 5.3583755,23.595653 C 4.3243028,27.183572 3.384237,30.583476 2.4441712,34.077388 1.5041054,37.571299 4.2616318,41.4099 5.1703623,45.029154"
       transform="matrix(0.57989233,0,0,0.26049897,66.774207,14.5026)"
       inkscape:label="path6" />
    <path
       style="fill:none;stroke:#000000;stroke-width:0.450859;stroke-dasharray:none;stroke-dashoffset:0;marker-end:url(#ConcaveTriangle-9-6)"
       d="M 5.3583755,23.595653 C 3.524694,26.769339 2.5117481,30.412677 2.4441712,34.077388 2.3740098,37.882256 3.324648,41.701199 5.1703623,45.029154"
       id="path69-4"
       inkscape:path-effect="#path-effect72-0"
       inkscape:original-d="M 5.3583755,23.595653 C 4.3243028,27.183572 3.384237,30.583476 2.4441712,34.077388 1.5041054,37.571299 4.2616318,41.4099 5.1703623,45.029154"
       transform="matrix(-0.57989233,0,0,-0.26049897,74.91441,32.637309)"
       inkscape:label="path6" />
    <path
       style="fill:none;stroke:#000000;stroke-width:0.450859;stroke-dasharray:none;stroke-dashoffset:0;marker-end:url(#ConcaveTriangle-6-6)"
       d="M 5.3583755,23.595653 C 3.524694,26.769339 2.5117481,30.412677 2.4441712,34.077388 2.3740098,37.882256 3.324648,41.701199 5.1703623,45.029154"
       id="path68-8-8"
       inkscape:path-effect="#path-effect70-8-3"
       inkscape:original-d="M 5.3583755,23.595653 C 4.3243028,27.183572 3.384237,30.583476 2.4441712,34.077388 1.5041054,37.571299 4.2616318,41.4099 5.1703623,45.029154"
       transform="matrix(0.57989233,0,0,0.26049897,75.871303,14.493921)"
       inkscape:label="path6" />
    <path
       style="fill:none;stroke:#000000;stroke-width:0.450859;stroke-dasharray:none;stroke-dashoffset:0;marker-end:url(#ConcaveTriangle-9-6-0)"
       d="M 5.3583755,23.595653 C 3.524694,26.769339 2.5117481,30.412677 2.4441712,34.077388 2.3740098,37.882256 3.324648,41.701199 5.1703623,45.029154"
       id="path69-4-4"
       inkscape:path-effect="#path-effect72-0-9"
       inkscape:original-d="M 5.3583755,23.595653 C 4.3243028,27.183572 3.384237,30.583476 2.4441712,34.077388 1.5041054,37.571299 4.2616318,41.4099 5.1703623,45.029154"
       transform="matrix(-0.57989233,0,0,-0.26049897,84.011507,32.62863)"
       inkscape:label="path6" />
    <path
       style="fill:none;stroke:#000000;stroke-width:0.450859;stroke-dasharray:none;stroke-dashoffset:0;marker-end:url(#ConcaveTriangle-6-6-3)"
       d="M 5.3583755,23.595653 C 3.524694,26.769339 2.5117481,30.412677 2.4441712,34.077388 2.3740098,37.882256 3.324648,41.701199 5.1703623,45.029154"
       id="path68-8-8-4"
       inkscape:path-effect="#path-effect70-8-3-3"
       inkscape:original-d="M 5.3583755,23.595653 C 4.3243028,27.183572 3.384237,30.583476 2.4441712,34.077388 1.5041054,37.571299 4.2616318,41.4099 5.1703623,45.029154"
       transform="matrix(0.57989233,0,0,0.26049897,86.040668,14.820427)"
       inkscape:label="path6" />
    <path
       style="fill:none;stroke:#000000;stroke-width:0.450859;stroke-dasharray:none;stroke-dashoffset:0;marker-end:url(#ConcaveTriangle-9-6-0-2)"
       d="M 5.3583755,23.595653 C 3.524694,26.769339 2.5117481,30.412677 2.4441712,34.077388 2.3740098,37.882256 3.324648,41.701199 5.1703623,45.029154"
       id="path69-4-4-3"
       inkscape:path-effect="#path-effect72-0-9-5"
       inkscape:original-d="M 5.3583755,23.595653 C 4.3243028,27.183572 3.384237,30.583476 2.4441712,34.077388 1.5041054,37.571299 4.2616318,41.4099 5.1703623,45.029154"
       transform="matrix(-0.57989233,0,0,-0.26049897,94.180871,32.955136)"
       inkscape:label="path6" />
    <path
       style="fill:none;stroke:#000000;stroke-width:0.450859;stroke-dasharray:none;stroke-dashoffset:0;marker-end:url(#ConcaveTriangle-7)"
       d="M 5.3583755,23.595653 C 3.524694,26.769339 2.5117481,30.412677 2.4441712,34.077388 2.3740098,37.882256 3.324648,41.701199 5.1703623,45.029154"
       id="path68-9"
       inkscape:path-effect="#path-effect70-82"
       inkscape:original-d="M 5.3583755,23.595653 C 4.3243028,27.183572 3.384237,30.583476 2.4441712,34.077388 1.5041054,37.571299 4.2616318,41.4099 5.1703623,45.029154"
       transform="matrix(1.6891939,0,0,1.0972295,23.246087,-2.6724773)"
       inkscape:label="path6" />
    <path
       style="fill:none;stroke:#000000;stroke-width:0.450859;stroke-dasharray:none;stroke-dashoffset:0;marker-end:url(#ConcaveTriangle-9-9)"
       d="M 5.3583755,23.595653 C 3.524694,26.769339 2.5117481,30.412677 2.4441712,34.077388 2.3740098,37.882256 3.324648,41.701199 5.1703623,45.029154"
       id="path69-0"
       inkscape:path-effect="#path-effect72-9"
       inkscape:original-d="M 5.3583755,23.595653 C 4.3243028,27.183572 3.384237,30.583476 2.4441712,34.077388 1.5041054,37.571299 4.2616318,41.4099 5.1703623,45.029154"
       transform="matrix(-1.6891939,0,0,-1.0972295,46.958047,73.711463)"
       inkscape:label="path6" />
  </g>
  <g
     inkscape:groupmode="layer"
     id="g112"
     inkscape:label="sorting 1 copy"
     transform="translate(185.00019)" />
</svg>
